<?xml version="1.0" encoding="UTF-8"?>
<svg xmlns="http://www.w3.org/2000/svg" xmlns:xlink="http://www.w3.org/1999/xlink" width="279px" height="2667px" viewBox="0 0 279 186" version="1.1">
<g id="surface1">
<path style=" stroke:none;fill-rule:evenodd;fill:rgb(100%,100%,100%);fill-opacity:1;" d="M 0.0117188 185.984375 L 279.011719 185.984375 L 279.011719 0.0117188 L 0.0117188 0.0117188 L 0.0117188 185.984375 "/>
<path style="fill:none;stroke-width:2.26772;stroke-linecap:butt;stroke-linejoin:miter;stroke:rgb(6.27451%,5.882353%,5.098039%);stroke-opacity:1;stroke-miterlimit:10;" d="M 1.260081 1.080318 L 30001.260831 1.080318 L 30001.260831 20000.640262 L 1.260081 20000.640262 Z M 1.260081 1.080318 " transform="matrix(0.0093,0,0,-0.00929884,0,185.994421)"/>
<path style=" stroke:none;fill-rule:evenodd;fill:rgb(92.941176%,11.372549%,14.117647%);fill-opacity:1;" d="M 262.128906 70.113281 L 257.777344 64.679688 C 257.777344 81.746094 257.777344 98.8125 257.777344 115.878906 L 262.128906 121.316406 C 262.128906 104.25 262.128906 87.179688 262.128906 70.113281 "/>
<path style=" stroke:none;fill-rule:evenodd;fill:rgb(92.941176%,11.372549%,14.117647%);fill-opacity:1;" d="M 272.410156 66.710938 L 268.058594 61.273438 C 268.058594 80.613281 268.058594 99.945312 268.058594 119.285156 L 272.410156 124.710938 C 272.410156 105.378906 272.410156 86.039062 272.410156 66.710938 "/>
<path style=" stroke:none;fill-rule:evenodd;fill:rgb(92.941176%,11.372549%,14.117647%);fill-opacity:1;" d="M 16.902344 70.113281 L 21.253906 64.679688 C 21.253906 81.746094 21.253906 98.8125 21.253906 115.878906 L 16.902344 121.316406 C 16.902344 104.25 16.902344 87.179688 16.902344 70.113281 "/>
<path style=" stroke:none;fill-rule:evenodd;fill:rgb(92.941176%,11.372549%,14.117647%);fill-opacity:1;" d="M 6.621094 66.710938 L 10.972656 61.273438 C 10.972656 80.613281 10.972656 99.945312 10.972656 119.285156 L 6.621094 124.710938 C 6.621094 105.378906 6.621094 86.039062 6.621094 66.710938 "/>
<path style=" stroke:none;fill-rule:nonzero;fill:rgb(92.941176%,11.372549%,14.117647%);fill-opacity:1;" d="M 160.390625 108.300781 C 160.390625 106.742188 160.832031 105.425781 161.730469 104.335938 C 162.621094 103.238281 163.699219 102.691406 164.960938 102.691406 C 165.402344 102.691406 165.808594 102.863281 166.148438 103.203125 C 166.5 103.546875 166.742188 103.996094 166.882812 104.566406 C 166.761719 104.414062 166.621094 104.304688 166.457031 104.226562 C 166.28125 104.140625 166.09375 104.105469 165.882812 104.105469 C 165.289062 104.105469 164.785156 104.433594 164.367188 105.117188 C 163.960938 105.796875 163.753906 106.621094 163.753906 107.597656 C 163.753906 107.984375 163.851562 108.3125 164.058594 108.585938 C 164.269531 108.863281 164.523438 109.003906 164.816406 109.003906 C 165.421875 109.003906 165.984375 108.367188 166.488281 107.09375 C 167.003906 105.832031 167.257812 104.433594 167.257812 102.941406 C 167.566406 102.667969 167.960938 102.457031 168.421875 102.316406 C 168.882812 102.183594 169.421875 102.117188 170.011719 102.117188 C 169.902344 103.953125 169.847656 107.179688 169.847656 111.792969 C 169.003906 112.253906 168.191406 112.496094 167.398438 112.496094 C 167.324219 112.496094 167.246094 112.421875 167.191406 112.289062 C 167.136719 112.144531 167.101562 111.980469 167.101562 111.792969 L 167.179688 107.597656 C 166.695312 108.882812 166.058594 109.90625 165.289062 110.664062 C 164.511719 111.410156 163.6875 111.792969 162.828125 111.792969 C 162.160156 111.792969 161.578125 111.453125 161.105469 110.773438 C 160.621094 110.089844 160.390625 109.269531 160.390625 108.300781 Z M 167.257812 98.503906 C 167.257812 97.648438 167.609375 96.847656 168.289062 96.109375 C 168.980469 95.375 169.730469 95.011719 170.550781 95.011719 C 170.980469 95.011719 171.363281 95.054688 171.707031 95.15625 C 172.046875 95.253906 172.320312 95.398438 172.527344 95.59375 C 172.527344 95.804688 172.40625 96.101562 172.167969 96.496094 C 171.925781 96.890625 171.738281 97.089844 171.605469 97.089844 C 171.375 96.804688 171.167969 96.570312 170.992188 96.417969 C 170.816406 96.253906 170.660156 96.175781 170.550781 96.175781 C 170.253906 96.175781 170.003906 96.296875 169.792969 96.550781 C 169.585938 96.804688 169.488281 97.097656 169.488281 97.460938 C 169.488281 97.78125 169.5625 98.109375 169.730469 98.449219 C 169.894531 98.789062 170.113281 99.085938 170.386719 99.328125 L 168.640625 100.371094 L 168.027344 100.371094 C 167.796875 100.152344 167.609375 99.890625 167.464844 99.558594 C 167.332031 99.21875 167.257812 98.867188 167.257812 98.503906 Z M 171.386719 108.179688 C 171.386719 106.742188 171.792969 105.5 172.59375 104.480469 C 173.398438 103.445312 174.375 102.941406 175.515625 102.941406 C 175.957031 102.941406 176.382812 103.117188 176.800781 103.480469 C 177.207031 103.84375 177.449219 104.25 177.496094 104.6875 C 177.382812 104.535156 177.242188 104.425781 177.085938 104.347656 C 176.921875 104.257812 176.757812 104.226562 176.582031 104.226562 C 175.988281 104.226562 175.484375 104.613281 175.066406 105.371094 C 174.648438 106.136719 174.441406 107.070312 174.441406 108.179688 C 174.441406 108.664062 174.539062 109.070312 174.746094 109.410156 C 174.96875 109.75 175.21875 109.925781 175.515625 109.925781 C 176.230469 109.925781 176.847656 109.203125 177.351562 107.773438 C 177.855469 106.347656 178.097656 104.613281 178.097656 102.570312 C 178.613281 102.117188 179.527344 101.898438 180.84375 101.898438 C 180.757812 103.558594 180.703125 105.425781 180.703125 107.464844 C 180.933594 106.523438 181.273438 105.753906 181.757812 105.183594 C 182.226562 104.613281 182.742188 104.316406 183.292969 104.316406 C 184.050781 104.316406 184.699219 104.863281 185.238281 105.949219 C 185.777344 107.050781 186.039062 108.367188 186.039062 109.925781 C 186.039062 110.421875 185.699219 110.90625 185.019531 111.367188 C 184.347656 111.828125 183.457031 112.199219 182.371094 112.496094 C 182.523438 111.847656 182.632812 111.191406 182.710938 110.53125 C 182.789062 109.859375 182.832031 109.203125 182.832031 108.542969 C 182.832031 108.027344 182.777344 107.578125 182.65625 107.214844 C 182.546875 106.851562 182.40625 106.675781 182.226562 106.675781 C 181.8125 106.675781 181.449219 107.171875 181.152344 108.179688 C 180.855469 109.179688 180.703125 110.378906 180.703125 111.792969 C 179.855469 112.253906 179.042969 112.496094 178.261719 112.496094 C 178.175781 112.496094 178.109375 112.441406 178.042969 112.355469 C 177.988281 112.265625 177.957031 112.15625 177.957031 112.035156 L 178.023438 108.046875 C 177.757812 109.167969 177.273438 110.070312 176.550781 110.761719 C 175.835938 111.441406 175.035156 111.792969 174.132812 111.792969 C 173.375 111.792969 172.726562 111.441406 172.1875 110.730469 C 171.648438 110.027344 171.386719 109.179688 171.386719 108.179688 Z M 186.433594 112.035156 C 186.433594 107.464844 186.480469 104.359375 186.578125 102.691406 C 187.105469 102.226562 188.050781 101.984375 189.402344 101.984375 C 189.3125 103.65625 189.257812 106.917969 189.257812 111.792969 C 188.414062 112.253906 187.621094 112.496094 186.898438 112.496094 C 186.765625 112.496094 186.664062 112.441406 186.566406 112.355469 C 186.480469 112.265625 186.433594 112.15625 186.433594 112.035156 Z M 204.207031 106.433594 C 204.207031 107.234375 204.328125 107.929688 204.570312 108.488281 C 204.8125 109.058594 205.097656 109.34375 205.4375 109.34375 C 205.746094 109.34375 206.019531 109.246094 206.261719 109.058594 C 206.503906 108.871094 206.691406 108.621094 206.8125 108.300781 L 204.832031 102.941406 C 204.625 103.46875 204.480469 104.027344 204.371094 104.621094 C 204.261719 105.214844 204.207031 105.820312 204.207031 106.433594 Z M 202.769531 115.1875 C 202.769531 114.824219 203.011719 114.484375 203.484375 114.144531 C 203.964844 113.804688 204.59375 113.53125 205.347656 113.320312 C 205.347656 114.210938 205.65625 115.109375 206.285156 116.023438 C 206.898438 116.933594 207.515625 117.394531 208.117188 117.394531 C 208.449219 117.394531 208.722656 117.207031 208.964844 116.847656 C 209.207031 116.484375 209.328125 116.042969 209.328125 115.527344 C 209.328125 115.101562 209.261719 114.75 209.152344 114.441406 C 209.03125 114.144531 208.886719 113.992188 208.722656 113.992188 C 208.503906 113.992188 208.328125 114.15625 208.171875 114.484375 C 208.03125 114.804688 207.953125 115.1875 207.953125 115.648438 C 207.808594 115.617188 207.667969 115.527344 207.523438 115.375 C 207.371094 115.230469 207.238281 115.046875 207.117188 114.824219 C 207.28125 114.121094 207.589844 113.5625 208.019531 113.132812 C 208.457031 112.707031 208.941406 112.496094 209.480469 112.496094 C 210.207031 112.496094 210.808594 112.738281 211.324219 113.242188 C 211.832031 113.75 212.082031 114.351562 212.082031 115.066406 C 212.082031 115.96875 211.699219 116.738281 210.929688 117.363281 C 210.148438 118 209.214844 118.308594 208.117188 118.308594 C 206.820312 118.308594 205.699219 118.03125 204.746094 117.472656 C 203.800781 116.921875 203.144531 116.15625 202.769531 115.1875 Z M 218.289062 105.972656 C 218.542969 105.972656 218.816406 105.886719 219.101562 105.730469 C 219.386719 105.566406 219.671875 105.324219 219.957031 105.019531 L 220.035156 102.820312 C 220.300781 102.589844 220.660156 102.414062 221.132812 102.292969 C 221.597656 102.171875 222.144531 102.117188 222.78125 102.117188 C 222.683594 103.777344 222.640625 107.003906 222.640625 111.792969 C 221.792969 112.253906 221.003906 112.496094 220.277344 112.496094 C 220.167969 112.496094 220.078125 112.421875 220.003906 112.289062 C 219.925781 112.144531 219.894531 111.980469 219.894531 111.792969 L 219.957031 106.675781 C 219.707031 106.894531 219.464844 107.070312 219.222656 107.179688 C 218.992188 107.289062 218.785156 107.347656 218.585938 107.347656 C 218.507812 107.347656 218.433594 107.300781 218.378906 107.214844 C 218.320312 107.125 218.289062 107.015625 218.289062 106.894531 Z M 224.023438 108.300781 C 224.023438 106.742188 224.464844 105.425781 225.363281 104.335938 C 226.253906 103.238281 227.328125 102.691406 228.59375 102.691406 C 229.03125 102.691406 229.425781 102.863281 229.777344 103.203125 C 230.128906 103.546875 230.371094 103.996094 230.515625 104.566406 C 230.394531 104.414062 230.25 104.304688 230.085938 104.226562 C 229.910156 104.140625 229.722656 104.105469 229.515625 104.105469 C 228.921875 104.105469 228.417969 104.433594 228 105.117188 C 227.59375 105.796875 227.382812 106.621094 227.382812 107.597656 C 227.382812 107.984375 227.484375 108.3125 227.691406 108.585938 C 227.898438 108.863281 228.152344 109.003906 228.449219 109.003906 C 229.054688 109.003906 229.613281 108.367188 230.121094 107.09375 C 230.636719 105.832031 230.886719 104.433594 230.886719 102.941406 C 231.195312 102.667969 231.589844 102.457031 232.050781 102.316406 C 232.515625 102.183594 233.050781 102.117188 233.632812 102.117188 C 233.535156 103.953125 233.480469 107.179688 233.480469 111.792969 C 232.636719 112.253906 231.820312 112.496094 231.03125 112.496094 C 230.953125 112.496094 230.878906 112.421875 230.824219 112.289062 C 230.765625 112.144531 230.734375 111.980469 230.734375 111.792969 L 230.8125 107.597656 C 230.328125 108.882812 229.691406 109.90625 228.921875 110.664062 C 228.140625 111.410156 227.320312 111.792969 226.460938 111.792969 C 225.792969 111.792969 225.210938 111.453125 224.738281 110.773438 C 224.253906 110.089844 224.023438 109.269531 224.023438 108.300781 Z M 193.101562 96.296875 C 193.101562 96.230469 193.125 96.164062 193.179688 96.101562 C 193.234375 96.035156 193.3125 95.980469 193.398438 95.925781 L 195.246094 95.222656 C 195.507812 95.078125 195.816406 95.011719 196.144531 95.011719 C 196.277344 95.011719 196.417969 95.089844 196.585938 95.253906 C 196.75 95.40625 196.914062 95.636719 197.066406 95.925781 L 197.5625 96.683594 C 197.914062 96.144531 198.320312 95.738281 198.792969 95.441406 C 199.265625 95.15625 199.757812 95.011719 200.277344 95.011719 C 200.714844 95.011719 201.097656 95.054688 201.441406 95.15625 C 201.769531 95.253906 202.054688 95.398438 202.265625 95.59375 C 202.265625 95.804688 202.144531 96.101562 201.902344 96.496094 C 201.648438 96.890625 201.460938 97.089844 201.339844 97.089844 C 201.109375 96.804688 200.878906 96.570312 200.660156 96.417969 C 200.441406 96.253906 200.230469 96.175781 200.035156 96.175781 C 199.660156 96.175781 199.332031 96.351562 199.066406 96.714844 C 198.804688 97.078125 198.671875 97.515625 198.671875 98.042969 C 198.671875 98.460938 198.75 98.835938 198.914062 99.152344 C 199.066406 99.480469 199.277344 99.691406 199.515625 99.789062 C 199.308594 99.976562 199.101562 100.121094 198.925781 100.21875 C 198.738281 100.316406 198.574219 100.371094 198.429688 100.371094 L 231.65625 100.371094 C 231.425781 100.152344 231.238281 99.890625 231.097656 99.558594 C 230.964844 99.21875 230.886719 98.867188 230.886719 98.503906 C 230.886719 97.648438 231.238281 96.847656 231.921875 96.109375 C 232.613281 95.375 233.359375 95.011719 234.171875 95.011719 C 234.613281 95.011719 234.996094 95.054688 235.335938 95.15625 C 235.679688 95.253906 235.953125 95.398438 236.160156 95.59375 C 236.160156 95.804688 236.039062 96.101562 235.796875 96.496094 C 235.558594 96.890625 235.371094 97.089844 235.238281 97.089844 C 235.007812 96.804688 234.800781 96.570312 234.625 96.417969 C 234.449219 96.253906 234.292969 96.175781 234.171875 96.175781 C 233.886719 96.175781 233.632812 96.296875 233.425781 96.550781 C 233.21875 96.804688 233.117188 97.097656 233.117188 97.460938 C 233.117188 97.78125 233.195312 98.109375 233.359375 98.449219 C 233.523438 98.789062 233.746094 99.085938 234.019531 99.328125 L 232.273438 100.371094 L 250.351562 100.371094 L 250.351562 101.777344 L 243.816406 101.777344 C 243.882812 101.898438 243.949219 102.03125 243.980469 102.152344 C 244.015625 102.273438 244.035156 102.382812 244.035156 102.480469 C 244.035156 102.875 243.761719 103.269531 243.210938 103.644531 C 242.664062 104.007812 241.949219 104.316406 241.070312 104.566406 C 240.203125 104.785156 239.488281 105.214844 238.929688 105.832031 C 238.371094 106.457031 238.082031 107.125 238.082031 107.839844 C 238.082031 108.324219 238.183594 108.742188 238.390625 109.09375 C 238.597656 109.453125 238.851562 109.652344 239.160156 109.707031 C 239.105469 109.554688 239.074219 109.367188 239.039062 109.136719 C 239.015625 108.894531 239.003906 108.621094 239.003906 108.300781 C 239.003906 107.585938 239.3125 106.984375 239.941406 106.476562 C 240.566406 105.972656 241.324219 105.730469 242.214844 105.730469 C 243.058594 105.730469 243.773438 105.949219 244.367188 106.402344 C 244.960938 106.863281 245.257812 107.410156 245.257812 108.046875 C 245.257812 108.761719 244.914062 109.367188 244.234375 109.871094 C 243.554688 110.378906 242.71875 110.628906 241.75 110.628906 C 241.9375 111.125 242.214844 111.519531 242.566406 111.816406 C 242.914062 112.101562 243.3125 112.246094 243.730469 112.246094 C 243.980469 112.246094 244.234375 112.179688 244.496094 112.035156 C 244.378906 112.34375 244.113281 112.652344 243.707031 112.957031 C 243.300781 113.253906 242.960938 113.410156 242.675781 113.410156 C 241.871094 113.410156 241.179688 113.179688 240.566406 112.726562 C 239.960938 112.265625 239.535156 111.640625 239.300781 110.871094 C 238.082031 110.871094 237.027344 110.5625 236.171875 109.949219 C 235.304688 109.332031 234.875 108.585938 234.875 107.71875 C 234.875 106.949219 235.226562 106.238281 235.941406 105.554688 C 236.644531 104.875 237.546875 104.390625 238.621094 104.105469 C 239.335938 103.90625 239.90625 103.667969 240.335938 103.382812 C 240.773438 103.105469 240.984375 102.796875 240.984375 102.480469 C 240.984375 102.28125 240.949219 102.117188 240.871094 101.976562 C 240.808594 101.84375 240.707031 101.777344 240.609375 101.777344 L 216.90625 101.777344 C 217.367188 102.03125 217.730469 102.4375 218.015625 102.984375 C 218.289062 103.535156 218.433594 104.140625 218.433594 104.808594 C 218.433594 105.566406 218.046875 106.292969 217.265625 106.996094 C 216.488281 107.699219 215.511719 108.214844 214.324219 108.542969 C 214.664062 108.632812 215.015625 108.785156 215.355469 109.003906 C 215.699219 109.214844 216.003906 109.476562 216.300781 109.796875 C 216.554688 110.070312 216.785156 110.277344 216.992188 110.421875 C 217.203125 110.554688 217.378906 110.628906 217.53125 110.628906 C 217.6875 110.628906 217.839844 110.609375 217.992188 110.5625 C 218.136719 110.519531 218.289062 110.464844 218.433594 110.378906 L 218.585938 110.628906 C 218.367188 111.210938 218.113281 111.664062 217.816406 111.992188 C 217.519531 112.320312 217.214844 112.496094 216.90625 112.496094 C 216.453125 112.496094 216.003906 112.367188 215.554688 112.101562 C 215.113281 111.847656 214.699219 111.476562 214.324219 110.992188 C 213.875 110.421875 213.480469 109.980469 213.136719 109.675781 C 212.796875 109.367188 212.523438 109.214844 212.335938 109.214844 C 212.304688 109.214844 212.203125 109.300781 212.019531 109.464844 L 212.335938 107.136719 L 213.402344 107.136719 C 213.949219 107.136719 214.421875 106.863281 214.808594 106.3125 C 215.191406 105.753906 215.390625 105.09375 215.390625 104.316406 C 215.390625 103.832031 215.238281 103.359375 214.929688 102.886719 C 214.621094 102.414062 214.214844 102.050781 213.699219 101.777344 L 205.4375 101.777344 L 207.414062 107.597656 C 207.535156 107.433594 207.691406 106.960938 207.875 106.183594 L 207.953125 102.820312 C 208.261719 102.546875 208.65625 102.335938 209.117188 102.195312 C 209.578125 102.0625 210.117188 101.984375 210.710938 101.984375 C 210.601562 103.832031 210.546875 107.105469 210.546875 111.792969 C 209.699219 112.253906 208.910156 112.496094 208.183594 112.496094 C 208.074219 112.496094 207.984375 112.421875 207.910156 112.289062 C 207.832031 112.144531 207.800781 111.980469 207.800781 111.792969 L 207.875 108.300781 C 207.523438 109.234375 207.0625 109.972656 206.492188 110.519531 C 205.910156 111.058594 205.304688 111.332031 204.667969 111.332031 C 203.746094 111.332031 202.96875 110.914062 202.308594 110.101562 C 201.648438 109.289062 201.320312 108.300781 201.320312 107.136719 C 201.320312 106.160156 201.394531 105.226562 201.550781 104.316406 C 201.703125 103.414062 201.933594 102.570312 202.230469 101.777344 L 194.605469 101.777344 C 195.011719 101.933594 195.34375 102.207031 195.597656 102.601562 C 195.847656 102.984375 195.980469 103.402344 195.980469 103.863281 C 195.980469 104.832031 195.652344 105.65625 195.011719 106.335938 C 194.375 107.015625 193.609375 107.347656 192.707031 107.347656 C 192.707031 108.058594 192.871094 108.664062 193.210938 109.167969 C 193.554688 109.675781 193.960938 109.925781 194.453125 109.925781 C 194.9375 109.925781 195.421875 109.574219 195.882812 108.894531 C 196.34375 108.203125 196.707031 107.300781 196.980469 106.183594 L 197.058594 102.820312 C 197.320312 102.589844 197.683594 102.414062 198.15625 102.292969 C 198.617188 102.171875 199.164062 102.117188 199.804688 102.117188 C 199.691406 103.953125 199.636719 107.179688 199.636719 111.792969 C 198.792969 112.253906 197.980469 112.496094 197.199219 112.496094 C 197.113281 112.496094 197.046875 112.421875 196.980469 112.289062 C 196.925781 112.144531 196.890625 111.980469 196.890625 111.792969 L 196.890625 109.003906 C 196.5625 109.859375 196.132812 110.53125 195.585938 111.035156 C 195.046875 111.542969 194.464844 111.792969 193.851562 111.792969 C 192.664062 111.792969 191.652344 111.332031 190.816406 110.433594 C 189.984375 109.519531 189.566406 108.421875 189.566406 107.136719 C 189.566406 106.9375 189.621094 106.773438 189.742188 106.632812 C 189.863281 106.5 190.015625 106.433594 190.179688 106.433594 C 190.9375 106.433594 191.585938 106.183594 192.125 105.675781 C 192.664062 105.171875 192.925781 104.566406 192.925781 103.863281 C 192.925781 103.335938 192.828125 102.886719 192.632812 102.492188 C 192.421875 102.097656 192.167969 101.855469 191.863281 101.777344 L 153.273438 101.777344 C 153.734375 102.03125 154.097656 102.4375 154.382812 102.984375 C 154.65625 103.535156 154.800781 104.140625 154.800781 104.808594 C 154.800781 105.566406 154.417969 106.292969 153.636719 106.996094 C 152.855469 107.699219 151.878906 108.214844 150.691406 108.542969 C 151.042969 108.632812 151.382812 108.785156 151.726562 109.003906 C 152.066406 109.214844 152.375 109.476562 152.667969 109.796875 C 152.933594 110.070312 153.152344 110.277344 153.363281 110.421875 C 153.570312 110.554688 153.746094 110.628906 153.898438 110.628906 C 154.054688 110.628906 154.207031 110.609375 154.363281 110.5625 C 154.503906 110.519531 154.65625 110.464844 154.800781 110.378906 L 154.964844 110.628906 C 154.734375 111.210938 154.480469 111.664062 154.1875 111.992188 C 153.890625 112.320312 153.582031 112.496094 153.273438 112.496094 C 152.824219 112.496094 152.375 112.367188 151.921875 112.101562 C 151.484375 111.847656 151.066406 111.476562 150.691406 110.992188 C 150.242188 110.421875 149.847656 109.980469 149.507812 109.675781 C 149.164062 109.367188 148.890625 109.214844 148.703125 109.214844 C 148.671875 109.214844 148.570312 109.300781 148.386719 109.464844 L 148.703125 107.136719 L 149.769531 107.136719 C 150.320312 107.136719 150.792969 106.863281 151.175781 106.3125 C 151.558594 105.753906 151.757812 105.09375 151.757812 104.316406 C 151.757812 103.832031 151.605469 103.359375 151.296875 102.886719 C 150.988281 102.414062 150.582031 102.050781 150.066406 101.777344 L 148.054688 101.777344 L 148.054688 100.371094 L 198.429688 100.371094 C 198.011719 100.371094 197.640625 100.285156 197.320312 100.121094 C 197 99.964844 196.769531 99.734375 196.605469 99.449219 L 195.167969 97.339844 C 195.003906 97.042969 194.792969 96.8125 194.542969 96.660156 C 194.289062 96.496094 194.015625 96.417969 193.707031 96.417969 C 193.300781 96.417969 193.101562 96.375 193.101562 96.296875 Z M 214.796875 82.25 C 214.796875 82.636719 214.828125 82.976562 214.886719 83.25 C 214.949219 83.523438 215.015625 83.65625 215.105469 83.65625 C 215.300781 83.65625 215.402344 82.644531 215.402344 80.625 L 215.347656 79.339844 C 215.167969 79.570312 215.039062 79.933594 214.941406 80.449219 C 214.851562 80.953125 214.796875 81.558594 214.796875 82.25 Z M 234.085938 83.898438 C 234.085938 82.800781 234.425781 81.722656 235.09375 80.679688 C 235.765625 79.625 236.65625 78.789062 237.753906 78.175781 C 237.753906 76.902344 237.6875 75.847656 237.554688 75 C 237.425781 74.15625 237.238281 73.738281 236.996094 73.738281 C 236.820312 73.738281 236.675781 73.890625 236.558594 74.1875 C 236.4375 74.484375 236.371094 74.847656 236.371094 75.265625 C 236.371094 75.695312 236.492188 76.046875 236.710938 76.332031 C 236.941406 76.628906 237.214844 76.769531 237.535156 76.769531 C 237.269531 77.351562 236.929688 77.8125 236.535156 78.144531 C 236.140625 78.472656 235.734375 78.636719 235.304688 78.636719 C 234.886719 78.636719 234.523438 78.472656 234.226562 78.132812 C 233.929688 77.792969 233.789062 77.375 233.789062 76.890625 C 233.789062 75.902344 234.160156 75 234.910156 74.179688 C 235.667969 73.355469 236.480469 72.9375 237.371094 72.9375 C 238.214844 72.9375 238.941406 73.320312 239.535156 74.066406 C 240.125 74.816406 240.421875 75.714844 240.421875 76.769531 C 241.027344 76.242188 241.574219 75.835938 242.082031 75.5625 C 242.597656 75.289062 243.035156 75.144531 243.398438 75.144531 C 243.617188 75.144531 243.792969 75.242188 243.949219 75.453125 C 244.089844 75.648438 244.167969 75.902344 244.167969 76.1875 C 244.113281 77.109375 244.089844 79.988281 244.089844 84.820312 C 243.664062 85.050781 243.234375 85.226562 242.816406 85.347656 C 242.390625 85.46875 241.972656 85.523438 241.566406 85.523438 C 241.476562 85.523438 241.398438 85.457031 241.34375 85.316406 C 241.289062 85.183594 241.257812 85.015625 241.257812 84.820312 L 241.34375 78.175781 C 241.34375 78.042969 241.3125 77.933594 241.257812 77.847656 C 241.191406 77.757812 241.125 77.714844 241.039062 77.714844 C 240.960938 77.714844 240.871094 77.746094 240.773438 77.800781 C 240.664062 77.855469 240.542969 77.945312 240.421875 78.054688 C 240.421875 80.1875 239.960938 82.007812 239.050781 83.515625 C 238.148438 85.015625 237.050781 85.765625 235.765625 85.765625 C 235.304688 85.765625 234.910156 85.589844 234.578125 85.226562 C 234.25 84.863281 234.085938 84.414062 234.085938 83.898438 Z M 236.90625 83.414062 C 236.90625 83.613281 236.929688 83.777344 236.972656 83.910156 C 237.019531 84.050781 237.074219 84.117188 237.140625 84.117188 C 237.371094 84.117188 237.523438 83.722656 237.621094 82.941406 C 237.710938 82.164062 237.753906 81.074219 237.753906 79.703125 C 237.492188 79.933594 237.28125 80.371094 237.140625 81.042969 C 236.984375 81.703125 236.90625 82.492188 236.90625 83.414062 Z M 29.710938 111.574219 C 29.710938 107.234375 29.757812 104.238281 29.855469 102.570312 C 30.359375 102.117188 31.273438 101.898438 32.601562 101.898438 C 32.5 103.558594 32.457031 106.863281 32.457031 111.792969 C 31.613281 112.253906 30.898438 112.496094 30.316406 112.496094 C 30.140625 112.496094 29.996094 112.398438 29.886719 112.222656 C 29.765625 112.046875 29.710938 111.828125 29.710938 111.574219 Z M 33.851562 109.585938 C 33.851562 107.5 34.722656 105.710938 36.457031 104.226562 C 38.191406 102.734375 40.277344 101.984375 42.707031 101.984375 C 43.003906 101.984375 43.253906 102.117188 43.464844 102.371094 C 43.671875 102.625 43.773438 102.921875 43.773438 103.28125 C 43.660156 105.117188 43.617188 107.992188 43.617188 111.914062 C 43.398438 112.101562 43.089844 112.246094 42.671875 112.34375 C 42.265625 112.441406 41.773438 112.496094 41.191406 112.496094 C 41.101562 112.496094 41.027344 112.441406 40.960938 112.355469 C 40.90625 112.265625 40.871094 112.15625 40.871094 112.035156 C 40.871094 108.28125 40.914062 105.480469 41.027344 103.644531 C 40.597656 103.710938 40.167969 103.832031 39.761719 104.027344 C 39.34375 104.226562 38.949219 104.480469 38.585938 104.808594 C 38.871094 105.0625 39.09375 105.433594 39.257812 105.929688 C 39.421875 106.421875 39.5 106.984375 39.5 107.597656 C 39.5 109.039062 39.191406 110.265625 38.566406 111.289062 C 37.9375 112.320312 37.179688 112.828125 36.292969 112.828125 C 35.554688 112.828125 34.960938 112.542969 34.523438 111.949219 C 34.074219 111.355469 33.851562 110.5625 33.851562 109.585938 Z M 36.839844 109.003906 C 36.839844 109.585938 36.882812 110.070312 36.984375 110.476562 C 37.082031 110.882812 37.214844 111.082031 37.355469 111.082031 C 37.652344 111.082031 37.90625 110.71875 38.125 109.992188 C 38.335938 109.269531 38.445312 108.390625 38.445312 107.347656 C 38.445312 106.949219 38.378906 106.578125 38.269531 106.246094 C 38.160156 105.917969 38.015625 105.664062 37.816406 105.511719 C 37.511719 105.832031 37.269531 106.300781 37.09375 106.929688 C 36.929688 107.542969 36.839844 108.234375 36.839844 109.003906 Z M 45.34375 99.207031 C 45.34375 98.285156 45.945312 97.351562 47.132812 96.417969 C 48.332031 95.472656 49.515625 95.011719 50.691406 95.011719 C 51.824219 95.011719 52.878906 95.363281 53.855469 96.089844 C 54.820312 96.804688 55.601562 97.800781 56.183594 99.085938 C 56.007812 99.40625 55.691406 99.660156 55.25 99.84375 C 54.800781 100.03125 54.273438 100.121094 53.65625 100.121094 C 53.371094 98.945312 52.945312 97.988281 52.371094 97.265625 C 51.800781 96.539062 51.1875 96.175781 50.539062 96.175781 C 50.023438 96.175781 49.515625 96.5625 49.011719 97.339844 C 48.507812 98.109375 48.253906 98.890625 48.253906 99.667969 C 48.253906 99.8125 48.285156 99.945312 48.351562 100.074219 C 48.417969 100.207031 48.515625 100.304688 48.625 100.371094 L 78.183594 100.371094 L 78.183594 101.777344 L 64.816406 101.777344 C 64.585938 101.898438 64.398438 102.117188 64.269531 102.414062 C 64.125 102.710938 64.058594 103.039062 64.058594 103.402344 C 64.058594 103.722656 64.160156 104.019531 64.367188 104.28125 C 64.574219 104.546875 64.828125 104.722656 65.136719 104.808594 C 65.355469 104.863281 65.542969 104.964844 65.683594 105.09375 C 65.828125 105.226562 65.894531 105.359375 65.894531 105.511719 C 65.894531 105.65625 65.828125 105.832031 65.695312 106.039062 C 65.554688 106.246094 65.367188 106.457031 65.125 106.675781 C 64.75 106.996094 64.453125 107.367188 64.234375 107.785156 C 64.027344 108.203125 63.917969 108.609375 63.917969 109.003906 C 63.917969 109.191406 63.992188 109.355469 64.136719 109.5 C 64.28125 109.628906 64.464844 109.707031 64.675781 109.707031 C 65.070312 109.707031 65.488281 109.34375 65.949219 108.621094 C 66.398438 107.90625 66.816406 106.9375 67.179688 105.730469 L 67.179688 108.300781 C 66.75 109.445312 66.179688 110.355469 65.488281 111.023438 C 64.785156 111.695312 64.058594 112.035156 63.289062 112.035156 C 62.578125 112.035156 61.960938 111.78125 61.457031 111.277344 C 60.960938 110.785156 60.710938 110.167969 60.710938 109.464844 C 60.710938 108.863281 60.832031 108.300781 61.082031 107.773438 C 61.324219 107.246094 61.664062 106.839844 62.070312 106.554688 C 62.796875 106.027344 63.148438 105.753906 63.148438 105.730469 C 63.148438 105.632812 62.894531 105.480469 62.390625 105.269531 C 61.941406 105.082031 61.566406 104.820312 61.28125 104.480469 C 60.996094 104.128906 60.851562 103.765625 60.851562 103.402344 C 60.851562 103.105469 60.917969 102.820312 61.0625 102.523438 C 61.191406 102.238281 61.378906 101.984375 61.632812 101.777344 L 28.679688 101.777344 L 28.679688 100.371094 L 30.007812 100.371094 C 29.867188 100.175781 29.746094 99.976562 29.667969 99.769531 C 29.589844 99.570312 29.546875 99.382812 29.546875 99.207031 C 29.546875 98.285156 30.152344 97.351562 31.347656 96.417969 C 32.535156 95.472656 33.722656 95.011719 34.894531 95.011719 C 36.027344 95.011719 37.082031 95.363281 38.058594 96.089844 C 39.039062 96.804688 39.804688 97.800781 40.390625 99.085938 C 40.210938 99.40625 39.90625 99.660156 39.453125 99.84375 C 39.015625 100.03125 38.476562 100.121094 37.875 100.121094 C 37.585938 98.945312 37.160156 97.988281 36.589844 97.265625 C 36.015625 96.539062 35.402344 96.175781 34.742188 96.175781 C 34.238281 96.175781 33.722656 96.5625 33.214844 97.339844 C 32.710938 98.109375 32.457031 98.890625 32.457031 99.667969 C 32.457031 99.8125 32.492188 99.945312 32.558594 100.074219 C 32.621094 100.207031 32.722656 100.304688 32.832031 100.371094 L 45.804688 100.371094 C 45.660156 100.175781 45.539062 99.976562 45.464844 99.769531 C 45.386719 99.570312 45.34375 99.382812 45.34375 99.207031 Z M 45.507812 111.574219 C 45.507812 107.234375 45.550781 104.238281 45.648438 102.570312 C 46.15625 102.117188 47.066406 101.898438 48.394531 101.898438 C 48.296875 103.558594 48.253906 106.863281 48.253906 111.792969 C 47.40625 112.253906 46.683594 112.496094 46.113281 112.496094 C 45.9375 112.496094 45.792969 112.398438 45.671875 112.222656 C 45.5625 112.046875 45.507812 111.828125 45.507812 111.574219 Z M 49.648438 108.300781 C 49.648438 106.742188 50.085938 105.425781 50.988281 104.335938 C 51.878906 103.238281 52.953125 102.691406 54.21875 102.691406 C 54.65625 102.691406 55.0625 102.863281 55.402344 103.203125 C 55.753906 103.546875 55.996094 103.996094 56.140625 104.566406 C 56.019531 104.414062 55.875 104.304688 55.710938 104.226562 C 55.535156 104.140625 55.347656 104.105469 55.140625 104.105469 C 54.546875 104.105469 54.042969 104.433594 53.625 105.117188 C 53.21875 105.796875 53.007812 106.621094 53.007812 107.597656 C 53.007812 107.984375 53.109375 108.3125 53.316406 108.585938 C 53.527344 108.863281 53.777344 109.003906 54.074219 109.003906 C 54.679688 109.003906 55.238281 108.367188 55.746094 107.09375 C 56.261719 105.832031 56.511719 104.433594 56.511719 102.941406 C 56.820312 102.667969 57.214844 102.457031 57.679688 102.316406 C 58.140625 102.183594 58.675781 102.117188 59.257812 102.117188 C 59.160156 103.953125 59.105469 107.179688 59.105469 111.792969 C 58.261719 112.253906 57.445312 112.496094 56.65625 112.496094 C 56.578125 112.496094 56.503906 112.421875 56.449219 112.289062 C 56.394531 112.144531 56.359375 111.980469 56.359375 111.792969 L 56.4375 107.597656 C 55.953125 108.882812 55.316406 109.90625 54.546875 110.664062 C 53.765625 111.410156 52.945312 111.792969 52.085938 111.792969 C 51.417969 111.792969 50.835938 111.453125 50.363281 110.773438 C 49.878906 110.089844 49.648438 109.269531 49.648438 108.300781 Z M 56.511719 98.503906 C 56.511719 97.648438 56.863281 96.847656 57.546875 96.109375 C 58.238281 95.375 58.984375 95.011719 59.808594 95.011719 C 60.238281 95.011719 60.621094 95.054688 60.960938 95.15625 C 61.300781 95.253906 61.578125 95.398438 61.785156 95.59375 C 61.785156 95.804688 61.664062 96.101562 61.421875 96.496094 C 61.183594 96.890625 60.996094 97.089844 60.863281 97.089844 C 60.632812 96.804688 60.421875 96.570312 60.25 96.417969 C 60.074219 96.253906 59.917969 96.175781 59.808594 96.175781 C 59.511719 96.175781 59.257812 96.296875 59.050781 96.550781 C 58.84375 96.804688 58.742188 97.097656 58.742188 97.460938 C 58.742188 97.78125 58.820312 98.109375 58.984375 98.449219 C 59.148438 98.789062 59.371094 99.085938 59.644531 99.328125 L 57.898438 100.371094 L 57.28125 100.371094 C 57.050781 100.152344 56.863281 99.890625 56.722656 99.558594 C 56.589844 99.21875 56.511719 98.867188 56.511719 98.503906 Z M 67.3125 109.585938 C 67.3125 107.5 68.179688 105.710938 69.914062 104.226562 C 71.648438 102.734375 73.738281 101.984375 76.164062 101.984375 C 76.460938 101.984375 76.714844 102.117188 76.921875 102.371094 C 77.132812 102.625 77.230469 102.921875 77.230469 103.28125 C 77.132812 105.117188 77.074219 107.992188 77.074219 111.914062 C 76.855469 112.101562 76.546875 112.246094 76.132812 112.34375 C 75.726562 112.441406 75.230469 112.496094 74.648438 112.496094 C 74.5625 112.496094 74.484375 112.441406 74.417969 112.355469 C 74.363281 112.265625 74.328125 112.15625 74.328125 112.035156 C 74.328125 108.28125 74.382812 105.480469 74.484375 103.644531 C 74.054688 103.710938 73.628906 103.832031 73.21875 104.027344 C 72.804688 104.226562 72.40625 104.480469 72.046875 104.808594 C 72.332031 105.0625 72.550781 105.433594 72.714844 105.929688 C 72.878906 106.421875 72.957031 106.984375 72.957031 107.597656 C 72.957031 109.039062 72.648438 110.265625 72.023438 111.289062 C 71.398438 112.320312 70.640625 112.828125 69.761719 112.828125 C 69.011719 112.828125 68.421875 112.542969 67.980469 111.949219 C 67.53125 111.355469 67.3125 110.5625 67.3125 109.585938 Z M 70.296875 109.003906 C 70.296875 109.585938 70.34375 110.070312 70.441406 110.476562 C 70.550781 110.882812 70.671875 111.082031 70.816406 111.082031 C 71.113281 111.082031 71.363281 110.71875 71.582031 109.992188 C 71.792969 109.269531 71.902344 108.390625 71.902344 107.347656 C 71.902344 106.949219 71.847656 106.578125 71.726562 106.246094 C 71.617188 105.917969 71.472656 105.664062 71.277344 105.511719 C 70.96875 105.832031 70.726562 106.300781 70.550781 106.929688 C 70.386719 107.542969 70.296875 108.234375 70.296875 109.003906 Z M 74.648438 96.507812 C 74.648438 95.988281 74.757812 95.550781 75 95.1875 C 75.242188 94.824219 75.527344 94.640625 75.867188 94.640625 C 76.207031 94.640625 76.492188 94.824219 76.734375 95.1875 C 76.964844 95.550781 77.085938 95.988281 77.085938 96.507812 C 77.085938 97.035156 76.964844 97.472656 76.734375 97.847656 C 76.492188 98.21875 76.207031 98.40625 75.867188 98.40625 C 75.527344 98.40625 75.242188 98.21875 75 97.847656 C 74.757812 97.472656 74.648438 97.035156 74.648438 96.507812 Z M 83.359375 108.179688 C 83.359375 106.742188 83.753906 105.5 84.566406 104.480469 C 85.371094 103.445312 86.347656 102.941406 87.488281 102.941406 C 87.929688 102.941406 88.355469 103.117188 88.773438 103.480469 C 89.179688 103.84375 89.410156 104.25 89.464844 104.6875 C 89.355469 104.535156 89.214844 104.425781 89.058594 104.347656 C 88.894531 104.257812 88.730469 104.226562 88.542969 104.226562 C 87.960938 104.226562 87.457031 104.613281 87.027344 105.371094 C 86.609375 106.136719 86.402344 107.070312 86.402344 108.179688 C 86.402344 108.664062 86.511719 109.070312 86.71875 109.410156 C 86.941406 109.75 87.191406 109.925781 87.488281 109.925781 C 88.203125 109.925781 88.816406 109.203125 89.324219 107.773438 C 89.816406 106.347656 90.070312 104.613281 90.070312 102.570312 C 90.574219 102.117188 91.5 101.898438 92.816406 101.898438 C 92.730469 103.558594 92.671875 105.425781 92.671875 107.464844 C 92.894531 106.523438 93.246094 105.753906 93.726562 105.183594 C 94.199219 104.613281 94.714844 104.316406 95.265625 104.316406 C 96.023438 104.316406 96.671875 104.863281 97.210938 105.949219 C 97.738281 107.050781 98.011719 108.367188 98.011719 109.925781 C 98.011719 110.421875 97.671875 110.90625 96.992188 111.367188 C 96.320312 111.828125 95.429688 112.199219 94.34375 112.496094 C 94.484375 111.847656 94.605469 111.191406 94.683594 110.53125 C 94.761719 109.859375 94.804688 109.203125 94.804688 108.542969 C 94.804688 108.027344 94.75 107.578125 94.628906 107.214844 C 94.507812 106.851562 94.367188 106.675781 94.199219 106.675781 C 93.773438 106.675781 93.421875 107.171875 93.125 108.179688 C 92.828125 109.179688 92.671875 110.378906 92.671875 111.792969 C 91.828125 112.253906 91.015625 112.496094 90.234375 112.496094 C 90.148438 112.496094 90.070312 112.441406 90.015625 112.355469 C 89.960938 112.265625 89.925781 112.15625 89.925781 112.035156 L 89.992188 108.046875 C 89.730469 109.167969 89.234375 110.070312 88.523438 110.761719 C 87.808594 111.441406 87.003906 111.792969 86.105469 111.792969 C 85.347656 111.792969 84.699219 111.441406 84.160156 110.730469 C 83.621094 110.027344 83.359375 109.179688 83.359375 108.179688 Z M 84.796875 115.1875 C 84.796875 114.824219 85.039062 114.484375 85.523438 114.144531 C 86.007812 113.804688 86.621094 113.53125 87.390625 113.320312 C 87.390625 114.210938 87.699219 115.109375 88.3125 116.023438 C 88.9375 116.933594 89.542969 117.394531 90.148438 117.394531 C 90.476562 117.394531 90.761719 117.207031 91.003906 116.847656 C 91.234375 116.484375 91.355469 116.042969 91.355469 115.527344 C 91.355469 115.101562 91.300781 114.75 91.179688 114.441406 C 91.070312 114.144531 90.925781 113.992188 90.75 113.992188 C 90.542969 113.992188 90.367188 114.15625 90.214844 114.484375 C 90.070312 114.804688 89.992188 115.1875 89.992188 115.648438 C 89.839844 115.617188 89.695312 115.527344 89.554688 115.375 C 89.410156 115.230469 89.28125 115.046875 89.148438 114.824219 C 89.324219 114.121094 89.621094 113.5625 90.058594 113.132812 C 90.488281 112.707031 90.972656 112.496094 91.519531 112.496094 C 92.234375 112.496094 92.847656 112.738281 93.355469 113.242188 C 93.871094 113.75 94.125 114.351562 94.125 115.066406 C 94.125 115.96875 93.726562 116.738281 92.960938 117.363281 C 92.191406 118 91.257812 118.308594 90.148438 118.308594 C 88.863281 118.308594 87.742188 118.03125 86.785156 117.472656 C 85.832031 116.921875 85.171875 116.15625 84.796875 115.1875 Z M 112.773438 109.214844 C 112.773438 109.609375 112.796875 109.9375 112.863281 110.210938 C 112.917969 110.488281 112.984375 110.628906 113.070312 110.628906 C 113.269531 110.628906 113.378906 109.621094 113.378906 107.597656 L 113.3125 106.3125 C 113.136719 106.53125 113.003906 106.90625 112.917969 107.410156 C 112.820312 107.917969 112.773438 108.519531 112.773438 109.214844 Z M 113.226562 96.296875 C 113.226562 96.230469 113.257812 96.164062 113.3125 96.101562 C 113.355469 96.035156 113.433594 95.980469 113.53125 95.925781 L 115.378906 95.222656 C 115.640625 95.078125 115.9375 95.011719 116.277344 95.011719 C 116.398438 95.011719 116.554688 95.089844 116.71875 95.253906 C 116.882812 95.40625 117.035156 95.636719 117.203125 95.925781 L 118.71875 98.253906 C 118.902344 98.59375 119.136719 98.867188 119.429688 99.066406 C 119.71875 99.273438 120.046875 99.394531 120.410156 99.449219 C 120.070312 99.757812 119.738281 99.988281 119.429688 100.140625 C 119.113281 100.296875 118.828125 100.371094 118.5625 100.371094 C 118.136719 100.371094 117.773438 100.285156 117.453125 100.121094 C 117.136719 99.964844 116.894531 99.734375 116.738281 99.449219 L 115.289062 97.339844 C 115.136719 97.042969 114.925781 96.8125 114.675781 96.660156 C 114.421875 96.496094 114.136719 96.417969 113.828125 96.417969 C 113.433594 96.417969 113.226562 96.375 113.226562 96.296875 Z M 127.878906 109.464844 C 128.328125 109.34375 128.691406 109.113281 128.988281 108.761719 C 129.273438 108.398438 129.414062 108.015625 129.414062 107.597656 C 129.414062 107.464844 129.394531 107.355469 129.328125 107.269531 C 129.261719 107.179688 129.183594 107.136719 129.109375 107.136719 C 128.734375 107.136719 128.4375 107.347656 128.21875 107.761719 C 127.988281 108.179688 127.878906 108.75 127.878906 109.464844 Z M 124.273438 96.296875 C 124.273438 96.230469 124.308594 96.164062 124.351562 96.101562 C 124.40625 96.035156 124.484375 95.980469 124.582031 95.925781 L 126.417969 95.222656 C 126.679688 95.078125 126.988281 95.011719 127.328125 95.011719 C 127.449219 95.011719 127.59375 95.089844 127.757812 95.253906 C 127.921875 95.40625 128.085938 95.636719 128.242188 95.925781 L 129.765625 98.253906 C 129.953125 98.59375 130.183594 98.867188 130.46875 99.066406 C 130.765625 99.273438 131.097656 99.394531 131.449219 99.449219 C 131.117188 99.757812 130.789062 99.988281 130.46875 100.140625 C 130.164062 100.296875 129.878906 100.371094 129.613281 100.371094 C 129.183594 100.371094 128.8125 100.285156 128.503906 100.121094 C 128.1875 99.964844 127.945312 99.734375 127.777344 99.449219 L 126.339844 97.339844 C 126.1875 97.042969 125.976562 96.8125 125.726562 96.660156 C 125.472656 96.496094 125.1875 96.417969 124.878906 96.417969 C 124.472656 96.417969 124.273438 96.375 124.273438 96.296875 Z M 131.820312 100.371094 L 142.925781 100.371094 L 142.925781 101.777344 L 130.109375 101.777344 C 130.175781 101.898438 130.230469 102.03125 130.273438 102.152344 C 130.304688 102.273438 130.328125 102.382812 130.328125 102.480469 C 130.328125 102.875 130.054688 103.269531 129.503906 103.644531 C 128.953125 104.007812 128.242188 104.316406 127.363281 104.566406 C 126.492188 104.785156 125.78125 105.214844 125.207031 105.832031 C 124.648438 106.457031 124.375 107.125 124.375 107.839844 C 124.375 108.324219 124.472656 108.742188 124.683594 109.09375 C 124.890625 109.453125 125.144531 109.652344 125.449219 109.707031 C 125.394531 109.554688 125.363281 109.367188 125.328125 109.136719 C 125.308594 108.894531 125.296875 108.621094 125.296875 108.300781 C 125.296875 107.585938 125.605469 106.984375 126.230469 106.476562 C 126.855469 105.972656 127.613281 105.730469 128.503906 105.730469 C 129.351562 105.730469 130.0625 105.949219 130.65625 106.402344 C 131.25 106.863281 131.546875 107.410156 131.546875 108.046875 C 131.546875 108.761719 131.207031 109.367188 130.527344 109.871094 C 129.84375 110.378906 129.007812 110.628906 128.042969 110.628906 C 128.230469 111.125 128.503906 111.519531 128.855469 111.816406 C 129.207031 112.101562 129.601562 112.246094 130.019531 112.246094 C 130.273438 112.246094 130.527344 112.179688 130.789062 112.035156 C 130.667969 112.34375 130.40625 112.652344 130 112.957031 C 129.589844 113.253906 129.25 113.410156 128.964844 113.410156 C 128.164062 113.410156 127.460938 113.179688 126.855469 112.726562 C 126.253906 112.265625 125.824219 111.640625 125.59375 110.871094 C 124.363281 110.871094 123.320312 110.5625 122.464844 109.949219 C 121.59375 109.332031 121.167969 108.585938 121.167969 107.71875 C 121.167969 106.949219 121.519531 106.238281 122.234375 105.554688 C 122.933594 104.875 123.835938 104.390625 124.914062 104.105469 C 125.625 103.90625 126.199219 103.667969 126.625 103.382812 C 127.066406 103.105469 127.273438 102.796875 127.273438 102.480469 C 127.273438 102.28125 127.242188 102.117188 127.164062 101.976562 C 127.085938 101.84375 127 101.777344 126.898438 101.777344 L 115.980469 101.777344 C 116.179688 102.613281 116.277344 103.195312 116.277344 103.523438 C 117.617188 102.976562 118.617188 102.691406 119.265625 102.691406 C 119.453125 102.691406 119.617188 102.789062 119.75 102.976562 C 119.882812 103.160156 119.949219 103.382812 119.949219 103.644531 C 119.894531 104.566406 119.871094 107.28125 119.871094 111.792969 C 119.023438 112.253906 118.234375 112.496094 117.5 112.496094 C 117.398438 112.496094 117.300781 112.421875 117.234375 112.289062 C 117.15625 112.144531 117.125 111.980469 117.125 111.792969 C 117.125 107.894531 117.148438 105.480469 117.203125 104.566406 C 116.925781 104.566406 116.640625 104.644531 116.355469 104.808594 C 116.355469 106.917969 115.980469 108.730469 115.214844 110.234375 C 114.457031 111.738281 113.53125 112.496094 112.46875 112.496094 C 111.785156 112.496094 111.214844 112.222656 110.742188 111.683594 C 110.261719 111.136719 110.027344 110.476562 110.027344 109.707031 C 110.027344 108.542969 110.324219 107.464844 110.917969 106.488281 C 111.523438 105.511719 112.292969 104.832031 113.234375 104.433594 C 113.234375 103.984375 113.171875 103.535156 113.058594 103.074219 C 112.9375 102.613281 112.773438 102.171875 112.542969 101.777344 L 103.183594 101.777344 C 103.636719 102.03125 104.007812 102.390625 104.285156 102.855469 C 104.570312 103.316406 104.710938 103.796875 104.710938 104.316406 C 104.933594 103.984375 105.21875 103.722656 105.558594 103.546875 C 105.898438 103.371094 106.28125 103.28125 106.691406 103.28125 C 107.535156 103.28125 108.261719 103.613281 108.855469 104.269531 C 109.457031 104.929688 109.753906 105.730469 109.753906 106.675781 C 109.753906 107.410156 109.546875 108.179688 109.140625 108.960938 C 108.722656 109.75 108.160156 110.453125 107.457031 111.082031 C 106.128906 110.148438 105.46875 109.71875 105.46875 109.796875 C 105.46875 109.609375 105.722656 109.191406 106.226562 108.542969 C 106.4375 108.28125 106.589844 107.972656 106.691406 107.609375 C 106.800781 107.246094 106.855469 106.851562 106.855469 106.433594 C 106.855469 106.039062 106.753906 105.710938 106.578125 105.433594 C 106.402344 105.160156 106.183594 105.019531 105.933594 105.019531 C 105.636719 105.019531 105.292969 105.226562 104.910156 105.632812 C 104.515625 106.027344 104.128906 106.609375 103.722656 107.347656 C 103.722656 107.039062 103.800781 106.589844 103.941406 105.972656 C 103.414062 106.644531 102.546875 107.226562 101.363281 107.71875 C 101.84375 107.839844 102.546875 108.511719 103.480469 109.707031 C 103.832031 110.15625 104.175781 110.5 104.515625 110.730469 C 104.855469 110.96875 105.171875 111.082031 105.46875 111.082031 C 105.042969 111.542969 104.644531 111.882812 104.285156 112.125 C 103.921875 112.375 103.601562 112.496094 103.339844 112.496094 C 103.085938 112.496094 102.746094 112.308594 102.328125 111.949219 C 101.898438 111.585938 101.425781 111.058594 100.902344 110.378906 C 99.933594 109.15625 99.429688 108.542969 99.375 108.542969 C 99.199219 108.542969 99.035156 108.554688 98.902344 108.597656 C 98.769531 108.640625 98.671875 108.695312 98.617188 108.761719 L 98.914062 106.894531 C 99.671875 106.894531 100.320312 106.644531 100.855469 106.136719 C 101.394531 105.632812 101.660156 105.027344 101.660156 104.316406 C 101.660156 103.722656 101.484375 103.183594 101.140625 102.710938 C 100.800781 102.226562 100.363281 101.921875 99.835938 101.777344 L 82.820312 101.777344 L 82.820312 100.371094 Z M 132.359375 108.300781 C 132.359375 106.742188 132.800781 105.425781 133.699219 104.335938 C 134.589844 103.238281 135.667969 102.691406 136.929688 102.691406 C 137.367188 102.691406 137.765625 102.863281 138.113281 103.203125 C 138.464844 103.546875 138.707031 103.996094 138.851562 104.566406 C 138.730469 104.414062 138.585938 104.304688 138.421875 104.226562 C 138.246094 104.140625 138.058594 104.105469 137.851562 104.105469 C 137.257812 104.105469 136.753906 104.433594 136.335938 105.117188 C 135.929688 105.796875 135.722656 106.621094 135.722656 107.597656 C 135.722656 107.984375 135.820312 108.3125 136.027344 108.585938 C 136.238281 108.863281 136.488281 109.003906 136.785156 109.003906 C 137.390625 109.003906 137.949219 108.367188 138.457031 107.09375 C 138.972656 105.832031 139.226562 104.433594 139.226562 102.941406 C 139.53125 102.667969 139.929688 102.457031 140.390625 102.316406 C 140.851562 102.183594 141.378906 102.117188 141.972656 102.117188 C 141.871094 103.953125 141.816406 107.179688 141.816406 111.792969 C 140.972656 112.253906 140.160156 112.496094 139.367188 112.496094 C 139.289062 112.496094 139.214844 112.421875 139.160156 112.289062 C 139.105469 112.144531 139.070312 111.980469 139.070312 111.792969 L 139.148438 107.597656 C 138.664062 108.882812 138.027344 109.90625 137.246094 110.664062 C 136.476562 111.410156 135.65625 111.792969 134.796875 111.792969 C 134.128906 111.792969 133.546875 111.453125 133.074219 110.773438 C 132.589844 110.089844 132.359375 109.269531 132.359375 108.300781 Z M 154.65625 105.972656 C 154.910156 105.972656 155.183594 105.886719 155.472656 105.730469 C 155.757812 105.566406 156.042969 105.324219 156.328125 105.019531 L 156.40625 102.820312 C 156.667969 102.589844 157.03125 102.414062 157.503906 102.292969 C 157.964844 102.171875 158.511719 102.117188 159.148438 102.117188 C 159.050781 103.777344 159.007812 107.003906 159.007812 111.792969 C 158.164062 112.253906 157.371094 112.496094 156.644531 112.496094 C 156.535156 112.496094 156.449219 112.421875 156.371094 112.289062 C 156.292969 112.144531 156.261719 111.980469 156.261719 111.792969 L 156.328125 106.675781 C 156.074219 106.894531 155.832031 107.070312 155.589844 107.179688 C 155.359375 107.289062 155.152344 107.347656 154.964844 107.347656 C 154.878906 107.347656 154.800781 107.300781 154.746094 107.214844 C 154.691406 107.125 154.65625 107.015625 154.65625 106.894531 Z M 241.585938 109.464844 C 242.039062 109.34375 242.398438 109.113281 242.695312 108.761719 C 242.980469 108.398438 243.136719 108.015625 243.136719 107.597656 C 243.136719 107.464844 243.101562 107.355469 243.035156 107.269531 C 242.972656 107.179688 242.894531 107.136719 242.816406 107.136719 C 242.445312 107.136719 242.148438 107.347656 241.929688 107.761719 C 241.695312 108.179688 241.585938 108.75 241.585938 109.464844 Z M 246.421875 112.035156 C 246.421875 107.464844 246.464844 104.359375 246.5625 102.691406 C 247.089844 102.226562 248.035156 101.984375 249.386719 101.984375 C 249.289062 103.65625 249.242188 106.917969 249.242188 111.792969 C 248.398438 112.253906 247.605469 112.496094 246.871094 112.496094 C 246.75 112.496094 246.640625 112.441406 246.550781 112.355469 C 246.464844 112.265625 246.421875 112.15625 246.421875 112.035156 Z M 29.21875 81.328125 C 29.21875 79.78125 29.667969 78.460938 30.558594 77.363281 C 31.449219 76.277344 32.535156 75.726562 33.789062 75.726562 C 34.238281 75.726562 34.632812 75.902344 34.984375 76.242188 C 35.324219 76.570312 35.578125 77.035156 35.710938 77.59375 C 35.589844 77.449219 35.445312 77.339844 35.28125 77.253906 C 35.117188 77.175781 34.917969 77.132812 34.710938 77.132812 C 34.117188 77.132812 33.613281 77.472656 33.203125 78.152344 C 32.789062 78.835938 32.578125 79.660156 32.578125 80.625 C 32.578125 81.019531 32.6875 81.351562 32.898438 81.625 C 33.09375 81.898438 33.347656 82.03125 33.644531 82.03125 C 34.25 82.03125 34.808594 81.394531 35.324219 80.132812 C 35.832031 78.855469 36.09375 77.472656 36.09375 75.96875 C 36.402344 75.695312 36.785156 75.484375 37.246094 75.351562 C 37.71875 75.210938 38.246094 75.144531 38.839844 75.144531 C 38.730469 76.988281 38.675781 80.21875 38.675781 84.820312 C 37.828125 85.292969 37.015625 85.523438 36.238281 85.523438 C 36.148438 85.523438 36.082031 85.457031 36.015625 85.316406 C 35.960938 85.183594 35.929688 85.015625 35.929688 84.820312 L 36.015625 80.625 C 35.523438 81.921875 34.894531 82.941406 34.117188 83.699219 C 33.335938 84.445312 32.523438 84.820312 31.667969 84.820312 C 30.984375 84.820312 30.402344 84.480469 29.933594 83.800781 C 29.460938 83.128906 29.21875 82.304688 29.21875 81.328125 Z M 65.136719 73.398438 L 75.078125 73.398438 L 75.078125 74.804688 L 73.40625 74.804688 C 73.453125 74.890625 73.484375 75 73.507812 75.132812 C 73.539062 75.277344 73.550781 75.429688 73.550781 75.605469 C 73.550781 75.8125 72.5625 76.332031 70.585938 77.132812 C 70.242188 77.273438 69.96875 77.449219 69.761719 77.648438 C 69.539062 77.835938 69.441406 78.011719 69.441406 78.175781 C 69.441406 78.449219 69.585938 78.703125 69.871094 78.921875 C 70.167969 79.132812 70.53125 79.273438 70.957031 79.339844 C 72.023438 79.484375 72.902344 79.835938 73.617188 80.394531 C 74.328125 80.953125 74.691406 81.570312 74.691406 82.25 C 74.691406 83.164062 74.175781 83.929688 73.132812 84.566406 C 72.089844 85.203125 70.824219 85.523438 69.355469 85.523438 C 68.332031 85.523438 67.300781 85.214844 66.265625 84.589844 C 65.222656 83.972656 64.707031 83.347656 64.707031 82.734375 C 64.707031 82.316406 64.917969 81.910156 65.34375 81.515625 C 65.773438 81.121094 66.324219 80.824219 66.992188 80.625 C 66.9375 81.570312 67.15625 82.382812 67.640625 83.074219 C 68.136719 83.777344 68.726562 84.117188 69.441406 84.117188 C 69.992188 84.117188 70.453125 83.953125 70.835938 83.613281 C 71.230469 83.273438 71.417969 82.855469 71.417969 82.371094 C 71.417969 81.910156 71.113281 81.449219 70.476562 80.988281 C 69.847656 80.539062 69.035156 80.1875 68.058594 79.921875 C 67.488281 79.757812 67.015625 79.503906 66.640625 79.164062 C 66.257812 78.8125 66.070312 78.4375 66.070312 78.054688 C 66.070312 77.703125 66.3125 77.375 66.785156 77.078125 C 67.246094 76.78125 67.882812 76.515625 68.671875 76.308594 C 69.835938 76 70.417969 75.660156 70.417969 75.265625 C 70.417969 75.199219 70.410156 75.132812 70.386719 75.046875 C 70.355469 74.96875 70.320312 74.890625 70.277344 74.804688 L 28.679688 74.804688 L 28.679688 73.398438 Z M 46.695312 82.195312 L 46.703125 81.085938 C 46.59375 81.589844 46.429688 82.054688 46.210938 82.46875 C 46.375 82.382812 46.539062 82.292969 46.695312 82.195312 Z M 40.070312 81.207031 C 40.070312 79.769531 40.476562 78.539062 41.277344 77.503906 C 42.082031 76.484375 43.058594 75.96875 44.199219 75.96875 C 44.652344 75.96875 45.078125 76.15625 45.484375 76.515625 C 45.902344 76.878906 46.132812 77.273438 46.1875 77.714844 C 46.066406 77.570312 45.9375 77.460938 45.769531 77.375 C 45.617188 77.296875 45.441406 77.253906 45.265625 77.253906 C 44.671875 77.253906 44.167969 77.636719 43.75 78.40625 C 43.332031 79.175781 43.125 80.109375 43.125 81.207031 C 43.125 81.691406 43.234375 82.109375 43.441406 82.449219 C 43.652344 82.789062 43.902344 82.953125 44.199219 82.953125 C 44.925781 82.953125 45.527344 82.238281 46.035156 80.8125 C 46.539062 79.371094 46.792969 77.648438 46.792969 75.605469 C 47.296875 75.15625 48.210938 74.925781 49.539062 74.925781 C 49.441406 76.59375 49.394531 78.449219 49.394531 80.503906 C 49.617188 79.546875 49.96875 78.789062 50.4375 78.21875 C 50.910156 77.636719 51.429688 77.351562 51.976562 77.351562 C 52.746094 77.351562 53.394531 77.902344 53.921875 78.988281 C 54.460938 80.085938 54.722656 81.40625 54.722656 82.953125 C 54.722656 83.457031 54.394531 83.941406 53.710938 84.402344 C 53.03125 84.863281 52.152344 85.238281 51.066406 85.523438 C 51.207031 84.875 51.316406 84.226562 51.40625 83.558594 C 51.484375 82.898438 51.515625 82.238281 51.515625 81.570312 C 51.515625 81.054688 51.460938 80.613281 51.351562 80.25 C 51.230469 79.890625 51.085938 79.703125 50.910156 79.703125 C 50.496094 79.703125 50.132812 80.207031 49.835938 81.207031 C 49.539062 82.207031 49.394531 83.414062 49.394531 84.820312 C 48.550781 85.292969 47.726562 85.523438 46.945312 85.523438 C 46.859375 85.523438 46.792969 85.480469 46.738281 85.390625 C 46.671875 85.304688 46.648438 85.195312 46.648438 85.0625 L 46.671875 83.808594 C 46.113281 84.214844 45.472656 84.566406 44.761719 84.863281 C 43.277344 85.46875 41.5625 85.765625 39.609375 85.765625 C 39.476562 85.765625 39.355469 85.675781 39.257812 85.488281 C 39.160156 85.304688 39.105469 85.082031 39.105469 84.820312 C 39.105469 84.566406 39.148438 84.347656 39.234375 84.171875 C 39.3125 83.984375 39.421875 83.898438 39.53125 83.898438 C 40.015625 83.898438 40.488281 83.886719 40.9375 83.851562 C 40.914062 83.820312 40.894531 83.800781 40.871094 83.765625 C 40.34375 83.0625 40.070312 82.207031 40.070312 81.207031 Z M 55.152344 82.03125 C 55.152344 80.691406 56.117188 79.1875 58.03125 77.527344 C 59.953125 75.859375 61.699219 75.023438 63.246094 75.023438 C 63.5 75.023438 63.71875 75.121094 63.894531 75.308594 C 64.082031 75.484375 64.167969 75.714844 64.167969 75.96875 C 64.058594 77.8125 64.015625 80.800781 64.015625 84.941406 C 63.796875 85.140625 63.488281 85.28125 63.070312 85.378906 C 62.652344 85.480469 62.148438 85.523438 61.566406 85.523438 C 61.476562 85.523438 61.414062 85.457031 61.359375 85.316406 C 61.292969 85.183594 61.269531 85.015625 61.269531 84.820312 C 61.269531 80.460938 61.292969 77.8125 61.347656 76.890625 C 60.445312 77.394531 59.722656 78.078125 59.183594 78.933594 C 58.632812 79.789062 58.359375 80.667969 58.359375 81.570312 C 58.359375 82.480469 58.492188 83.261719 58.753906 83.910156 C 59.007812 84.566406 59.335938 84.953125 59.742188 85.0625 C 59.46875 85.214844 59.171875 85.324219 58.863281 85.402344 C 58.558594 85.488281 58.238281 85.523438 57.898438 85.523438 C 57.292969 85.523438 56.6875 85.140625 56.074219 84.359375 C 55.457031 83.589844 55.152344 82.8125 55.152344 82.03125 Z M 61.917969 69.542969 C 61.917969 69.027344 62.039062 68.585938 62.269531 68.226562 C 62.511719 67.863281 62.796875 67.675781 63.136719 67.675781 C 63.476562 67.675781 63.761719 67.863281 64.003906 68.226562 C 64.234375 68.585938 64.355469 69.027344 64.355469 69.542969 C 64.355469 70.058594 64.234375 70.507812 64.003906 70.882812 C 63.761719 71.246094 63.476562 71.433594 63.136719 71.433594 C 62.796875 71.433594 62.511719 71.246094 62.269531 70.882812 C 62.039062 70.507812 61.917969 70.058594 61.917969 69.542969 Z M 55.765625 88.214844 C 55.765625 87.863281 56.007812 87.511719 56.492188 87.171875 C 56.976562 86.828125 57.601562 86.554688 58.359375 86.347656 C 58.359375 87.234375 58.667969 88.136719 59.28125 89.058594 C 59.90625 89.972656 60.511719 90.421875 61.117188 90.421875 C 61.445312 90.421875 61.730469 90.246094 61.972656 89.882812 C 62.203125 89.507812 62.324219 89.070312 62.324219 88.554688 C 62.324219 88.136719 62.269531 87.773438 62.148438 87.476562 C 62.039062 87.179688 61.894531 87.027344 61.71875 87.027344 C 61.511719 87.027344 61.335938 87.191406 61.183594 87.511719 C 61.039062 87.839844 60.960938 88.222656 60.960938 88.675781 C 60.808594 88.640625 60.664062 88.554688 60.523438 88.410156 C 60.378906 88.269531 60.25 88.082031 60.117188 87.851562 C 60.292969 87.160156 60.589844 86.597656 61.027344 86.171875 C 61.457031 85.742188 61.949219 85.523438 62.488281 85.523438 C 63.203125 85.523438 63.816406 85.777344 64.324219 86.28125 C 64.839844 86.773438 65.09375 87.390625 65.09375 88.09375 C 65.09375 89.003906 64.707031 89.773438 63.929688 90.398438 C 63.160156 91.027344 62.226562 91.34375 61.117188 91.34375 C 59.832031 91.34375 58.710938 91.070312 57.753906 90.507812 C 56.800781 89.949219 56.140625 89.191406 55.765625 88.214844 Z M 80.613281 82.25 C 80.613281 82.636719 80.644531 82.976562 80.699219 83.25 C 80.753906 83.523438 80.832031 83.65625 80.910156 83.65625 C 81.117188 83.65625 81.21875 82.644531 81.21875 80.625 L 81.152344 79.339844 C 80.988281 79.570312 80.855469 79.933594 80.753906 80.449219 C 80.65625 80.953125 80.613281 81.558594 80.613281 82.25 Z M 99.296875 85.0625 C 99.296875 80.503906 99.339844 77.394531 99.441406 75.726562 C 99.96875 75.265625 100.910156 75.023438 102.261719 75.023438 C 102.164062 76.691406 102.121094 79.957031 102.121094 84.820312 C 101.273438 85.292969 100.484375 85.523438 99.757812 85.523438 C 99.628906 85.523438 99.515625 85.480469 99.429688 85.390625 C 99.339844 85.304688 99.296875 85.195312 99.296875 85.0625 Z M 103.515625 81.207031 C 103.515625 79.769531 103.921875 78.539062 104.722656 77.503906 C 105.523438 76.484375 106.503906 75.96875 107.644531 75.96875 C 108.085938 75.96875 108.511719 76.15625 108.929688 76.515625 C 109.347656 76.878906 109.578125 77.273438 109.632812 77.714844 C 109.511719 77.570312 109.371094 77.460938 109.214844 77.375 C 109.0625 77.296875 108.886719 77.253906 108.710938 77.253906 C 108.117188 77.253906 107.613281 77.636719 107.195312 78.40625 C 106.777344 79.175781 106.570312 80.109375 106.570312 81.207031 C 106.570312 81.691406 106.667969 82.109375 106.886719 82.449219 C 107.097656 82.789062 107.347656 82.953125 107.644531 82.953125 C 108.359375 82.953125 108.972656 82.238281 109.480469 80.8125 C 109.984375 79.371094 110.226562 77.648438 110.226562 75.605469 C 110.742188 75.15625 111.652344 74.925781 112.972656 74.925781 C 112.882812 76.59375 112.828125 78.449219 112.828125 80.503906 C 113.058594 79.546875 113.402344 78.789062 113.882812 78.21875 C 114.355469 77.636719 114.871094 77.351562 115.421875 77.351562 C 116.179688 77.351562 116.828125 77.902344 117.367188 78.988281 C 117.90625 80.085938 118.167969 81.40625 118.167969 82.953125 C 118.167969 83.457031 117.828125 83.941406 117.15625 84.402344 C 116.476562 84.863281 115.585938 85.238281 114.5 85.523438 C 114.652344 84.875 114.761719 84.226562 114.839844 83.558594 C 114.925781 82.898438 114.960938 82.238281 114.960938 81.570312 C 114.960938 81.054688 114.90625 80.613281 114.785156 80.25 C 114.675781 79.890625 114.53125 79.703125 114.355469 79.703125 C 113.9375 79.703125 113.578125 80.207031 113.28125 81.207031 C 112.984375 82.207031 112.828125 83.414062 112.828125 84.820312 C 111.984375 85.292969 111.171875 85.523438 110.390625 85.523438 C 110.304688 85.523438 110.238281 85.480469 110.171875 85.390625 C 110.117188 85.304688 110.082031 85.195312 110.082031 85.0625 L 110.148438 81.085938 C 109.886719 82.207031 109.402344 83.105469 108.6875 83.789062 C 107.976562 84.480469 107.160156 84.820312 106.261719 84.820312 C 105.503906 84.820312 104.855469 84.46875 104.316406 83.765625 C 103.777344 83.0625 103.515625 82.207031 103.515625 81.207031 Z M 119.199219 85.0625 C 119.199219 80.503906 119.246094 77.394531 119.34375 75.726562 C 119.871094 75.265625 120.816406 75.023438 122.167969 75.023438 C 122.066406 76.691406 122.023438 79.957031 122.023438 84.820312 C 121.179688 85.292969 120.386719 85.523438 119.664062 85.523438 C 119.53125 85.523438 119.421875 85.480469 119.332031 85.390625 C 119.246094 85.304688 119.199219 85.195312 119.199219 85.0625 Z M 122.878906 73.398438 L 134.46875 73.398438 L 134.46875 74.804688 L 128.328125 74.804688 C 128.722656 74.96875 129.054688 75.242188 129.304688 75.628906 C 129.570312 76.023438 129.691406 76.441406 129.691406 76.890625 C 129.691406 77.867188 129.371094 78.691406 128.734375 79.363281 C 128.085938 80.042969 127.316406 80.382812 126.417969 80.382812 C 126.417969 81.097656 126.59375 81.703125 126.933594 82.207031 C 127.261719 82.699219 127.679688 82.953125 128.164062 82.953125 C 128.65625 82.953125 129.128906 82.613281 129.589844 81.921875 C 130.0625 81.238281 130.425781 80.339844 130.691406 79.21875 L 130.765625 75.847656 C 131.03125 75.628906 131.40625 75.453125 131.867188 75.332031 C 132.328125 75.210938 132.886719 75.144531 133.511719 75.144531 C 133.414062 76.988281 133.359375 80.21875 133.359375 84.820312 C 132.515625 85.292969 131.699219 85.523438 130.910156 85.523438 C 130.832031 85.523438 130.757812 85.457031 130.703125 85.316406 C 130.644531 85.183594 130.613281 85.015625 130.613281 84.820312 L 130.613281 82.03125 C 130.285156 82.886719 129.84375 83.570312 129.304688 84.074219 C 128.757812 84.566406 128.175781 84.820312 127.558594 84.820312 C 126.382812 84.820312 125.375 84.371094 124.527344 83.46875 C 123.691406 82.558594 123.277344 81.460938 123.277344 80.164062 C 123.277344 79.976562 123.339844 79.8125 123.460938 79.667969 C 123.582031 79.527344 123.726562 79.460938 123.902344 79.460938 C 124.660156 79.460938 125.308594 79.207031 125.847656 78.714844 C 126.371094 78.207031 126.648438 77.605469 126.648438 76.890625 C 126.648438 76.375 126.539062 75.914062 126.339844 75.519531 C 126.140625 75.121094 125.890625 74.890625 125.582031 74.804688 L 96.945312 74.804688 C 97 74.902344 97.035156 75.011719 97.066406 75.132812 C 97.089844 75.253906 97.101562 75.386719 97.101562 75.507812 C 97.101562 75.8125 96.234375 76.210938 94.496094 76.671875 C 93.289062 77 92.671875 77.21875 92.671875 77.351562 C 92.671875 77.625 92.871094 77.890625 93.253906 78.132812 C 93.640625 78.375 94.15625 78.582031 94.804688 78.757812 C 95.78125 79.023438 96.585938 79.394531 97.222656 79.878906 C 97.847656 80.363281 98.167969 80.84375 98.167969 81.328125 C 98.167969 81.777344 97.914062 82.285156 97.40625 82.832031 C 96.902344 83.382812 96.441406 83.65625 96.023438 83.65625 C 95.605469 83.65625 95.242188 83.621094 94.957031 83.535156 C 94.671875 83.457031 94.476562 83.347656 94.355469 83.195312 C 94.53125 83.152344 94.671875 83.019531 94.78125 82.800781 C 94.902344 82.578125 94.957031 82.328125 94.957031 82.03125 C 94.957031 81.582031 94.859375 81.175781 94.660156 80.824219 C 94.464844 80.460938 94.199219 80.25 93.902344 80.164062 L 92.378906 79.800781 C 92.144531 79.933594 91.949219 80.207031 91.804688 80.613281 C 91.664062 81.03125 91.597656 81.503906 91.597656 82.03125 C 91.597656 82.910156 91.839844 83.699219 92.332031 84.402344 C 92.828125 85.105469 93.453125 85.554688 94.199219 85.765625 L 92.816406 86.6875 C 91.773438 86.6875 90.871094 86.300781 90.125 85.535156 C 89.378906 84.765625 89.003906 83.832031 89.003906 82.734375 C 89.003906 82.085938 89.203125 81.414062 89.578125 80.703125 C 89.960938 79.988281 90.488281 79.339844 91.148438 78.757812 C 89.925781 78.078125 89.3125 77.617188 89.3125 77.351562 C 89.3125 76.867188 90.125 76.40625 91.75 75.96875 C 93.179688 75.582031 93.902344 75.199219 93.902344 74.804688 L 83.820312 74.804688 C 84.019531 75.648438 84.117188 76.230469 84.117188 76.550781 C 85.46875 76 86.457031 75.726562 87.105469 75.726562 C 87.292969 75.726562 87.457031 75.824219 87.589844 76.011719 C 87.71875 76.1875 87.785156 76.417969 87.785156 76.671875 C 87.730469 77.59375 87.707031 80.304688 87.707031 84.820312 C 86.863281 85.292969 86.070312 85.523438 85.347656 85.523438 C 85.238281 85.523438 85.148438 85.457031 85.074219 85.316406 C 84.996094 85.183594 84.960938 85.015625 84.960938 84.820312 C 84.960938 80.921875 84.984375 78.515625 85.039062 77.59375 C 84.765625 77.59375 84.492188 77.679688 84.203125 77.835938 C 84.203125 79.957031 83.820312 81.765625 83.0625 83.273438 C 82.292969 84.777344 81.382812 85.523438 80.304688 85.523438 C 79.636719 85.523438 79.054688 85.257812 78.582031 84.710938 C 78.109375 84.171875 77.867188 83.515625 77.867188 82.734375 C 77.867188 81.570312 78.164062 80.503906 78.769531 79.527344 C 79.359375 78.550781 80.128906 77.867188 81.074219 77.472656 C 81.074219 77.023438 81.019531 76.5625 80.898438 76.101562 C 80.777344 75.636719 80.613281 75.210938 80.394531 74.804688 L 77.363281 74.804688 L 77.363281 73.398438 Z M 139.28125 74.804688 L 139.28125 73.398438 L 159.863281 73.398438 C 159.632812 73.1875 159.445312 72.914062 159.316406 72.585938 C 159.171875 72.253906 159.105469 71.902344 159.105469 71.53125 C 159.105469 70.675781 159.445312 69.882812 160.136719 69.148438 C 160.820312 68.410156 161.578125 68.039062 162.390625 68.039062 C 162.820312 68.039062 163.214844 68.09375 163.542969 68.179688 C 163.882812 68.28125 164.160156 68.433594 164.378906 68.621094 C 164.378906 68.828125 164.246094 69.136719 164.003906 69.53125 C 163.765625 69.925781 163.578125 70.125 163.457031 70.125 C 163.226562 69.839844 163.015625 69.609375 162.828125 69.445312 C 162.652344 69.289062 162.511719 69.203125 162.390625 69.203125 C 162.09375 69.203125 161.839844 69.335938 161.632812 69.574219 C 161.421875 69.828125 161.324219 70.136719 161.324219 70.488281 C 161.324219 70.816406 161.414062 71.144531 161.566406 71.488281 C 161.730469 71.828125 161.949219 72.113281 162.226562 72.355469 L 160.480469 73.398438 L 180.535156 73.398438 C 180.109375 73.398438 179.734375 73.320312 179.417969 73.15625 C 179.097656 72.992188 178.867188 72.773438 178.703125 72.476562 L 177.261719 70.367188 C 177.097656 70.082031 176.902344 69.851562 176.636719 69.683594 C 176.382812 69.53125 176.109375 69.445312 175.800781 69.445312 C 175.394531 69.445312 175.199219 69.410156 175.199219 69.324219 C 175.199219 69.257812 175.21875 69.203125 175.273438 69.136719 C 175.332031 69.070312 175.40625 69.015625 175.496094 68.960938 L 177.339844 68.257812 C 177.605469 68.113281 177.910156 68.039062 178.242188 68.039062 C 178.375 68.039062 178.515625 68.125 178.679688 68.28125 C 178.84375 68.445312 179.011719 68.675781 179.164062 68.960938 L 180.691406 71.289062 C 180.867188 71.628906 181.105469 71.902344 181.394531 72.101562 C 181.691406 72.300781 182.007812 72.429688 182.371094 72.476562 C 182.03125 72.78125 181.710938 73.011719 181.394531 73.167969 C 181.085938 73.320312 180.800781 73.398438 180.535156 73.398438 L 184.074219 73.398438 C 183.917969 73.210938 183.808594 73.011719 183.734375 72.804688 C 183.644531 72.605469 183.613281 72.410156 183.613281 72.234375 C 183.613281 71.3125 184.207031 70.386719 185.402344 69.445312 C 186.601562 68.511719 187.785156 68.039062 188.960938 68.039062 C 190.09375 68.039062 191.148438 68.402344 192.113281 69.113281 C 193.09375 69.839844 193.871094 70.839844 194.453125 72.113281 C 194.277344 72.441406 193.960938 72.695312 193.519531 72.882812 C 193.070312 73.070312 192.542969 73.15625 191.929688 73.15625 C 191.640625 71.980469 191.214844 71.027344 190.640625 70.300781 C 190.070312 69.566406 189.457031 69.203125 188.796875 69.203125 C 188.292969 69.203125 187.785156 69.597656 187.28125 70.367188 C 186.765625 71.144531 186.511719 71.925781 186.511719 72.695312 C 186.511719 72.835938 186.546875 72.980469 186.621094 73.113281 C 186.6875 73.234375 186.777344 73.332031 186.898438 73.398438 L 197.945312 73.398438 L 197.945312 74.804688 L 195.53125 74.804688 C 195.605469 74.902344 195.660156 75.035156 195.695312 75.199219 C 195.738281 75.351562 195.75 75.539062 195.75 75.726562 C 195.75 76.199219 195.476562 76.691406 194.925781 77.21875 C 194.375 77.746094 193.664062 78.1875 192.785156 78.539062 C 192.269531 78.746094 191.839844 79.164062 191.511719 79.769531 C 191.191406 80.371094 191.027344 81.042969 191.027344 81.789062 C 191.027344 82.4375 191.160156 82.984375 191.421875 83.4375 C 191.695312 83.898438 192.027344 84.117188 192.398438 84.117188 C 193.070312 84.117188 193.664062 83.746094 194.179688 83.007812 C 194.707031 82.261719 195.023438 81.316406 195.144531 80.164062 C 195.828125 80.164062 196.410156 80.363281 196.882812 80.746094 C 197.351562 81.140625 197.59375 81.601562 197.59375 82.152344 C 197.59375 82.898438 196.992188 83.644531 195.773438 84.402344 C 194.5625 85.148438 193.367188 85.523438 192.167969 85.523438 C 190.972656 85.523438 189.949219 85.160156 189.09375 84.4375 C 188.238281 83.710938 187.820312 82.820312 187.820312 81.789062 C 187.820312 80.964844 188.117188 80.195312 188.71875 79.484375 C 189.324219 78.78125 190.09375 78.296875 191.027344 78.054688 C 191.464844 77.945312 191.828125 77.648438 192.113281 77.15625 C 192.398438 76.671875 192.542969 76.121094 192.542969 75.507812 C 192.542969 75.386719 192.53125 75.253906 192.488281 75.132812 C 192.453125 75.011719 192.398438 74.902344 192.324219 74.804688 L 156.65625 74.804688 C 157.0625 74.96875 157.394531 75.242188 157.644531 75.628906 C 157.898438 76.023438 158.03125 76.441406 158.03125 76.890625 C 158.03125 77.867188 157.699219 78.691406 157.0625 79.363281 C 156.425781 80.042969 155.65625 80.382812 154.757812 80.382812 C 154.757812 81.097656 154.921875 81.703125 155.261719 82.207031 C 155.601562 82.699219 156.007812 82.953125 156.503906 82.953125 C 156.988281 82.953125 157.460938 82.613281 157.929688 81.921875 C 158.390625 81.238281 158.765625 80.339844 159.03125 79.21875 L 159.105469 75.847656 C 159.371094 75.628906 159.730469 75.453125 160.203125 75.332031 C 160.667969 75.210938 161.214844 75.144531 161.851562 75.144531 C 161.742188 76.988281 161.6875 80.21875 161.6875 84.820312 C 160.839844 85.292969 160.027344 85.523438 159.25 85.523438 C 159.160156 85.523438 159.097656 85.457031 159.03125 85.316406 C 158.976562 85.183594 158.941406 85.015625 158.941406 84.820312 L 158.941406 82.03125 C 158.625 82.886719 158.183594 83.570312 157.632812 84.074219 C 157.097656 84.566406 156.515625 84.820312 155.898438 84.820312 C 154.714844 84.820312 153.703125 84.371094 152.867188 83.46875 C 152.03125 82.558594 151.613281 81.460938 151.613281 80.164062 C 151.613281 79.976562 151.671875 79.8125 151.789062 79.667969 C 151.910156 79.527344 152.066406 79.460938 152.230469 79.460938 C 152.988281 79.460938 153.636719 79.207031 154.175781 78.714844 C 154.714844 78.207031 154.976562 77.605469 154.976562 76.890625 C 154.976562 76.375 154.878906 75.914062 154.679688 75.519531 C 154.472656 75.121094 154.21875 74.890625 153.910156 74.804688 L 144.496094 74.804688 C 144.960938 75.066406 145.320312 75.472656 145.605469 76.023438 C 145.882812 76.570312 146.023438 77.175781 146.023438 77.835938 C 146.023438 78.59375 145.640625 79.328125 144.859375 80.03125 C 144.082031 80.734375 143.101562 81.25 141.917969 81.570312 C 142.269531 81.667969 142.609375 81.820312 142.949219 82.03125 C 143.289062 82.238281 143.609375 82.515625 143.894531 82.832031 C 144.15625 83.105469 144.386719 83.316406 144.585938 83.449219 C 144.792969 83.589844 144.96875 83.65625 145.125 83.65625 C 145.277344 83.65625 145.429688 83.632812 145.585938 83.601562 C 145.726562 83.558594 145.882812 83.492188 146.023438 83.414062 L 146.1875 83.65625 C 145.957031 84.238281 145.707031 84.699219 145.410156 85.027344 C 145.113281 85.359375 144.804688 85.523438 144.496094 85.523438 C 144.046875 85.523438 143.597656 85.390625 143.15625 85.140625 C 142.707031 84.875 142.300781 84.511719 141.917969 84.019531 C 141.464844 83.457031 141.070312 83.019531 140.730469 82.710938 C 140.390625 82.40625 140.125 82.25 139.929688 82.25 C 139.894531 82.25 139.796875 82.339844 139.609375 82.492188 L 139.929688 80.164062 L 140.992188 80.164062 C 141.542969 80.164062 142.015625 79.890625 142.398438 79.339844 C 142.785156 78.789062 142.980469 78.132812 142.980469 77.351562 C 142.980469 76.867188 142.828125 76.394531 142.519531 75.925781 C 142.210938 75.453125 141.804688 75.078125 141.289062 74.804688 Z M 145.882812 79 C 146.132812 79 146.410156 78.921875 146.695312 78.757812 C 146.980469 78.59375 147.265625 78.363281 147.550781 78.054688 L 147.628906 75.847656 C 147.890625 75.628906 148.253906 75.453125 148.726562 75.332031 C 149.1875 75.210938 149.738281 75.144531 150.375 75.144531 C 150.273438 76.8125 150.230469 80.03125 150.230469 84.820312 C 149.386719 85.292969 148.59375 85.523438 147.871094 85.523438 C 147.757812 85.523438 147.671875 85.457031 147.59375 85.316406 C 147.515625 85.183594 147.484375 85.015625 147.484375 84.820312 L 147.550781 79.703125 C 147.296875 79.933594 147.058594 80.097656 146.816406 80.21875 C 146.585938 80.328125 146.375 80.382812 146.1875 80.382812 C 146.101562 80.382812 146.023438 80.339844 145.96875 80.25 C 145.914062 80.164062 145.882812 80.054688 145.882812 79.921875 Z M 142.289062 88.214844 C 142.289062 87.863281 142.53125 87.511719 143.015625 87.171875 C 143.5 86.828125 144.125 86.554688 144.882812 86.347656 C 144.882812 87.234375 145.191406 88.136719 145.816406 89.058594 C 146.429688 89.972656 147.046875 90.421875 147.640625 90.421875 C 147.96875 90.421875 148.253906 90.246094 148.496094 89.882812 C 148.726562 89.507812 148.847656 89.070312 148.847656 88.554688 C 148.847656 88.136719 148.792969 87.773438 148.671875 87.476562 C 148.5625 87.179688 148.417969 87.027344 148.242188 87.027344 C 148.035156 87.027344 147.859375 87.191406 147.703125 87.511719 C 147.5625 87.839844 147.484375 88.222656 147.484375 88.675781 C 147.34375 88.640625 147.1875 88.554688 147.046875 88.410156 C 146.902344 88.269531 146.773438 88.082031 146.640625 87.851562 C 146.816406 87.160156 147.109375 86.597656 147.550781 86.171875 C 147.980469 85.742188 148.472656 85.523438 149.011719 85.523438 C 149.726562 85.523438 150.339844 85.777344 150.847656 86.28125 C 151.363281 86.773438 151.613281 87.390625 151.613281 88.09375 C 151.613281 89.003906 151.230469 89.773438 150.449219 90.398438 C 149.679688 91.027344 148.75 91.34375 147.640625 91.34375 C 146.355469 91.34375 145.234375 91.070312 144.277344 90.507812 C 143.324219 89.949219 142.664062 89.191406 142.289062 88.214844 Z M 163.226562 81.207031 C 163.226562 79.769531 163.632812 78.539062 164.433594 77.503906 C 165.234375 76.484375 166.214844 75.96875 167.355469 75.96875 C 167.804688 75.96875 168.234375 76.15625 168.640625 76.515625 C 169.058594 76.878906 169.289062 77.273438 169.34375 77.714844 C 169.222656 77.570312 169.089844 77.460938 168.925781 77.375 C 168.773438 77.296875 168.597656 77.253906 168.421875 77.253906 C 167.828125 77.253906 167.324219 77.636719 166.90625 78.40625 C 166.488281 79.175781 166.28125 80.109375 166.28125 81.207031 C 166.28125 81.691406 166.390625 82.109375 166.597656 82.449219 C 166.808594 82.789062 167.058594 82.953125 167.355469 82.953125 C 168.082031 82.953125 168.683594 82.238281 169.191406 80.8125 C 169.695312 79.371094 169.949219 77.648438 169.949219 75.605469 C 170.453125 75.15625 171.363281 74.925781 172.695312 74.925781 C 172.59375 76.59375 172.550781 78.449219 172.550781 80.503906 C 172.769531 79.546875 173.121094 78.789062 173.59375 78.21875 C 174.066406 77.636719 174.582031 77.351562 175.132812 77.351562 C 175.902344 77.351562 176.550781 77.902344 177.078125 78.988281 C 177.613281 80.085938 177.878906 81.40625 177.878906 82.953125 C 177.878906 83.457031 177.550781 83.941406 176.867188 84.402344 C 176.1875 84.863281 175.308594 85.238281 174.210938 85.523438 C 174.363281 84.875 174.472656 84.226562 174.5625 83.558594 C 174.636719 82.898438 174.671875 82.238281 174.671875 81.570312 C 174.671875 81.054688 174.617188 80.613281 174.507812 80.25 C 174.386719 79.890625 174.242188 79.703125 174.066406 79.703125 C 173.648438 79.703125 173.285156 80.207031 172.992188 81.207031 C 172.695312 82.207031 172.550781 83.414062 172.550781 84.820312 C 171.707031 85.292969 170.882812 85.523438 170.101562 85.523438 C 170.011719 85.523438 169.949219 85.480469 169.894531 85.390625 C 169.828125 85.304688 169.804688 85.195312 169.804688 85.0625 L 169.871094 81.085938 C 169.597656 82.207031 169.113281 83.105469 168.398438 83.789062 C 167.683594 84.480469 166.871094 84.820312 165.972656 84.820312 C 165.214844 84.820312 164.566406 84.46875 164.027344 83.765625 C 163.5 83.0625 163.226562 82.207031 163.226562 81.207031 Z M 178.910156 85.0625 C 178.910156 80.503906 178.964844 77.394531 179.054688 75.726562 C 179.582031 75.265625 180.527344 75.023438 181.875 75.023438 C 181.789062 76.691406 181.734375 79.957031 181.734375 84.820312 C 180.890625 85.292969 180.109375 85.523438 179.371094 85.523438 C 179.25 85.523438 179.140625 85.480469 179.042969 85.390625 C 178.957031 85.304688 178.910156 85.195312 178.910156 85.0625 Z M 183.765625 84.601562 C 183.765625 80.273438 183.820312 77.273438 183.910156 75.605469 C 184.425781 75.15625 185.335938 74.925781 186.65625 74.925781 C 186.566406 76.59375 186.511719 79.890625 186.511719 84.820312 C 185.667969 85.292969 184.953125 85.523438 184.371094 85.523438 C 184.207031 85.523438 184.0625 85.433594 183.941406 85.257812 C 183.832031 85.082031 183.765625 84.863281 183.765625 84.601562 Z M 240.28125 74.804688 L 240.292969 73.398438 L 245.144531 73.398438 L 245.144531 74.804688 Z M 229.527344 82.4375 L 229.546875 81.328125 C 229.339844 81.878906 229.109375 82.359375 228.835938 82.777344 C 229.074219 82.667969 229.304688 82.558594 229.527344 82.4375 Z M 199.75 74.804688 L 199.75 73.398438 L 233.328125 73.398438 L 233.328125 74.804688 L 227.40625 74.804688 C 227.011719 75.519531 226.714844 76.332031 226.496094 77.253906 C 226.285156 78.175781 226.1875 79.152344 226.1875 80.164062 C 226.1875 80.714844 226.285156 81.183594 226.496094 81.570312 C 226.714844 81.964844 226.96875 82.152344 227.265625 82.152344 C 227.726562 82.152344 228.164062 81.867188 228.59375 81.296875 C 229 80.722656 229.328125 79.957031 229.546875 79 L 229.625 75.96875 C 229.933594 75.695312 230.316406 75.484375 230.789062 75.351562 C 231.25 75.210938 231.777344 75.144531 232.371094 75.144531 C 232.273438 76.988281 232.21875 80.25 232.21875 84.941406 C 231.996094 85.140625 231.679688 85.28125 231.25 85.378906 C 230.824219 85.480469 230.304688 85.523438 229.703125 85.523438 C 229.648438 85.523438 229.59375 85.480469 229.539062 85.390625 C 229.492188 85.304688 229.472656 85.195312 229.472656 85.0625 L 229.480469 84.105469 C 229.042969 84.390625 228.546875 84.644531 228.011719 84.863281 C 226.527344 85.46875 224.816406 85.765625 222.859375 85.765625 C 222.726562 85.765625 222.605469 85.675781 222.507812 85.488281 C 222.410156 85.304688 222.355469 85.082031 222.355469 84.820312 C 222.355469 84.566406 222.398438 84.347656 222.484375 84.171875 C 222.5625 83.984375 222.671875 83.898438 222.78125 83.898438 C 223.527344 83.898438 224.242188 83.863281 224.933594 83.789062 C 224.683594 83.578125 224.441406 83.316406 224.230469 83.007812 C 223.605469 82.097656 223.296875 81 223.296875 79.703125 C 223.296875 79.023438 223.386719 78.273438 223.5625 77.441406 C 223.738281 76.605469 224.011719 75.726562 224.351562 74.804688 L 218.003906 74.804688 C 218.210938 75.648438 218.3125 76.230469 218.3125 76.550781 C 219.652344 76 220.652344 75.726562 221.300781 75.726562 C 221.484375 75.726562 221.640625 75.824219 221.78125 76.011719 C 221.914062 76.1875 221.980469 76.417969 221.980469 76.671875 C 221.925781 77.59375 221.890625 80.304688 221.890625 84.820312 C 221.046875 85.292969 220.265625 85.523438 219.53125 85.523438 C 219.421875 85.523438 219.332031 85.457031 219.265625 85.316406 C 219.191406 85.183594 219.144531 85.015625 219.144531 84.820312 C 219.144531 80.921875 219.179688 78.515625 219.234375 77.59375 C 218.960938 77.59375 218.671875 77.679688 218.386719 77.835938 C 218.386719 79.957031 218.003906 81.765625 217.246094 83.273438 C 216.488281 84.777344 215.566406 85.523438 214.5 85.523438 C 213.820312 85.523438 213.25 85.257812 212.765625 84.710938 C 212.292969 84.171875 212.050781 83.515625 212.050781 82.734375 C 212.050781 81.570312 212.359375 80.503906 212.953125 79.527344 C 213.542969 78.550781 214.324219 77.867188 215.257812 77.472656 C 215.257812 77.023438 215.203125 76.5625 215.082031 76.101562 C 214.972656 75.636719 214.796875 75.210938 214.578125 74.804688 L 204.976562 74.804688 C 205.425781 75.066406 205.800781 75.472656 206.074219 76.023438 C 206.359375 76.570312 206.503906 77.175781 206.503906 77.835938 C 206.503906 78.59375 206.109375 79.328125 205.328125 80.03125 C 204.558594 80.734375 203.570312 81.25 202.382812 81.570312 C 202.734375 81.667969 203.078125 81.820312 203.417969 82.03125 C 203.757812 82.238281 204.074219 82.515625 204.371094 82.832031 C 204.625 83.105469 204.855469 83.316406 205.066406 83.449219 C 205.273438 83.589844 205.449219 83.65625 205.589844 83.65625 C 205.757812 83.65625 205.910156 83.632812 206.050781 83.601562 C 206.207031 83.558594 206.347656 83.492188 206.503906 83.414062 L 206.65625 83.65625 C 206.4375 84.238281 206.175781 84.699219 205.878906 85.027344 C 205.582031 85.359375 205.285156 85.523438 204.976562 85.523438 C 204.515625 85.523438 204.074219 85.390625 203.625 85.140625 C 203.1875 84.875 202.769531 84.511719 202.382812 84.019531 C 201.945312 83.457031 201.550781 83.019531 201.210938 82.710938 C 200.859375 82.40625 200.59375 82.25 200.40625 82.25 C 200.375 82.25 200.265625 82.339844 200.089844 82.492188 L 200.40625 80.164062 L 201.460938 80.164062 C 202.023438 80.164062 202.484375 79.890625 202.867188 79.339844 C 203.253906 78.789062 203.449219 78.132812 203.449219 77.351562 C 203.449219 76.867188 203.296875 76.394531 202.988281 75.925781 C 202.679688 75.453125 202.273438 75.078125 201.769531 74.804688 Z M 206.359375 79 C 206.613281 79 206.875 78.921875 207.164062 78.757812 C 207.449219 78.59375 207.734375 78.363281 208.019531 78.054688 L 208.105469 75.847656 C 208.371094 75.628906 208.734375 75.453125 209.195312 75.332031 C 209.667969 75.210938 210.214844 75.144531 210.851562 75.144531 C 210.753906 76.8125 210.710938 80.03125 210.710938 84.820312 C 209.863281 85.292969 209.074219 85.523438 208.335938 85.523438 C 208.238281 85.523438 208.140625 85.457031 208.074219 85.316406 C 207.996094 85.183594 207.964844 85.015625 207.964844 84.820312 L 208.019531 79.703125 C 207.765625 79.933594 207.523438 80.097656 207.292969 80.21875 C 207.0625 80.328125 206.84375 80.382812 206.65625 80.382812 C 206.570312 80.382812 206.503906 80.339844 206.449219 80.25 C 206.382812 80.164062 206.359375 80.054688 206.359375 79.921875 L 206.359375 79 "/>
</g>
</svg>
