<?xml version="1.0" encoding="UTF-8" standalone="no"?>
<!-- Created with Inkscape (http://www.inkscape.org/) -->

<svg
   version="1.1"
   id="svg2"
   xml:space="preserve"
   width="4000.3066"
   height="2666.9199"
   viewBox="0 0 4000.3066 2666.9199"
   sodipodi:docname="vecteezy_lord-ganesha-sanskrit-shlok-vakratund-mahakay-suryakoti_6426917.eps"
   xmlns:inkscape="http://www.inkscape.org/namespaces/inkscape"
   xmlns:sodipodi="http://sodipodi.sourceforge.net/DTD/sodipodi-0.dtd"
   xmlns="http://www.w3.org/2000/svg"
   xmlns:svg="http://www.w3.org/2000/svg"><defs
     id="defs6" /><sodipodi:namedview
     id="namedview4"
     pagecolor="#ffffff"
     bordercolor="#666666"
     borderopacity="1.0"
     inkscape:pageshadow="2"
     inkscape:pageopacity="0.0"
     inkscape:pagecheckerboard="0" /><g
     id="g8"
     inkscape:groupmode="layer"
     inkscape:label="ink_ext_XXXXXX"
     transform="matrix(1.3333333,0,0,-1.3333333,0,2666.92)"><g
       id="g10"
       transform="scale(0.1)"><path
         d="M 1.13281,1.19922 H 30001.1 V 20000.8 H 1.13281 V 1.19922"
         style="fill:#ffffff;fill-opacity:1;fill-rule:evenodd;stroke:none"
         id="path12" /><path
         d="M 1.13281,1.19922 H 30001.1 V 20000.8 H 1.13281 Z"
         style="fill:none;stroke:#100f0d;stroke-width:2.26772;stroke-linecap:butt;stroke-linejoin:miter;stroke-miterlimit:10;stroke-dasharray:none;stroke-opacity:1"
         id="path14" /><path
         d="m 28185.8,12461.8 -467.8,584.6 c 0,-1835.4 0,-3670.8 0,-5506.2 l 467.8,-584.7 c 0,1835.4 0,3670.9 0,5506.3 v 0"
         style="fill:#ed1d24;fill-opacity:1;fill-rule:evenodd;stroke:none"
         id="path16" /><path
         d="m 29291.3,12827.9 -467.7,584.7 c 0,-2079.9 0,-4158.7 0,-6238.6 l 467.7,-583.5 c 0,2078.8 0,4158.7 0,6237.4 v 0"
         style="fill:#ed1d24;fill-opacity:1;fill-rule:evenodd;stroke:none"
         id="path18" /><path
         d="m 1817.66,12461.8 467.73,584.6 c 0,-1835.4 0,-3670.8 0,-5506.2 l -467.73,-584.7 c 0,1835.4 0,3670.9 0,5506.3 v 0"
         style="fill:#ed1d24;fill-opacity:1;fill-rule:evenodd;stroke:none"
         id="path20" /><path
         d="m 712.148,12827.9 467.732,584.7 c 0,-2079.9 0,-4158.7 0,-6238.6 L 712.148,6590.5 c 0,2078.8 0,4158.7 0,6237.4 v 0"
         style="fill:#ed1d24;fill-opacity:1;fill-rule:evenodd;stroke:none"
         id="path22" /><path
         d="m 17246.4,8355.1 c 0,167.7 47.3,309.4 144.1,426.4 95.7,118.1 211.4,177.1 347.2,177.1 47.3,0 91,-18.8 127.6,-55.4 37.8,-36.7 63.8,-85.1 79.2,-146.5 -13,16.5 -28.4,28.3 -46.1,36.6 -18.9,9.4 -39,13 -61.5,13 -63.7,0 -118,-35.4 -162.9,-108.7 -43.7,-73.2 -66.2,-161.8 -66.2,-266.9 0,-41.3 10.6,-76.8 33.1,-106.3 22.4,-29.5 49.6,-44.9 81.5,-44.9 64.9,0 125.2,68.5 179.5,205.5 55.5,135.8 82.7,285.9 82.7,446.5 33.1,29.5 75.6,52 125.2,67.3 49.6,14.2 107.5,21.3 171.2,21.3 -11.8,-197.3 -17.7,-544.5 -17.7,-1040.6 -90.9,-49.6 -178.3,-75.6 -263.3,-75.6 -8.3,0 -16.6,8.3 -22.5,22.4 -5.9,15.4 -9.5,33.1 -9.5,53.2 l 8.3,451.2 c -52,-138.2 -120.4,-248 -203.1,-329.6 -83.9,-80.2 -172.5,-121.6 -264.6,-121.6 -72,0 -134.6,36.6 -185.4,109.9 -52,73.2 -76.8,161.8 -76.8,265.7 z m 738.2,1053.5 c 0,92.2 37.8,178.4 111,257.5 74.4,79.2 154.8,118.2 243.3,118.2 46.1,0 87.4,-4.8 124.1,-15.4 36.5,-10.6 66.1,-26 88.5,-47.3 0,-22.4 -13,-54.3 -38.9,-96.8 -26,-42.5 -46.1,-63.8 -60.3,-63.8 -24.8,30.7 -47.2,55.5 -66.1,72.1 -18.9,17.7 -35.5,26 -47.3,26 -31.9,0 -59,-13 -81.5,-40.2 -22.4,-27.2 -33,-59.1 -33,-98.1 0,-34.2 8.2,-69.6 26,-106.3 17.7,-36.6 41.3,-68.5 70.8,-94.4 l -187.8,-112.3 h -66.1 c -24.8,23.7 -44.9,52 -60.3,87.4 -14.1,36.7 -22.4,74.5 -22.4,113.4 z m 444.1,-1040.5 c 0,154.7 43.7,288.2 129.9,398 86.2,111.1 191.4,165.4 314.2,165.4 47.2,0 93.3,-18.9 138.2,-57.9 43.7,-39 69.6,-82.7 74.4,-129.9 -11.8,16.5 -27.2,28.3 -43.7,36.6 -17.7,9.5 -35.4,13 -54.4,13 -63.7,0 -118,-41.4 -162.9,-122.9 -44.9,-82.6 -67.4,-183 -67.4,-302.3 0,-52 10.7,-95.7 33.1,-132.3 23.6,-36.6 50.8,-55.5 82.7,-55.5 76.7,0 142.9,78 197.2,231.5 54.3,153.5 80.3,340.1 80.3,559.8 55.5,48.5 153.6,72.1 295.3,72.1 -9.4,-178.4 -15.3,-379.2 -15.3,-598.8 24.8,101.5 61.4,184.2 113.4,245.6 50.7,61.4 106.2,93.3 165.3,93.3 81.5,0 151.2,-59 209,-175.9 57.9,-118.2 86.3,-259.9 86.3,-427.6 0,-53.1 -36.6,-105.1 -109.9,-154.7 -72,-49.6 -167.7,-89.8 -284.6,-121.7 16.5,69.7 28.3,140.6 36.6,211.4 8.3,72.1 13,143 13,213.8 0,55.5 -5.9,104 -18.9,142.9 -11.8,39 -27.1,57.9 -46.1,57.9 -44.8,0 -83.8,-53.1 -115.7,-161.8 -31.9,-107.5 -48.4,-236.2 -48.4,-388.6 -91,-49.6 -178.4,-75.6 -262.3,-75.6 -9.4,0 -16.5,5.9 -23.6,15.4 -5.9,9.4 -9.4,21.2 -9.4,34.2 l 7.1,428.8 c -28.4,-120.5 -80.3,-217.3 -158.3,-291.8 -76.7,-73.2 -163,-111 -259.9,-111 -81.4,0 -151.1,37.8 -209,114.6 -57.9,75.6 -86.2,166.5 -86.2,274 z m 1618.1,-414.6 c 0,491.4 4.7,825.6 15.4,1005.1 56.6,49.7 158.2,75.7 303.5,75.7 -9.4,-179.6 -15.4,-530.4 -15.4,-1054.8 -90.9,-49.6 -176,-75.6 -253.9,-75.6 -14.2,0 -24.8,5.9 -35.4,15.4 -9.5,9.4 -14.2,21.2 -14.2,34.2 z m 1911,602.4 c 0,-86.2 13,-160.6 39,-220.9 26,-61.4 56.7,-92.1 93.3,-92.1 33.1,0 62.6,10.6 88.6,30.7 26,20.1 46.1,47.2 59,81.5 l -212.6,576.4 c -22.4,-56.7 -37.8,-116.9 -49.6,-180.7 -11.8,-63.8 -17.7,-128.8 -17.7,-194.9 z m -154.7,-941.4 c 0,39 26,75.6 76.8,112.3 51.9,36.6 119.3,66.1 200.7,88.5 0,-95.6 33.1,-192.5 100.5,-290.5 66.1,-98 132.2,-147.6 197.2,-147.6 35.4,0 65,20.1 90.9,59 26,39 39,86.2 39,141.7 0,46.1 -7.1,83.9 -18.9,117 -13,31.9 -28.3,48.4 -46,48.4 -23.7,0 -42.6,-17.7 -59.1,-53.2 -15.4,-34.2 -23.6,-75.6 -23.6,-125.2 -15.4,3.6 -30.7,13 -46.1,29.6 -16.5,15.3 -30.7,35.4 -43.7,59 17.7,75.6 50.8,135.8 96.9,181.9 47.2,46.1 99.2,68.5 157,68.5 78,0 143,-26 198.5,-80.3 54.3,-54.3 81.5,-119.3 81.5,-196 0,-96.9 -41.4,-179.6 -124,-246.9 -83.9,-68.5 -184.3,-101.6 -302.4,-101.6 -139.4,0 -259.9,29.5 -362.6,89.8 -101.6,59 -172.4,141.7 -212.6,245.6 z m 1668.9,991 c 27.2,0 56.7,9.4 87.4,26 30.7,17.7 61.4,43.7 92.1,76.7 l 8.3,236.3 c 28.3,24.8 67.3,43.7 118.1,56.7 49.6,13 108.6,18.9 177.2,18.9 -10.6,-178.4 -15.4,-525.6 -15.4,-1040.6 -90.9,-49.6 -175.9,-75.6 -253.9,-75.6 -11.8,0 -21.3,8.3 -29.6,22.4 -8.2,15.4 -11.8,33.1 -11.8,53.2 l 7.1,550.4 c -27.2,-23.6 -53.1,-42.5 -79.1,-54.3 -24.8,-11.8 -47.3,-17.7 -68.5,-17.7 -8.3,0 -16.6,4.7 -22.5,14.1 -5.9,9.5 -9.4,21.3 -9.4,34.3 z m 616.5,-250.4 c 0,167.7 47.3,309.4 144.1,426.4 95.7,118.1 211.4,177.1 347.3,177.1 47.2,0 89.7,-18.8 127.5,-55.4 37.8,-36.7 63.8,-85.1 79.2,-146.5 -13,16.5 -28.4,28.3 -46.1,36.6 -18.9,9.4 -39,13 -61.4,13 -63.8,0 -118.1,-35.4 -163,-108.7 -43.7,-73.2 -66.2,-161.8 -66.2,-266.9 0,-41.3 10.7,-76.8 33.1,-106.3 22.4,-29.5 49.6,-44.9 81.5,-44.9 65,0 125.2,68.5 179.5,205.5 55.6,135.8 82.7,285.9 82.7,446.5 33.1,29.5 75.6,52 125.2,67.3 49.6,14.2 107.5,21.3 170.1,21.3 -10.6,-197.3 -16.5,-544.5 -16.5,-1040.6 -91,-49.6 -178.4,-75.6 -263.4,-75.6 -8.3,0 -16.6,8.3 -22.5,22.4 -5.9,15.4 -9.4,33.1 -9.4,53.2 l 8.2,451.2 c -51.9,-138.2 -120.4,-248 -203.1,-329.6 -83.9,-80.2 -172.4,-121.6 -264.6,-121.6 -72,0 -134.6,36.6 -185.4,109.9 -51.9,73.2 -76.8,161.8 -76.8,265.7 z m -3324.7,1291 c 0,7.1 2.3,14.1 8.2,21.2 5.9,7.1 14.2,13 23.6,18.9 l 198.4,75.6 c 28.4,15.4 61.4,22.5 96.9,22.5 14.2,0 29.5,-8.3 47.2,-26 17.7,-16.6 35.5,-41.4 52,-72.1 l 53.1,-81.5 c 37.8,57.9 81.5,101.6 132.4,133.5 50.7,30.7 103.9,46.1 159.4,46.1 47.2,0 88.6,-4.8 125.2,-15.4 35.4,-10.6 66.1,-26 88.6,-47.3 0,-22.4 -13,-54.3 -39,-96.8 -27.2,-42.5 -47.3,-63.8 -60.2,-63.8 -24.9,30.7 -49.6,55.5 -73.3,72.1 -23.6,17.7 -46,26 -67.3,26 -40.1,0 -75.6,-19 -103.9,-58 -28.4,-38.9 -42.6,-86.1 -42.6,-142.9 0,-44.8 8.3,-85 26,-119.3 16.6,-35.3 39,-57.8 65,-68.4 -22.4,-20.1 -44.9,-35.5 -63.8,-46.1 -20.1,-10.6 -37.8,-16.6 -53.1,-16.6 h 3572.8 c -24.8,23.7 -44.9,52 -60.2,87.4 -14.2,36.7 -22.5,74.5 -22.5,113.4 0,92.2 37.8,178.4 111,257.5 74.5,79.2 154.8,118.2 242.2,118.2 47.2,0 88.6,-4.8 125.2,-15.4 36.6,-10.6 66.1,-26 88.6,-47.3 0,-22.4 -13.1,-54.3 -39,-96.8 -26,-42.5 -46.1,-63.8 -60.3,-63.8 -24.8,30.7 -47.2,55.5 -66.1,72.1 -18.9,17.7 -35.4,26 -48.4,26 -30.7,0 -57.9,-13 -80.3,-40.2 -22.5,-27.2 -33.1,-59.1 -33.1,-98.1 0,-34.2 8.2,-69.6 26,-106.3 17.7,-36.6 41.3,-68.5 70.8,-94.4 l -187.8,-112.3 h 1944.1 v -151.1 h -702.7 c 7,-13 14.1,-27.2 17.7,-40.2 3.5,-13 5.9,-24.8 5.9,-35.4 0,-42.5 -29.5,-85 -88.6,-125.2 -59,-39 -135.8,-72.1 -230.3,-99.2 -93.3,-23.6 -170.1,-69.7 -230.3,-135.9 -60.2,-67.2 -91,-139.3 -91,-216.1 0,-52 10.7,-96.8 33.1,-134.6 22.4,-39 49.6,-60.3 82.7,-66.2 -5.9,16.6 -9.4,36.7 -13,61.4 -2.3,26 -3.6,55.5 -3.6,89.8 0,76.8 33.1,141.7 100.5,196.1 67.3,54.3 148.8,80.3 244.4,80.3 91,0 167.7,-23.6 231.6,-72.1 63.7,-49.6 95.6,-108.6 95.6,-177.1 0,-76.8 -36.6,-141.7 -109.9,-196.1 -73.1,-54.3 -162.9,-81.5 -266.9,-81.5 20.1,-53.2 49.6,-95.7 87.4,-127.5 37.8,-30.8 80.3,-46.1 125.2,-46.1 27.2,0 54.3,7.1 82.7,22.4 -13,-33.1 -41.3,-66.1 -85,-99.2 -43.7,-31.9 -80.4,-48.4 -111,-48.4 -86.3,0 -160.7,24.8 -226.8,73.2 -65,49.6 -111,117 -135.9,199.6 -131.1,0 -244.4,33.1 -336.6,99.2 -93.3,66.2 -139.4,146.5 -139.4,239.8 0,82.7 37.8,159.4 114.6,232.7 75.6,73.2 172.5,125.2 288.2,155.9 76.8,21.3 138.2,47.2 184.3,77.9 47.2,29.6 69.6,62.7 69.6,96.9 0,21.3 -3.5,39 -11.8,54.3 -7,14.2 -17.7,21.3 -28.3,21.3 h -2548.8 c 49.6,-27.2 88.6,-70.9 119.3,-129.9 29.5,-59.1 44.8,-124.1 44.8,-196.1 0,-81.5 -41.3,-159.5 -125.2,-235.1 -83.8,-75.5 -188.9,-131.1 -316.5,-166.5 36.6,-9.4 74.4,-26 111,-49.6 36.7,-22.4 69.7,-50.8 101.6,-85.1 27.2,-29.4 52,-51.9 74.4,-67.2 22.5,-14.2 41.4,-22.5 57.9,-22.5 16.6,0 33.1,2.3 49.6,7.1 15.4,4.7 31.9,10.6 47.2,20.1 l 16.6,-27.2 c -23.6,-62.6 -50.8,-111 -82.7,-146.5 -31.9,-35.4 -64.9,-54.3 -98,-54.3 -48.5,0 -96.9,14.2 -145.3,42.5 -47.3,27.2 -92.1,67.3 -132.3,119.4 -48.4,61.4 -90.9,108.6 -127.6,141.7 -36.5,33.1 -66.1,49.6 -86.1,49.6 -3.6,0 -14.2,-9.5 -34.3,-27.2 l 34.3,250.4 h 114.5 c 59,0 109.9,29.5 151.2,88.6 41.3,60.2 62.6,131.1 62.6,214.9 0,52 -16.5,102.8 -49.6,153.6 -33.1,50.8 -76.8,89.8 -132.3,119.3 h -888.2 l 212.6,-626 c 13,17.7 29.5,68.5 49.6,152.3 l 8.3,361.5 c 33.1,29.5 75.6,52 125.2,67.3 49.6,14.2 107.5,22.5 171.3,22.5 -11.9,-198.5 -17.8,-550.5 -17.8,-1054.8 -90.9,-49.6 -176,-75.6 -253.9,-75.6 -11.8,0 -21.3,8.3 -29.5,22.4 -8.3,15.4 -11.8,33.1 -11.8,53.2 l 8.2,375.6 c -37.8,-100.4 -87.4,-179.5 -148.8,-238.6 -62.6,-57.9 -127.6,-87.4 -196.1,-87.4 -99.2,0 -183,44.9 -253.9,132.3 -70.9,87.4 -106.3,193.7 -106.3,318.9 0,105.1 8.3,205.5 24.8,303.5 16.6,96.9 41.3,187.8 73.2,272.9 h -819.7 c 43.7,-16.6 79.2,-46.1 106.4,-88.6 27.1,-41.3 41.3,-86.2 41.3,-135.8 0,-103.9 -35.4,-192.5 -104,-265.8 -68.5,-73.2 -151.1,-108.6 -248,-108.6 0,-76.8 17.7,-141.8 54.3,-196.1 36.7,-54.3 80.4,-81.5 133.5,-81.5 52,0 103.9,37.8 153.6,111 49.5,74.4 88.5,171.3 118.1,291.7 l 8.2,361.5 c 28.4,24.8 67.4,43.7 118.1,56.7 49.6,13 108.7,18.9 177.2,18.9 -11.8,-197.3 -17.7,-544.5 -17.7,-1040.6 -90.9,-49.6 -178.3,-75.6 -262.2,-75.6 -9.5,0 -16.6,8.3 -23.6,22.4 -5.9,15.4 -9.5,33.1 -9.5,53.2 v 300 c -35.4,-92.1 -81.5,-164.2 -140.5,-218.5 -57.9,-54.3 -120.5,-81.5 -186.6,-81.5 -127.6,0 -236.3,49.6 -326,146.5 -89.8,98 -134.7,216.1 -134.7,354.3 0,21.3 5.9,39 18.9,54.3 13,14.2 29.5,21.3 47.2,21.3 81.5,0 151.2,27.1 209.1,81.5 57.9,54.3 86.2,119.3 86.2,194.9 0,56.7 -10.6,105.1 -31.8,147.6 -22.5,42.5 -49.7,68.5 -82.7,76.8 h -4149.2 c 49.6,-27.2 88.5,-70.9 119.2,-129.9 29.6,-59.1 44.9,-124.1 44.9,-196.1 0,-81.5 -41.3,-159.5 -125.2,-235.1 -83.8,-75.5 -189,-131.1 -316.5,-166.5 37.8,-9.4 74.4,-26 111,-49.6 36.7,-22.4 69.7,-50.8 101.6,-85.1 28.4,-29.4 51.9,-51.9 74.4,-67.2 22.4,-14.2 41.4,-22.5 57.9,-22.5 16.5,0 33,2.3 49.6,7.1 15.4,4.7 31.9,10.6 47.2,20.1 l 17.7,-27.2 c -24.8,-62.6 -51.9,-111 -83.8,-146.5 -31.9,-35.4 -65,-54.3 -98,-54.3 -48.5,0 -96.9,14.2 -145.3,42.5 -47.3,27.2 -92.2,67.3 -132.3,119.4 -48.4,61.4 -91,108.6 -127.6,141.7 -36.6,33.1 -66.1,49.6 -86.2,49.6 -3.5,0 -14.2,-9.5 -34.2,-27.2 l 34.2,250.4 h 114.6 c 59,0 109.8,29.5 151.1,88.6 41.4,60.2 62.7,131.1 62.7,214.9 0,52 -16.6,102.8 -49.6,153.6 -33.1,50.8 -76.8,89.8 -132.3,119.3 H 15920 v 151.1 h 5416.6 c -44.9,0 -85.1,9.5 -119.3,27.2 -34.3,16.5 -59.1,41.4 -76.8,72.1 l -154.7,226.7 c -17.8,32 -40.2,56.7 -67.4,73.3 -27.1,17.7 -56.6,26 -89.7,26 -43.7,0 -64.9,4.7 -64.9,13 z m 2332.6,1510.6 c 0,-41.4 3.6,-78 9.5,-107.5 7,-29.5 14.1,-43.7 23.6,-43.7 21.2,0 31.9,108.6 31.9,326 l -5.9,138.2 c -19,-24.8 -33.1,-63.8 -43.7,-119.3 -9.5,-54.3 -15.4,-119.3 -15.4,-193.7 z m 2074,-177.2 c 0,118.1 36.6,233.9 108.7,346.1 72.1,113.4 167.7,203.1 285.8,269.3 0,137 -7.1,250.4 -21.2,341.3 -14.2,90.9 -34.3,135.8 -60.3,135.8 -18.9,0 -34.2,-16.5 -47.2,-48.4 -13,-31.9 -20.1,-70.8 -20.1,-115.8 0,-46 13,-83.8 36.6,-114.5 24.8,-31.9 54.3,-47.3 88.6,-47.3 -28.4,-62.6 -65,-112.2 -107.5,-147.6 -42.5,-35.4 -86.2,-53.1 -132.3,-53.1 -44.8,0 -83.8,17.7 -115.7,54.3 -31.9,36.6 -47.3,81.5 -47.3,133.5 0,106.2 40.2,203.1 120.5,291.7 81.5,88.6 168.9,133.5 264.6,133.5 90.9,0 168.9,-41.4 232.7,-121.7 63.7,-80.3 95.6,-177.2 95.6,-290.6 65,56.8 124,100.4 178.4,130 55.5,29.5 102.7,44.9 141.7,44.9 23.6,0 42.5,-10.7 59,-33.1 15.4,-21.3 23.7,-48.5 23.7,-79.2 -5.9,-99.2 -8.3,-408.6 -8.3,-928.3 -46,-24.8 -92.1,-43.7 -137,-56.7 -46.1,-13 -90.9,-18.9 -134.6,-18.9 -9.5,0 -17.8,7.1 -23.7,22.4 -5.9,14.2 -9.4,32 -9.4,53.2 l 9.4,714.6 c 0,14.2 -3.5,25.9 -9.4,35.4 -7.1,9.5 -14.2,14.2 -23.7,14.2 -8.2,0 -17.7,-3.6 -28.3,-9.5 -11.8,-5.9 -24.8,-15.3 -37.8,-27.1 0,-229.2 -49.6,-425.3 -147.6,-587.1 -96.9,-161.7 -215,-242.1 -353.1,-242.1 -49.7,0 -92.2,18.9 -127.6,57.9 -35.5,39 -53.2,87.4 -53.2,142.9 z m 303.5,52 c 0,-21.3 2.4,-39 7.1,-53.2 4.8,-15.3 10.7,-22.4 17.8,-22.4 24.8,0 41.3,42.5 51.9,126.4 9.5,83.8 14.2,200.8 14.2,348.4 -28.3,-24.8 -50.8,-72.1 -66.1,-144.1 -16.6,-70.9 -24.9,-155.9 -24.9,-255.1 z M 3194.83,8003.1 c 0,466.6 4.73,789 15.37,968.5 54.32,48.5 152.34,72.1 295.26,72.1 -10.64,-178.4 -15.36,-533.9 -15.36,-1064.2 -90.94,-49.6 -167.7,-75.6 -230.3,-75.6 -18.9,0 -34.26,10.6 -46.06,29.6 -13,18.8 -18.91,42.5 -18.91,69.6 z m 445.28,213.8 c 0,224.4 93.3,416.9 279.92,576.4 186.61,160.6 411.01,241 672.05,241 31.89,0 59.05,-14.2 81.49,-41.4 22.45,-27.2 33.09,-59.1 33.09,-98 -11.83,-197.3 -16.54,-506.7 -16.54,-928.4 -23.63,-20.1 -56.71,-35.4 -101.58,-46.1 -43.71,-10.6 -96.85,-16.5 -159.45,-16.5 -9.46,0 -17.72,5.9 -24.8,15.4 -5.9,9.4 -9.46,21.2 -9.46,34.2 0,404 4.74,705.1 16.54,902.4 -46.06,-7.1 -92.12,-20.1 -135.82,-41.3 -44.89,-21.3 -87.41,-48.5 -126.39,-83.9 30.72,-27.2 54.32,-67.3 72.07,-120.5 17.7,-53.1 25.95,-113.4 25.95,-179.5 0,-154.7 -33.06,-287 -100.38,-396.9 -67.32,-111 -148.82,-165.3 -244.49,-165.3 -79.14,0 -142.92,30.7 -190.16,94.5 -48.42,63.8 -72.04,148.8 -72.04,253.9 z m 321.27,62.6 c 0,-62.6 4.72,-114.5 15.34,-158.3 10.64,-43.6 24.82,-64.9 40.16,-64.9 31.9,0 59.06,38.9 82.68,116.9 22.44,78 34.26,172.5 34.26,284.7 0,42.5 -7.1,82.6 -18.92,118.1 -11.8,35.4 -27.16,62.6 -48.42,79.1 -33.06,-34.3 -59.04,-85 -77.94,-152.4 -17.72,-66.1 -27.16,-140.5 -27.16,-223.2 z m 914.16,1053.6 c 0,99.2 64.96,199.6 192.53,300 128.74,101.5 256.31,151.2 382.67,151.2 121.66,0 235.04,-37.9 340.14,-115.8 103.95,-76.8 187.81,-184.2 250.41,-322.5 -18.9,-34.2 -53.14,-61.4 -100.4,-81.4 -48.42,-20.1 -105.12,-29.6 -171.25,-29.6 -30.71,126.4 -76.78,229.2 -138.2,307.1 -61.42,78 -127.54,117 -197.25,117 -55.49,0 -109.81,-41.4 -164.16,-125.3 -54.34,-82.6 -81.5,-166.5 -81.5,-250.4 0,-15.3 3.56,-29.5 10.64,-43.7 7.08,-14.1 17.7,-24.8 29.52,-31.9 h 3178.35 v -151.1 h -1437.4 c -24.81,-13 -44.88,-36.6 -59.06,-68.5 -15.37,-31.9 -22.45,-67.3 -22.45,-106.3 0,-34.2 10.64,-66.1 33.09,-94.5 22.44,-28.4 49.6,-47.2 82.68,-56.7 23.6,-5.9 43.7,-16.6 59.04,-30.7 15.36,-14.2 22.44,-28.4 22.44,-44.9 0,-15.3 -7.08,-34.3 -21.26,-56.7 -15.34,-22.4 -35.42,-44.8 -61.4,-68.5 -40.16,-34.3 -72.07,-74.4 -95.68,-119.3 -22.45,-44.9 -34.25,-88.6 -34.25,-131.1 0,-20.1 8.26,-37.8 23.63,-53.1 15.36,-14.2 35.42,-22.5 57.86,-22.5 42.52,0 87.4,39 137.02,116.9 48.42,76.8 93.3,180.8 132.28,310.7 v -276.4 c -46.06,-122.8 -107.5,-220.9 -181.9,-292.9 -75.58,-72 -153.55,-108.7 -236.23,-108.7 -76.76,0 -142.9,27.2 -197.22,81.5 -53.17,53.2 -80.32,119.3 -80.32,194.9 0,65 12.97,125.2 40.16,181.9 25.98,56.7 62.58,100.4 106.28,131.1 77.96,56.7 115.76,86.2 115.76,88.6 0,10.6 -27.18,27.1 -81.5,49.6 -48.42,20.1 -88.58,48.4 -119.28,85 -30.7,37.8 -46.06,76.8 -46.06,115.8 0,31.9 7.08,62.6 22.44,94.5 14.16,30.7 34.24,57.9 61.4,80.3 h -3543.3 v 151.1 h 142.91 c -15.34,21.3 -28.35,42.6 -36.6,65 -8.28,21.3 -13.01,41.4 -13.01,60.3 0,99.2 64.97,199.6 193.71,300 127.54,101.5 255.11,151.2 381.49,151.2 121.66,0 235.05,-37.9 340.17,-115.8 105.1,-76.8 187.78,-184.2 250.39,-322.5 -18.91,-34.2 -51.99,-61.4 -100.4,-81.4 -47.25,-20.1 -105.11,-29.6 -170.07,-29.6 -30.72,126.4 -76.78,229.2 -138.21,307.1 -61.4,78 -127.56,117 -198.4,117 -54.34,0 -109.86,-41.4 -164.18,-125.3 -54.32,-82.6 -81.51,-166.5 -81.51,-250.4 0,-15.3 3.54,-29.5 10.64,-43.7 7.08,-14.1 17.73,-24.8 29.52,-31.9 h 1394.88 c -15.36,21.3 -28.34,42.6 -36.6,65 -8.28,21.3 -13,41.4 -13,60.3 z m 17.72,-1330 c 0,466.6 4.72,789 15.34,968.5 54.34,48.5 152.39,72.1 295.29,72.1 -10.62,-178.4 -15.36,-533.9 -15.36,-1064.2 -90.94,-49.6 -168.89,-75.6 -230.31,-75.6 -18.9,0 -34.26,10.6 -47.24,29.6 -11.82,18.8 -17.72,42.5 -17.72,69.6 z m 445.28,352 c 0,167.7 47.24,309.4 144.08,426.4 95.68,118.1 211.42,177.1 347.25,177.1 47.24,0 90.94,-18.8 127.56,-55.4 37.8,-36.7 63.78,-85.1 79.14,-146.5 -13,16.5 -28.36,28.3 -46.06,36.6 -18.9,9.4 -38.98,13 -61.42,13 -63.78,0 -118.1,-35.4 -162.99,-108.7 -43.7,-73.2 -66.16,-161.8 -66.16,-266.9 0,-41.3 10.64,-76.8 33.08,-106.3 22.44,-29.5 49.61,-44.9 81.51,-44.9 64.94,0 125.18,68.5 179.52,205.5 55.5,135.8 82.68,285.9 82.68,446.5 33.06,29.5 75.58,52 125.18,67.3 49.63,14.2 107.49,21.3 170.09,21.3 -10.64,-197.3 -16.54,-544.5 -16.54,-1040.6 -90.94,-49.6 -178.35,-75.6 -263.38,-75.6 -8.27,0 -16.53,8.3 -22.45,22.4 -5.9,15.4 -9.44,33.1 -9.44,53.2 l 8.26,451.2 c -51.96,-138.2 -120.46,-248 -203.14,-329.6 -83.86,-80.2 -172.45,-121.6 -264.57,-121.6 -72.04,0 -134.64,36.6 -185.42,109.9 -51.99,73.2 -76.78,161.8 -76.78,265.7 z m 738.19,1053.5 c 0,92.2 37.78,178.4 111,257.5 74.43,79.2 154.75,118.2 243.33,118.2 46.06,0 87.41,-4.8 124,-15.4 36.62,-10.6 66.15,-26 88.59,-47.3 0,-22.4 -13,-54.3 -38.96,-96.8 -26,-42.5 -46.06,-63.8 -60.25,-63.8 -24.8,30.7 -47.26,55.5 -66.13,72.1 -18.91,17.7 -35.45,26 -47.25,26 -31.9,0 -59.06,-13 -81.5,-40.2 -22.44,-27.2 -33.08,-59.1 -33.08,-98.1 0,-34.2 8.28,-69.6 26,-106.3 17.7,-36.6 41.34,-68.5 70.86,-94.4 l -187.8,-112.3 h -66.15 c -24.8,23.7 -44.88,52 -60.23,87.4 -14.16,36.7 -22.43,74.5 -22.43,113.4 z M 7237.74,8216.9 c 0,224.4 93.3,416.9 279.93,576.4 186.61,160.6 411.03,241 672.04,241 31.9,0 59.06,-14.2 81.5,-41.4 22.44,-27.2 33.06,-59.1 33.06,-98 -10.62,-197.3 -16.52,-506.7 -16.52,-928.4 -23.62,-20.1 -56.7,-35.4 -101.58,-46.1 -43.7,-10.6 -96.84,-16.5 -159.45,-16.5 -9.43,0 -17.72,5.9 -24.8,15.4 -5.91,9.4 -9.45,21.2 -9.45,34.2 0,404 5.89,705.1 16.53,902.4 -46.06,-7.1 -92.12,-20.1 -135.82,-41.3 -44.88,-21.3 -87.4,-48.5 -126.38,-83.9 30.7,-27.2 54.34,-67.3 72.04,-120.5 17.72,-53.1 26,-113.4 26,-179.5 0,-154.7 -33.08,-287 -100.4,-396.9 -67.33,-111 -148.82,-165.3 -243.31,-165.3 -80.32,0 -144.08,30.7 -191.33,94.5 -48.44,63.8 -72.06,148.8 -72.06,253.9 z m 321.27,62.6 c 0,-62.6 4.72,-114.5 15.37,-158.3 11.79,-43.6 24.78,-64.9 40.13,-64.9 31.91,0 59.06,38.9 82.69,116.9 22.44,78 34.24,172.5 34.24,284.7 0,42.5 -5.9,82.6 -18.88,118.1 -11.82,35.4 -27.18,62.6 -48.42,79.1 -33.09,-34.3 -59.07,-85 -77.97,-152.4 -17.72,-66.1 -27.16,-140.5 -27.16,-223.2 z m 467.71,1344.1 c 0,55.5 11.81,102.8 37.81,141.7 25.98,39 56.68,59.1 93.3,59.1 36.62,0 67.32,-20.1 93.3,-59.1 24.8,-38.9 37.8,-86.2 37.8,-141.7 0,-56.7 -13,-103.9 -37.8,-144.1 -25.98,-40.1 -56.68,-60.2 -93.3,-60.2 -36.62,0 -67.32,20.1 -93.3,60.2 -26,40.2 -37.81,87.4 -37.81,144.1 z m 936.61,-1255.5 c 0,154.7 42.52,288.2 129.92,398 86.23,111.1 191.35,165.4 314.17,165.4 47.26,0 93.32,-18.9 138.21,-57.9 43.7,-39 68.5,-82.7 74.4,-129.9 -11.8,16.5 -27.16,28.3 -43.7,36.6 -17.73,9.5 -35.45,13 -55.5,13 -62.61,0 -116.95,-41.4 -163.01,-122.9 -44.88,-82.6 -67.32,-183 -67.32,-302.3 0,-52 11.82,-95.7 34.26,-132.3 23.62,-36.6 50.78,-55.5 82.66,-55.5 76.78,0 142.93,78 197.27,231.5 53.14,153.5 80.3,340.1 80.3,559.8 54.34,48.5 153.55,72.1 295.27,72.1 -9.44,-178.4 -15.34,-379.2 -15.34,-598.8 23.62,101.5 61.38,184.2 113.38,245.6 50.8,61.4 106.3,93.3 165.3,93.3 81.5,0 151.2,-59 209.1,-175.9 56.7,-118.2 86.2,-259.9 86.2,-427.6 0,-53.1 -36.6,-105.1 -109.8,-154.7 -72.1,-49.6 -167.7,-89.8 -284.7,-121.7 15.4,69.7 28.4,140.6 36.7,211.4 8.2,72.1 12.9,143 12.9,213.8 0,55.5 -5.9,104 -18.9,142.9 -12.9,39 -28.3,57.9 -46,57.9 -46.1,0 -83.9,-53.1 -115.8,-161.8 -31.86,-107.5 -48.38,-236.2 -48.38,-388.6 -90.95,-49.6 -178.35,-75.6 -262.21,-75.6 -9.44,0 -17.72,5.9 -23.62,15.4 -5.92,9.4 -9.46,21.2 -9.46,34.2 l 7.1,428.8 c -28.34,-120.5 -81.51,-217.3 -158.26,-291.8 -76.79,-73.2 -163.01,-111 -259.85,-111 -81.51,0 -151.19,37.8 -209.07,114.6 -57.86,75.6 -86.22,166.5 -86.22,274 z m 154.75,-753.6 c 0,39 25.95,75.6 77.94,112.3 51.96,36.6 118.1,66.1 200.78,88.5 0,-95.6 33.08,-192.5 99.21,-290.5 67.33,-98 132.28,-147.6 197.26,-147.6 35.42,0 66.12,20.1 92.12,59 24.8,39 37.78,86.2 37.78,141.7 0,46.1 -5.9,83.9 -18.9,117 -11.8,31.9 -27.16,48.4 -46.06,48.4 -22.42,0 -41.34,-17.7 -57.86,-53.2 -15.36,-34.2 -23.62,-75.6 -23.62,-125.2 -16.54,3.6 -31.9,13 -47.26,29.6 -15.34,15.3 -29.52,35.4 -43.7,59 18.92,75.6 50.8,135.8 98.04,181.9 46.06,46.1 98.04,68.5 157.08,68.5 76.79,0 142.91,-26 197.21,-80.3 55.6,-54.3 82.7,-119.3 82.7,-196 0,-96.9 -42.5,-179.6 -125.18,-246.9 -82.67,-68.5 -183.07,-101.6 -302.35,-101.6 -138.21,0 -258.67,29.5 -361.43,89.8 -102.76,59 -173.63,141.7 -213.76,245.6 z m 3008.22,642.6 c 0,-42.5 2.4,-78 9.5,-107.5 5.9,-29.5 13,-44.9 22.4,-44.9 21.3,0 33.1,108.7 33.1,326 l -7.1,138.2 c -18.9,-23.6 -33.1,-63.8 -42.5,-118.1 -10.6,-54.4 -15.4,-119.3 -15.4,-193.7 z m 48.5,1389 c 0,7.1 3.5,14.1 9.4,21.2 4.7,7.1 13,13 23.6,18.9 l 198.4,75.6 c 28.4,15.4 60.3,22.5 96.9,22.5 13,0 29.5,-8.3 47.2,-26 17.8,-16.6 34.3,-41.4 52,-72.1 l 163,-250.4 c 20.1,-36.6 44.9,-66.1 76.8,-87.4 30.7,-22.4 66.1,-35.4 105.1,-41.3 -36.6,-33.1 -72,-57.9 -105.1,-74.4 -34.3,-16.6 -65,-24.9 -93.3,-24.9 -46.1,0 -85.1,9.5 -119.3,27.2 -34.3,16.5 -60.3,41.4 -76.8,72.1 l -155.9,226.7 c -16.5,32 -39,56.7 -66.1,73.3 -27.2,17.7 -57.9,26 -91,26 -42.5,0 -64.9,4.7 -64.9,13 z m 1575.6,-1416.2 c 48.4,13 87.4,37.8 119.2,75.6 30.7,39 46.1,80.3 46.1,125.2 0,14.2 -2.4,26 -9.5,35.4 -7,9.5 -15.3,14.2 -23.6,14.2 -40.1,0 -72,-22.4 -95.6,-67.3 -24.8,-44.9 -36.6,-106.3 -36.6,-183.1 z m -387.5,1416.2 c 0,7.1 3.6,14.1 8.3,21.2 5.9,7.1 14.2,13 24.8,18.9 l 197.3,75.6 c 28.3,15.4 61.4,22.5 98,22.5 13,0 28.3,-8.3 46.1,-26 17.7,-16.6 35.4,-41.4 51.9,-72.1 l 164.2,-250.4 c 20.1,-36.6 44.9,-66.1 75.6,-87.4 31.9,-22.4 67.3,-35.4 105.1,-41.3 -35.4,-33.1 -70.9,-57.9 -105.1,-74.4 -33.1,-16.6 -63.8,-24.9 -92.1,-24.9 -46.1,0 -86.3,9.5 -119.3,27.2 -34.3,16.5 -60.3,41.4 -78,72.1 l -154.7,226.7 c -16.5,32 -39,56.7 -66.1,73.3 -27.2,17.7 -57.9,26 -91,26 -43.7,0 -65,4.7 -65,13 z m 811.5,-438.3 h 1194.1 v -151.1 h -1378.4 c 7.1,-13 13,-27.2 17.7,-40.2 3.6,-13 5.9,-24.8 5.9,-35.4 0,-42.5 -29.5,-85 -88.6,-125.2 -59,-39 -135.8,-72.1 -230.3,-99.2 -93.3,-23.6 -170,-69.7 -231.5,-135.9 -60.2,-67.2 -89.7,-139.3 -89.7,-216.1 0,-52 10.6,-96.8 33.1,-134.6 22.4,-39 49.6,-60.3 82.6,-66.2 -5.9,16.6 -9.4,36.7 -13,61.4 -2.3,26 -3.5,55.5 -3.5,89.8 0,76.8 33,141.7 100.4,196.1 67.3,54.3 148.8,80.3 244.5,80.3 90.9,0 167.7,-23.6 231.5,-72.1 63.7,-49.6 95.6,-108.6 95.6,-177.1 0,-76.8 -36.6,-141.7 -109.8,-196.1 -73.2,-54.3 -163,-81.5 -266.9,-81.5 20,-53.2 49.6,-95.7 87.4,-127.5 37.8,-30.8 80.3,-46.1 125.2,-46.1 27.1,0 54.3,7.1 82.6,22.4 -13,-33.1 -41.3,-66.1 -85,-99.2 -43.7,-31.9 -80.3,-48.4 -111,-48.4 -86.2,0 -161.8,24.8 -226.8,73.2 -64.9,49.6 -111,117 -135.8,199.6 -132.3,0 -244.5,33.1 -336.6,99.2 -93.3,66.2 -139.4,146.5 -139.4,239.8 0,82.7 37.8,159.4 114.6,232.7 75.5,73.2 172.4,125.2 288.2,155.9 76.7,21.3 138.1,47.2 184.2,77.9 47.3,29.6 69.7,62.7 69.7,96.9 0,21.3 -3.6,39 -11.8,54.3 -8.3,14.2 -17.7,21.3 -28.4,21.3 h -1174 c 21.3,-89.8 31.9,-152.4 31.9,-187.8 144.1,59 251.6,89.7 321.3,89.7 20,0 37.8,-10.6 51.9,-30.7 14.2,-20 21.3,-43.7 21.3,-72 -5.9,-99.2 -8.3,-390.9 -8.3,-876.4 -90.9,-49.6 -176,-75.6 -255.1,-75.6 -10.6,0 -21.3,8.3 -28.3,22.4 -8.3,15.4 -11.9,33.1 -11.9,53.2 0,419.3 2.4,679.1 8.3,777.2 -29.5,0 -60.2,-8.3 -90.9,-26 0,-226.8 -40.2,-421.7 -122.9,-583.4 -81.5,-161.9 -180.7,-243.4 -295.2,-243.4 -73.3,0 -134.7,29.6 -185.5,87.4 -51.9,59.1 -76.8,129.9 -76.8,212.6 0,125.2 31.9,241 95.7,346.1 65,105.1 147.7,178.4 249.2,220.9 0,48.4 -7,96.8 -18.9,146.4 -13,49.6 -30.7,96.9 -55.5,139.4 h -1006.3 c 48.4,-27.2 88.6,-66.1 118.1,-115.8 30.8,-49.5 46.1,-101.5 46.1,-157.1 23.6,35.5 54.3,63.9 90.9,82.7 36.7,18.9 78,28.4 121.7,28.4 90.9,0 168.9,-35.5 232.7,-106.3 64.9,-70.9 96.8,-157.1 96.8,-258.7 0,-79.1 -22.4,-161.8 -66.1,-245.6 -44.9,-85.1 -105.1,-160.7 -180.7,-228 -142.9,100.4 -213.8,146.4 -213.8,138.1 0,20.2 27.2,65 81.5,134.7 22.4,28.4 39,61.4 49.6,100.4 11.8,39 17.7,81.5 17.7,126.4 0,42.5 -10.6,77.9 -29.5,107.5 -18.9,29.5 -42.5,44.8 -69.7,44.8 -31.9,0 -68.5,-22.4 -109.8,-66.1 -42.6,-42.5 -83.9,-105.1 -127.6,-184.2 0,33 8.3,81.4 23.6,147.6 -56.7,-72.1 -150,-134.6 -277.5,-187.8 51.9,-13 127.5,-85 227.9,-213.8 37.8,-48.4 74.4,-85 111,-109.8 36.7,-26 70.9,-37.8 102.8,-37.8 -46.1,-49.6 -88.6,-86.2 -127.6,-112.2 -38.9,-27.2 -73.2,-40.2 -101.5,-40.2 -27.2,0 -63.8,20.1 -108.7,59.1 -46.1,38.9 -96.9,95.6 -153.5,168.9 -104,131.1 -158.3,197.2 -164.2,197.2 -18.9,0 -36.6,-1.1 -50.8,-5.9 -14.2,-4.7 -24.8,-10.6 -30.7,-17.7 l 31.9,200.8 c 81.5,0 151.2,27.1 209,81.5 57.9,54.3 86.3,119.3 86.3,196 0,63.9 -18.9,121.7 -55.6,172.5 -36.6,52 -83.8,85 -140.5,100.4 H 8905.47 v 151.1 z m 57.8,-852.7 c 0,167.7 47.3,309.4 144.1,426.4 95.7,118.1 211.5,177.1 347.3,177.1 47.2,0 89.7,-18.8 127.5,-55.4 37.8,-36.7 63.8,-85.1 79.2,-146.5 -13,16.5 -28.4,28.3 -46.1,36.6 -18.9,9.4 -39,13 -61.4,13 -63.8,0 -118.1,-35.4 -163,-108.7 -43.7,-73.2 -66.1,-161.8 -66.1,-266.9 0,-41.3 10.6,-76.8 33,-106.3 22.5,-29.5 49.6,-44.9 81.5,-44.9 65,0 125.2,68.5 179.5,205.5 55.6,135.8 82.7,285.9 82.7,446.5 33.1,29.5 75.6,52 125.2,67.3 49.6,14.2 106.3,21.3 170.1,21.3 -10.6,-197.3 -16.5,-544.5 -16.5,-1040.6 -91,-49.6 -178.4,-75.6 -263.4,-75.6 -8.3,0 -16.6,8.3 -22.5,22.4 -5.9,15.4 -9.4,33.1 -9.4,53.2 l 8.2,451.2 c -51.9,-138.2 -120.4,-248 -204.3,-329.6 -82.7,-80.2 -171.2,-121.6 -263.4,-121.6 -72,0 -134.6,36.6 -185.4,109.9 -52,73.2 -76.8,161.8 -76.8,265.7 z m 2397.7,250.4 c 27.2,0 56.7,9.4 87.4,26 30.7,17.7 61.4,43.7 92.1,76.7 l 8.3,236.3 c 28.3,24.8 67.3,43.7 118.1,56.7 49.6,13 108.6,18.9 177.1,18.9 -10.6,-178.4 -15.3,-525.6 -15.3,-1040.6 -90.9,-49.6 -176,-75.6 -253.9,-75.6 -11.8,0 -21.3,8.3 -29.6,22.4 -8.2,15.4 -11.8,33.1 -11.8,53.2 l 7.1,550.4 c -27.2,-23.6 -53.1,-42.5 -79.1,-54.3 -24.8,-11.8 -47.3,-17.7 -67.4,-17.7 -9.4,0 -17.7,4.7 -23.6,14.1 -5.9,9.5 -9.4,21.3 -9.4,34.3 z m 9347.2,-375.6 c 48.4,13 87.4,37.8 119.3,75.6 30.7,39 47.3,80.3 47.3,125.2 0,14.2 -3.6,26 -10.7,35.4 -7.1,9.5 -15.3,14.2 -23.6,14.2 -40.2,0 -72.1,-22.4 -95.6,-67.3 -24.9,-44.9 -36.7,-106.3 -36.7,-183.1 z m 519.7,-276.4 c 0,491.4 4.7,825.6 15.4,1005.1 56.6,49.7 158.2,75.7 303.5,75.7 -10.6,-179.6 -15.3,-530.4 -15.3,-1054.8 -91,-49.6 -176.1,-75.6 -255.2,-75.6 -13,0 -24.8,5.9 -34.2,15.4 -9.5,9.4 -14.2,21.2 -14.2,34.2 z M 3141.67,11255.9 c 0,166.5 48.45,308.3 144.11,426.4 95.66,116.9 212.58,176 347.25,176 48.42,0 90.94,-19 128.72,-55.5 36.62,-35.5 63.8,-85.1 77.96,-145.3 -12.98,15.3 -28.34,27.1 -46.06,36.6 -17.72,8.2 -38.98,13 -61.42,13 -63.78,0 -118.1,-36.6 -161.81,-109.9 -44.87,-73.2 -67.31,-161.8 -67.31,-265.7 0,-42.5 11.82,-78 34.23,-107.5 21.26,-29.5 48.43,-43.7 80.33,-43.7 64.96,0 125.2,68.5 180.7,204.3 54.34,137 82.68,285.9 82.68,447.7 33.09,29.5 74.4,51.9 124.03,66.1 50.78,15.4 107.46,22.5 171.24,22.5 -11.8,-198.5 -17.72,-545.7 -17.72,-1040.6 -90.94,-50.8 -178.34,-75.6 -262.18,-75.6 -9.47,0 -16.55,7.1 -23.63,22.4 -5.91,14.2 -9.46,32 -9.46,53.2 l 9.46,451.2 c -53.16,-139.4 -120.48,-249.2 -204.34,-330.7 -83.87,-80.3 -171.27,-120.5 -263.39,-120.5 -73.22,0 -135.82,36.6 -186.6,109.8 -50.78,72.1 -76.79,160.7 -76.79,265.8 z m 3862.23,852.7 h 1068.89 v -151.1 h -179.53 c 4.72,-9.5 8.26,-21.3 10.62,-35.5 3.54,-15.3 4.72,-31.9 4.72,-50.7 0,-22.5 -106.28,-78 -318.89,-164.2 -36.62,-15.4 -66.14,-34.3 -88.58,-55.5 -23.62,-20.1 -34.26,-39 -34.26,-56.7 0,-29.6 15.36,-56.7 46.06,-80.3 31.9,-22.5 70.88,-37.8 116.94,-44.9 114.57,-15.4 209.07,-53.2 285.83,-113.4 76.77,-60.2 115.75,-126.4 115.75,-199.6 0,-98.1 -55.51,-180.7 -167.73,-249.2 -112.18,-68.5 -248.03,-102.8 -406.29,-102.8 -109.84,0 -220.87,33.1 -331.89,100.4 -112.2,66.2 -167.7,133.5 -167.7,199.6 0,44.9 22.42,88.6 68.48,131.1 46.08,42.5 105.12,74.4 177.16,95.7 -5.9,-101.6 17.75,-189 69.7,-263.4 53.15,-75.6 116.93,-112.2 193.69,-112.2 59.06,0 108.68,17.7 150.01,54.3 42.51,36.6 62.6,81.5 62.6,133.5 0,49.6 -33.06,99.2 -101.56,148.8 -67.35,48.4 -154.75,86.2 -259.85,114.6 -61.42,17.7 -112.21,44.9 -152.37,81.5 -41.34,37.8 -61.42,77.9 -61.42,119.3 0,37.8 25.98,73.2 76.78,105.1 49.6,31.9 118.11,60.2 203.15,82.6 125.18,33.1 187.78,69.7 187.78,112.2 0,7.2 -1.18,14.2 -3.54,23.7 -3.54,8.3 -7.08,16.5 -11.82,26 H 3083.81 v 151.1 z m -1983.07,-946 1.18,119.3 c -11.82,-54.4 -29.54,-104 -53.17,-148.8 17.72,9.4 35.44,18.8 51.99,29.5 z m -712.23,106.3 c 0,154.7 43.7,287 129.93,398 86.22,109.9 191.34,165.4 314.19,165.4 48.42,0 94.48,-20.1 138.18,-59.1 44.88,-38.9 69.68,-81.5 75.58,-128.7 -13,15.3 -27.16,27.1 -44.88,36.6 -16.54,8.3 -35.42,13 -54.32,13 -63.78,0 -118.12,-41.3 -163,-124 -44.89,-82.7 -67.33,-183.1 -67.33,-301.2 0,-52 11.82,-96.9 34.27,-133.5 22.44,-36.6 49.6,-54.3 81.5,-54.3 77.94,0 142.9,76.7 197.22,230.3 54.34,154.7 81.51,340.2 81.51,559.9 54.32,48.4 152.36,73.2 295.28,73.2 -10.64,-179.6 -15.36,-379.2 -15.36,-600 23.63,102.7 61.42,184.2 112.2,245.6 50.79,62.7 106.31,93.3 165.37,93.3 82.66,0 152.34,-59 209.04,-175.9 57.89,-118.1 86.23,-259.9 86.23,-426.4 0,-54.3 -35.45,-106.3 -108.66,-155.9 -73.25,-49.6 -167.73,-89.8 -284.65,-120.5 15.36,69.7 27.16,139.4 36.6,211.4 8.28,70.9 11.82,141.7 11.82,213.8 0,55.5 -5.9,102.8 -17.72,141.7 -12.98,39 -28.34,59.1 -47.24,59.1 -44.88,0 -83.87,-54.3 -115.75,-161.8 -31.88,-107.5 -47.24,-237.4 -47.24,-388.6 -90.94,-50.8 -179.52,-75.6 -263.39,-75.6 -9.45,0 -16.53,4.7 -22.43,14.2 -7.08,9.4 -9.45,21.2 -9.45,35.4 l 2.37,134.7 c -60.25,-43.7 -128.75,-81.5 -205.53,-113.4 -159.44,-65 -343.69,-96.9 -553.94,-96.9 -14.18,0 -27.15,9.5 -37.77,29.6 -10.65,20 -16.55,43.7 -16.55,72 0,27.2 4.72,50.8 14.16,69.7 8.28,20.1 20.09,29.5 31.9,29.5 51.97,0 102.77,1.2 151.19,4.8 -2.36,3.5 -4.72,5.8 -7.1,9.4 -56.69,75.6 -86.23,167.7 -86.23,275.2 z m 1621.67,-88.6 c 0,144.1 103.94,305.9 309.45,484.3 206.68,179.5 394.49,269.2 561.01,269.2 27.19,0 50.78,-10.6 69.7,-30.7 20.06,-18.9 29.53,-43.7 29.53,-70.8 -11.83,-198.5 -16.55,-519.7 -16.55,-965 -23.62,-21.3 -56.68,-36.6 -101.56,-47.2 -44.88,-10.7 -99.22,-15.4 -161.82,-15.4 -9.44,0 -16.52,7.1 -22.44,22.4 -7.08,14.2 -9.45,32 -9.45,53.2 0,468.9 2.37,753.5 8.27,852.8 -96.84,-54.4 -174.81,-127.6 -232.69,-219.7 -59.04,-92.2 -88.58,-186.6 -88.58,-283.5 0,-98 14.18,-181.9 42.52,-251.6 27.18,-70.8 62.6,-112.2 106.3,-124 -29.52,-16.5 -61.42,-28.3 -94.48,-36.6 -33.06,-9.4 -67.32,-13 -103.94,-13 -64.96,0 -129.92,41.3 -196.05,125.2 -66.16,82.7 -99.22,166.5 -99.22,250.4 z m 727.56,1342.9 c 0,55.5 12.98,102.8 37.8,141.8 25.98,38.9 56.68,59 93.3,59 36.62,0 67.32,-20.1 93.31,-59 24.8,-39 37.79,-86.3 37.79,-141.8 0,-55.5 -12.99,-103.9 -37.79,-144.1 -25.99,-39 -56.69,-59 -93.31,-59 -36.62,0 -67.32,20 -93.3,59 -24.82,40.2 -37.8,88.6 -37.8,144.1 z m -661.42,-2007.9 c 0,37.8 25.98,75.6 77.97,112.2 51.95,36.7 119.28,66.2 200.76,88.6 0,-95.6 33.08,-192.5 99.22,-291.7 67.32,-98 132.29,-146.5 197.25,-146.5 35.44,0 66.14,18.9 92.12,57.9 24.8,40.2 37.8,87.4 37.8,142.9 0,44.9 -5.9,83.9 -18.9,115.8 -11.82,31.9 -27.16,48.4 -46.06,48.4 -22.44,0 -41.35,-17.7 -57.88,-52 -15.35,-35.4 -23.63,-76.7 -23.63,-125.2 -16.53,3.6 -31.88,13 -47.24,28.4 -15.35,15.3 -29.51,35.4 -43.7,60.2 18.9,74.4 50.81,134.7 98.05,180.7 46.06,46.1 99.2,69.7 157.08,69.7 76.76,0 142.9,-27.2 197.24,-81.5 55.51,-53.1 82.67,-119.3 82.67,-194.9 0,-98 -41.32,-180.7 -125.19,-248 -82.68,-67.3 -183.08,-101.6 -302.36,-101.6 -138.19,0 -258.67,29.6 -361.41,89.8 -102.77,60.2 -173.63,141.7 -213.79,246.8 z m 2671.65,641.4 c 0,-41.4 3.54,-78 9.46,-107.5 5.9,-29.5 14.16,-43.7 22.42,-43.7 22.46,0 33.08,108.6 33.08,326 l -7.08,138.2 c -17.72,-24.8 -31.9,-63.8 -42.52,-119.3 -10.64,-54.3 -15.36,-119.3 -15.36,-193.7 z m 2009.04,-302.4 c 0,490.2 4.7,824.4 15.4,1004 56.7,49.5 158.2,75.5 303.5,75.5 -10.6,-179.5 -15.3,-530.3 -15.3,-1053.5 -91,-50.8 -176,-75.6 -254,-75.6 -14.1,0 -26,4.7 -35.4,14.2 -9.5,9.4 -14.2,21.2 -14.2,35.4 z m 453.5,414.6 c 0,154.7 43.8,287 130,398 86.2,109.9 191.3,165.4 314.2,165.4 47.2,0 93.3,-20.1 138.1,-59.1 44.9,-38.9 69.7,-81.5 75.6,-128.7 -13,15.3 -28.3,27.1 -44.9,36.6 -16.5,8.3 -35.4,13 -54.3,13 -63.8,0 -118.1,-41.3 -163,-124 -44.9,-82.7 -67.3,-183.1 -67.3,-301.2 0,-52 10.6,-96.9 34.3,-133.5 22.4,-36.6 49.6,-54.3 81.5,-54.3 76.7,0 142.9,76.7 197.2,230.3 54.3,154.7 80.3,340.2 80.3,559.9 55.5,48.4 153.5,73.2 295.3,73.2 -9.5,-179.6 -15.4,-379.2 -15.4,-600 24.8,102.7 61.5,184.2 113.4,245.6 50.8,62.7 106.3,93.3 165.4,93.3 81.5,0 151.2,-59 209,-175.9 57.9,-118.1 86.3,-259.9 86.3,-426.4 0,-54.3 -36.7,-106.3 -108.7,-155.9 -73.2,-49.6 -168.9,-89.8 -285.8,-120.5 16.5,69.7 28.3,139.4 36.6,211.4 9.4,70.9 13,141.7 13,213.8 0,55.5 -5.9,102.8 -18.9,141.7 -11.8,39 -27.2,59.1 -46.1,59.1 -44.9,0 -83.8,-54.3 -115.7,-161.8 -31.9,-107.5 -48.5,-237.4 -48.5,-388.6 -90.9,-50.8 -178.3,-75.6 -262.2,-75.6 -9.4,0 -16.5,4.7 -23.6,14.2 -5.9,9.4 -9.5,21.2 -9.5,35.4 l 7.1,427.6 c -28.3,-120.5 -80.3,-217.3 -157,-290.6 -76.8,-74.4 -164.2,-111 -261.1,-111 -81.5,0 -151.1,37.8 -209,113.4 -57.9,75.6 -86.3,167.7 -86.3,275.2 z m 1686.7,-414.6 c 0,490.2 4.7,824.4 15.3,1004 56.7,49.5 158.3,75.5 303.6,75.5 -10.7,-179.5 -15.4,-530.3 -15.4,-1053.5 -90.9,-50.8 -176,-75.6 -253.9,-75.6 -14.2,0 -26,4.7 -35.4,14.2 -9.5,9.4 -14.2,21.2 -14.2,35.4 z m 395.6,1254.3 H 14459 v -151.1 h -660.2 c 42.5,-17.7 77.9,-47.3 105.1,-88.6 28.3,-42.5 41.3,-87.4 41.3,-135.8 0,-105.2 -34.2,-193.7 -102.7,-265.8 -69.7,-73.2 -152.4,-109.8 -249.2,-109.8 0,-76.8 18.9,-141.8 55.5,-196.1 35.4,-53.1 80.3,-80.3 132.3,-80.3 53.1,0 103.9,36.6 153.5,111 50.8,73.2 89.8,170.1 118.1,290.6 l 8.3,362.6 c 28.3,23.6 68.5,42.5 118.1,55.5 49.6,13 109.8,20.1 177.2,20.1 -10.7,-198.5 -16.6,-545.7 -16.6,-1040.6 -90.9,-50.8 -178.3,-75.6 -263.4,-75.6 -8.2,0 -16.5,7.1 -22.4,22.4 -5.9,14.2 -9.5,32 -9.5,53.2 v 300 c -35.4,-92.1 -82.6,-165.4 -140.5,-219.7 -59.1,-53.1 -121.7,-80.3 -187.8,-80.3 -126.4,0 -235.1,48.4 -326,145.3 -89.8,98 -134.6,216.1 -134.6,355.5 0,20.1 7,37.8 20,53.1 13,15.4 28.4,22.5 47.3,22.5 81.5,0 151.2,27.1 209.1,80.3 56.6,54.3 86.2,119.3 86.2,196.1 0,55.5 -11.8,105.1 -33.1,147.6 -21.3,42.5 -48.4,67.3 -81.5,76.8 h -3079.1 c 5.9,-10.7 9.4,-22.5 12.9,-35.5 2.4,-12.9 3.6,-27.1 3.6,-40.1 0,-33.1 -93.3,-75.6 -279.9,-125.2 -129.9,-35.4 -196.08,-59.1 -196.08,-73.3 0,-29.5 21.26,-57.8 62.58,-83.8 41.3,-26 96.9,-48.4 166.5,-67.3 105.2,-28.4 191.4,-68.5 259.9,-120.5 67.3,-52 101.6,-103.9 101.6,-155.9 0,-48.4 -27.2,-102.8 -81.5,-161.8 -54.4,-59.1 -104,-88.6 -148.9,-88.6 -44.8,0 -83.8,3.6 -114.5,13 -30.7,8.3 -52,20.1 -65,36.6 18.9,4.7 34.3,18.9 46.1,42.5 13,23.7 18.9,50.8 18.9,82.7 0,48.4 -10.7,92.1 -31.9,129.9 -21.3,39 -49.6,61.4 -81.5,70.9 l -164.18,39 c -24.81,-14.2 -46.07,-43.7 -61.4,-87.4 -15.37,-44.9 -22.46,-95.7 -22.46,-152.4 0,-94.5 26,-179.5 79.14,-255.1 53.14,-75.6 120.5,-124 200.8,-146.5 l -148.84,-99.2 c -112.18,0 -209.05,41.4 -289.37,124 -80.3,82.7 -120.47,183.1 -120.47,301.2 0,69.7 21.26,141.7 61.43,218.5 41.32,76.8 98.02,146.5 168.88,209.1 -131.1,73.2 -197.22,122.8 -197.22,151.1 0,52 87.38,101.6 262.18,148.9 153.51,41.3 231.51,82.7 231.51,125.2 H 9012.93 c 21.28,-91 31.9,-153.6 31.9,-187.8 145.29,59 251.59,88.6 321.25,88.6 20.1,0 37.8,-10.7 51.98,-30.7 14.18,-19 21.26,-43.8 21.26,-70.9 -5.9,-99.2 -8.26,-391 -8.26,-876.4 -90.94,-50.8 -175.98,-75.6 -253.95,-75.6 -11.79,0 -21.26,7.1 -29.52,22.4 -8.27,14.2 -11.81,32 -11.81,53.2 0,419.3 2.35,678 8.25,777.2 -29.52,0 -59.03,-9.5 -89.76,-26 0,-228 -41.34,-422.8 -122.82,-584.7 -82.69,-161.8 -180.71,-242.1 -296.45,-242.1 -72.06,0 -134.64,28.4 -185.44,87.4 -50.79,57.9 -76.77,128.7 -76.77,212.6 0,125.2 31.88,239.8 96.85,344.9 63.78,105.1 146.44,178.3 248.02,220.9 0,48.4 -5.9,98 -18.9,147.6 -12.98,49.6 -30.7,95.7 -54.32,139.4 h -325.99 v 151.1 z m 1763.4,-151.1 v 151.1 h 2213.4 c -24.8,22.5 -44.9,52 -59.1,87.4 -15.3,35.5 -22.4,73.3 -22.4,113.4 0,92.2 36.6,177.2 111,256.3 73.3,79.2 154.8,119.3 242.2,119.3 46,0 88.6,-5.9 124,-15.3 36.6,-10.6 66.1,-27.2 89.8,-47.3 0,-22.4 -14.2,-55.5 -40.2,-98 -26,-42.5 -46.1,-63.8 -59.1,-63.8 -24.8,30.7 -47.2,55.5 -67.3,73.2 -18.9,16.6 -34.2,26 -47.2,26 -31.9,0 -59.1,-14.2 -81.5,-40.1 -22.5,-27.2 -33.1,-60.3 -33.1,-98.1 0,-35.4 9.5,-70.8 26,-107.4 17.7,-36.7 41.3,-67.4 70.8,-93.3 l -187.8,-112.3 h 2156.7 c -46,0 -86.2,8.3 -120.4,26 -34.3,17.7 -59.1,41.4 -76.8,73.3 l -154.7,226.7 c -17.7,30.7 -39,55.5 -67.4,73.3 -27.1,16.5 -56.6,25.9 -89.7,25.9 -43.7,0 -65,3.6 -65,13 0,7.1 2.4,13 8.3,20.1 5.9,7.1 14.2,13 23.6,18.9 l 198.4,75.6 c 28.4,15.4 61.5,23.6 96.9,23.6 14.2,0 29.5,-9.4 47.3,-25.9 17.7,-17.8 35.4,-42.6 51.9,-73.3 l 164.2,-250.4 c 18.9,-36.6 44.8,-66.1 75.6,-87.4 31.9,-21.2 66.1,-35.4 105.1,-40.1 -36.6,-33.1 -70.9,-57.9 -105.1,-74.4 -33.1,-16.6 -63.8,-24.9 -92.2,-24.9 h 380.4 c -16.6,20.1 -28.4,41.4 -36.6,63.8 -9.5,21.3 -13.1,42.5 -13.1,61.4 0,99.3 63.8,198.5 192.6,300 128.7,100.4 256.3,151.2 382.6,151.2 121.7,0 235.1,-38.9 339,-115.7 105.2,-78 189,-185.5 251.6,-322.5 -18.9,-35.4 -53.1,-62.6 -100.4,-82.6 -48.4,-20.1 -105.1,-29.6 -171.2,-29.6 -30.8,126.4 -76.8,229.2 -138.2,307.1 -61.5,79.1 -127.6,118.1 -198.5,118.1 -54.3,0 -108.6,-42.5 -162.9,-125.2 -55.6,-83.8 -82.7,-167.7 -82.7,-250.4 0,-15.3 3.5,-30.7 11.8,-44.8 7.1,-13 16.5,-23.7 29.5,-30.8 h 1188.2 v -151.1 h -259.9 c 8.3,-10.7 14.2,-24.9 17.8,-42.5 4.7,-16.6 5.9,-36.7 5.9,-56.7 0,-50.8 -29.5,-104 -88.6,-160.7 -59.1,-56.7 -135.8,-103.9 -230.3,-141.7 -55.5,-22.5 -101.6,-67.3 -137,-132.3 -34.3,-65 -52,-137 -52,-217.3 0,-69.7 14.2,-128.7 42.5,-177.2 29.5,-49.6 65,-73.2 105.1,-73.2 72.1,0 135.9,40.1 191.4,119.3 56.7,80.3 90.9,181.9 103.9,305.9 73.2,0 135.9,-21.3 186.6,-62.6 50.8,-42.5 76.8,-92.2 76.8,-151.2 0,-80.3 -65,-160.6 -196.1,-242.1 -129.9,-80.3 -258.6,-120.5 -387.4,-120.5 -128.7,0 -238.5,39 -330.7,116.9 -92.1,78 -137,173.7 -137,284.7 0,88.6 31.9,171.2 96.9,248 64.9,75.6 147.6,127.6 248,153.6 47.3,11.8 86.2,43.7 116.9,96.8 30.7,52 46.1,111 46.1,177.2 0,13 -1.2,27.2 -5.9,40.1 -3.6,13 -9.5,24.8 -17.7,35.5 h -3835.1 c 43.7,-17.7 79.2,-47.3 106.3,-88.6 27.2,-42.5 41.4,-87.4 41.4,-135.8 0,-105.2 -35.5,-193.7 -104,-265.8 -68.5,-73.2 -151.2,-109.8 -248,-109.8 0,-76.8 17.7,-141.8 54.3,-196.1 36.6,-53.1 80.3,-80.3 133.5,-80.3 52,0 102.8,36.6 153.5,111 49.6,73.2 89.8,170.1 118.2,290.6 l 8.2,362.6 c 28.3,23.6 67.3,42.5 118.1,55.5 49.7,13 108.7,20.1 177.2,20.1 -11.8,-198.5 -17.7,-545.7 -17.7,-1040.6 -91,-50.8 -178.4,-75.6 -262.2,-75.6 -9.5,0 -16.5,7.1 -23.6,22.4 -5.9,14.2 -9.5,32 -9.5,53.2 v 300 c -34.2,-92.1 -81.5,-165.4 -140.6,-219.7 -57.8,-53.1 -120.4,-80.3 -186.6,-80.3 -127.5,0 -236.2,48.4 -325.9,145.3 -89.8,98 -134.7,216.1 -134.7,355.5 0,20.1 5.9,37.8 18.9,53.1 13,15.4 29.6,22.5 47.2,22.5 81.6,0 151.2,27.1 209.1,80.3 57.9,54.3 86.2,119.3 86.2,196.1 0,55.5 -10.6,105.1 -31.9,147.6 -22.4,42.5 -49.6,67.3 -82.6,76.8 h -1012.3 c 49.7,-28.4 88.6,-72.1 119.4,-131.1 29.5,-59.1 44.8,-124.1 44.8,-194.9 0,-81.5 -41.3,-160.6 -125.2,-236.2 -83.8,-75.6 -188.9,-131.1 -316.5,-165.4 37.8,-10.6 74.4,-27.1 111,-49.6 36.6,-22.5 70.9,-52 101.6,-86.2 28.3,-29.5 53.1,-52 74.4,-66.2 22.4,-15.3 41.3,-22.4 57.9,-22.4 16.5,0 33.1,2.4 49.6,5.9 15.3,4.7 31.9,11.8 47.2,20.1 l 17.7,-26 c -24.7,-62.6 -51.9,-112.2 -83.8,-147.6 -31.9,-35.5 -65,-53.2 -98.1,-53.2 -48.4,0 -96.8,14.2 -144,41.3 -48.5,28.4 -92.2,67.4 -133.5,120.5 -48.4,60.3 -90.9,107.5 -127.6,140.6 -36.6,33 -64.9,49.6 -86.2,49.6 -3.5,0 -14.1,-9.5 -34.2,-26 l 34.2,250.4 h 114.6 c 59,0 109.8,29.5 151.2,88.6 41.3,59 62.5,129.9 62.5,213.7 0,52 -16.5,102.8 -49.5,153.6 -33.1,50.8 -76.8,90.9 -132.3,120.5 z m 709.9,-451.2 c 27.1,0 56.7,8.3 87.4,26 30.7,17.7 61.4,42.5 92.1,75.6 l 8.3,237.4 c 28.3,23.6 67.3,42.5 118.1,55.5 49.6,13 108.6,20.1 177.2,20.1 -10.7,-179.6 -15.4,-525.6 -15.4,-1040.6 -91,-50.8 -176,-75.6 -253.9,-75.6 -11.9,0 -21.3,7.1 -29.6,22.4 -8.3,14.2 -11.8,32 -11.8,53.2 l 7.1,550.4 c -27.2,-24.8 -53.1,-42.5 -79.1,-55.5 -24.8,-11.8 -47.3,-17.7 -67.4,-17.7 -9.4,0 -17.7,4.7 -23.6,14.1 -5.9,9.5 -9.4,21.3 -9.4,35.5 z m -386.2,-991 c 0,37.8 25.9,75.6 77.9,112.2 52,36.7 119.3,66.2 200.8,88.6 0,-95.6 33.1,-192.5 100.4,-291.7 66.1,-98 132.2,-146.5 196.1,-146.5 35.4,0 66.1,18.9 92.1,57.9 24.8,40.2 37.8,87.4 37.8,142.9 0,44.9 -5.9,83.9 -18.9,115.8 -11.8,31.9 -27.2,48.4 -46.1,48.4 -22.4,0 -41.3,-17.7 -57.9,-52 -15.3,-35.4 -23.6,-76.7 -23.6,-125.2 -15.3,3.6 -31.9,13 -47.3,28.4 -15.3,15.3 -29.4,35.4 -43.6,60.2 18.9,74.4 50.7,134.7 98,180.7 46.1,46.1 99.2,69.7 157.1,69.7 76.8,0 142.9,-27.2 197.2,-81.5 55.5,-53.1 82.7,-119.3 82.7,-194.9 0,-98 -41.3,-180.7 -125.2,-248 -82.7,-67.3 -183,-101.6 -302.3,-101.6 -138.2,0 -258.7,29.6 -361.4,89.8 -102.8,60.2 -173.7,141.7 -213.8,246.8 z m 2251.1,753.6 c 0,154.7 43.7,287 130,398 86.2,109.9 191.3,165.4 314.1,165.4 48.5,0 94.5,-20.1 138.2,-59.1 44.9,-38.9 69.7,-81.5 75.6,-128.7 -13,15.3 -27.2,27.1 -44.9,36.6 -16.5,8.3 -35.4,13 -54.3,13 -63.8,0 -118.1,-41.3 -163,-124 -44.9,-82.7 -67.3,-183.1 -67.3,-301.2 0,-52 11.8,-96.9 34.2,-133.5 22.5,-36.6 49.6,-54.3 81.5,-54.3 78,0 142.9,76.7 197.3,230.3 54.3,154.7 81.5,340.2 81.5,559.9 54.3,48.4 152.3,73.2 295.2,73.2 -10.6,-179.6 -15.3,-379.2 -15.3,-600 23.6,102.7 61.4,184.2 112.2,245.6 50.8,62.7 106.3,93.3 165.3,93.3 82.7,0 152.4,-59 209.1,-175.9 57.9,-118.1 86.2,-259.9 86.2,-426.4 0,-54.3 -35.4,-106.3 -108.6,-155.9 -73.3,-49.6 -167.8,-89.8 -285.9,-120.5 16.6,69.7 28.4,139.4 37.8,211.4 8.3,70.9 11.9,141.7 11.9,213.8 0,55.5 -5.9,102.8 -17.8,141.7 -13,39 -28.3,59.1 -47.2,59.1 -44.9,0 -83.9,-54.3 -115.7,-161.8 -32,-107.5 -47.3,-237.4 -47.3,-388.6 -90.9,-50.8 -179.6,-75.6 -263.4,-75.6 -9.5,0 -16.5,4.7 -22.4,14.2 -7.1,9.4 -9.5,21.2 -9.5,35.4 l 7.1,427.6 c -29.5,-120.5 -81.5,-217.3 -158.3,-290.6 -76.7,-74.4 -164.1,-111 -261,-111 -81.5,0 -151.2,37.8 -209,113.4 -56.8,75.6 -86.3,167.7 -86.3,275.2 z m 1686.6,-414.6 c 0,490.2 5.9,824.4 15.4,1004 56.7,49.5 158.3,75.5 303.5,75.5 -9.4,-179.5 -15.3,-530.3 -15.3,-1053.5 -90.9,-50.8 -174.8,-75.6 -254,-75.6 -12.9,0 -24.7,4.7 -35.4,14.2 -9.4,9.4 -14.2,21.2 -14.2,35.4 z m 522.1,49.6 c 0,465.4 5.9,787.8 15.3,967.4 55.5,48.4 153.6,73.2 295.3,73.2 -9.4,-179.6 -15.3,-533.9 -15.3,-1064.2 -91,-50.8 -167.7,-75.6 -230.4,-75.6 -17.7,0 -33,9.5 -46,28.4 -11.8,18.9 -18.9,42.5 -18.9,70.8 z m 6076.8,1053.6 1.2,151.1 h 522 v -151.1 z m -1156.3,-820.9 2.3,119.3 c -22.4,-59.1 -47.2,-111 -76.7,-155.9 25.9,11.8 50.7,23.6 74.4,36.6 z m -3202,820.9 v 151.1 h 3610.6 v -151.1 h -636.6 c -42.5,-76.8 -74.4,-164.2 -98,-263.4 -22.4,-99.2 -33.1,-204.4 -33.1,-313 0,-59.1 10.7,-109.9 33.1,-151.2 23.6,-42.5 50.8,-62.6 82.7,-62.6 49.6,0 96.8,30.7 142.9,92.1 43.7,61.5 79.1,144.1 102.7,246.9 l 8.3,326 c 33,29.5 74.4,51.9 125.2,66.1 49.6,15.4 106.3,22.5 170.1,22.5 -10.7,-198.5 -16.6,-549.3 -16.6,-1053.6 -23.6,-21.3 -57.8,-36.6 -103.9,-47.2 -46.1,-10.7 -101.6,-15.4 -166.5,-15.4 -5.9,0 -11.8,4.7 -17.7,14.2 -4.8,9.4 -7.2,21.2 -7.2,35.4 l 1.2,102.8 c -47.2,-30.7 -100.4,-57.9 -158.2,-81.5 -159.5,-65 -343.7,-96.9 -554,-96.9 -14.1,0 -27.1,9.5 -37.8,29.6 -10.6,20 -16.5,43.7 -16.5,72 0,27.2 4.7,50.8 14.2,69.7 8.3,20.1 20.1,29.5 31.9,29.5 80.3,0 157,3.6 231.5,11.8 -27.2,22.5 -53.2,50.8 -75.6,83.9 -67.3,98 -100.4,216.1 -100.4,355.5 0,73.2 9.4,153.5 28.3,243.3 18.9,89.8 48.5,184.3 85.1,283.5 h -682.7 c 22.4,-91 33.1,-153.6 33.1,-187.8 144,59 251.5,88.6 321.2,88.6 20.1,0 36.6,-10.7 52,-30.7 14.2,-19 21.2,-43.8 21.2,-70.9 -5.9,-99.2 -9.4,-391 -9.4,-876.4 -90.9,-50.8 -174.8,-75.6 -253.9,-75.6 -11.8,0 -21.3,7.1 -28.4,22.4 -8.3,14.2 -13,32 -13,53.2 0,419.3 3.6,678 9.5,777.2 -29.5,0 -60.3,-9.5 -91,-26 0,-228 -41.3,-422.8 -122.8,-584.7 -81.5,-161.8 -180.7,-242.1 -295.3,-242.1 -73.2,0 -134.6,28.4 -186.6,87.4 -50.8,57.9 -76.8,128.7 -76.8,212.6 0,125.2 33.1,239.8 96.9,344.9 63.7,105.1 147.6,178.3 248,220.9 0,48.4 -5.9,98 -18.9,147.6 -11.8,49.6 -30.7,95.7 -54.3,139.4 h -1032.3 c 48.4,-28.4 88.6,-72.1 118.1,-131.1 30.7,-59.1 46.1,-124.1 46.1,-194.9 0,-81.5 -42.6,-160.6 -126.4,-236.2 -82.7,-75.6 -189,-131.1 -316.6,-165.4 37.9,-10.6 74.5,-27.1 111.1,-49.6 36.6,-22.5 70.8,-52 102.7,-86.2 27.2,-29.5 52,-52 74.5,-66.2 22.4,-15.3 41.3,-22.4 56.6,-22.4 17.7,0 34.3,2.4 49.6,5.9 16.6,4.7 31.9,11.8 48.5,20.1 l 16.5,-26 c -23.6,-62.6 -51.9,-112.2 -83.8,-147.6 -31.9,-35.5 -63.8,-53.2 -96.9,-53.2 -49.6,0 -96.9,14.2 -145.3,41.3 -47.2,28.4 -92.1,67.4 -133.5,120.5 -47.2,60.3 -89.7,107.5 -126.3,140.6 -37.8,33 -66.2,49.6 -86.3,49.6 -3.5,0 -15.3,-9.5 -34.2,-26 l 34.2,250.4 h 113.4 c 60.3,0 109.9,29.5 151.2,88.6 41.4,59 62.6,129.9 62.6,213.7 0,52 -16.5,102.8 -49.6,153.6 -33,50.8 -76.7,90.9 -131.1,120.5 z m 711,-451.2 c 27.2,0 55.5,8.3 86.2,26 30.8,17.7 61.4,42.5 92.2,75.6 l 9.4,237.4 c 28.4,23.6 67.4,42.5 116.9,55.5 50.8,13 109.9,20.1 178.4,20.1 -10.6,-179.6 -15.3,-525.6 -15.3,-1040.6 -91,-50.8 -176.1,-75.6 -255.2,-75.6 -10.6,0 -21.3,7.1 -28.3,22.4 -8.3,14.2 -11.8,32 -11.8,53.2 l 5.9,550.4 c -27.2,-24.8 -53.2,-42.5 -78,-55.5 -24.8,-11.8 -48.4,-17.7 -68.5,-17.7 -9.5,0 -16.5,4.7 -22.4,14.1 -7.1,9.5 -9.5,21.3 -9.5,35.5 v 99.2"
         style="fill:#ed1d24;fill-opacity:1;fill-rule:nonzero;stroke:none"
         id="path24" /></g></g></svg>
