<?xml version="1.0" encoding="UTF-8"?>
<svg xmlns="http://www.w3.org/2000/svg" xmlns:xlink="http://www.w3.org/1999/xlink" width="279px" height="42px" viewBox="0 0 279 42" version="1.1">
<g id="surface1">
<path style=" stroke:none;fill-rule:evenodd;fill:rgb(100%,100%,100%);fill-opacity:1;" d="M 0.0117188 41.996094 L 279.011719 41.996094 L 279.011719 0.00390625 L 0.0117188 0.00390625 L 0.0117188 41.996094 "/>
<path style="fill:none;stroke-width:2.26772;stroke-linecap:butt;stroke-linejoin:miter;stroke:rgb(6.27451%,5.882353%,5.098039%);stroke-opacity:1;stroke-miterlimit:10;" d="M 1.260081 1.260352 L 30001.260831 1.260352 L 30001.260831 20000.040148 L 1.260081 20000.040148 Z M 1.260081 1.260352 " transform="matrix(0.0093,0,0,-0.00209974,0,41.99874)"/>
<path style=" stroke:none;fill-rule:evenodd;fill:rgb(92.941176%,11.372549%,14.117647%);fill-opacity:1;" d="M 262.128906 15.832031 L 257.777344 14.605469 C 257.777344 18.457031 257.777344 22.3125 257.777344 26.167969 L 262.128906 27.394531 C 262.128906 23.539062 262.128906 19.6875 262.128906 15.832031 "/>
<path style=" stroke:none;fill-rule:evenodd;fill:rgb(92.941176%,11.372549%,14.117647%);fill-opacity:1;" d="M 272.410156 15.0625 L 268.058594 13.835938 C 268.058594 18.203125 268.058594 22.566406 268.058594 26.933594 L 272.410156 28.160156 C 272.410156 23.796875 272.410156 19.429688 272.410156 15.0625 "/>
<path style=" stroke:none;fill-rule:evenodd;fill:rgb(92.941176%,11.372549%,14.117647%);fill-opacity:1;" d="M 16.902344 15.832031 L 21.253906 14.605469 C 21.253906 18.457031 21.253906 22.3125 21.253906 26.167969 L 16.902344 27.394531 C 16.902344 23.539062 16.902344 19.6875 16.902344 15.832031 "/>
<path style=" stroke:none;fill-rule:evenodd;fill:rgb(92.941176%,11.372549%,14.117647%);fill-opacity:1;" d="M 6.621094 15.0625 L 10.972656 13.835938 C 10.972656 18.203125 10.972656 22.566406 10.972656 26.933594 L 6.621094 28.160156 C 6.621094 23.796875 6.621094 19.429688 6.621094 15.0625 "/>
<path style=" stroke:none;fill-rule:nonzero;fill:rgb(92.941176%,11.372549%,14.117647%);fill-opacity:1;" d="M 160.390625 24.457031 C 160.390625 24.101562 160.832031 23.804688 161.730469 23.558594 C 162.621094 23.3125 163.699219 23.1875 164.960938 23.1875 C 165.402344 23.1875 165.808594 23.226562 166.148438 23.304688 C 166.5 23.382812 166.742188 23.484375 166.882812 23.613281 C 166.761719 23.578125 166.621094 23.550781 166.457031 23.535156 C 166.28125 23.515625 166.09375 23.507812 165.882812 23.507812 C 165.289062 23.507812 164.785156 23.582031 164.367188 23.734375 C 163.960938 23.890625 163.753906 24.074219 163.753906 24.296875 C 163.753906 24.382812 163.851562 24.457031 164.058594 24.519531 C 164.269531 24.582031 164.523438 24.613281 164.816406 24.613281 C 165.421875 24.613281 165.984375 24.46875 166.488281 24.183594 C 167.003906 23.898438 167.257812 23.582031 167.257812 23.246094 C 167.566406 23.183594 167.960938 23.136719 168.421875 23.105469 C 168.882812 23.074219 169.421875 23.058594 170.011719 23.058594 C 169.902344 23.472656 169.847656 24.203125 169.847656 25.242188 C 169.003906 25.347656 168.191406 25.402344 167.398438 25.402344 C 167.324219 25.402344 167.246094 25.386719 167.191406 25.355469 C 167.136719 25.324219 167.101562 25.285156 167.101562 25.242188 L 167.179688 24.296875 C 166.695312 24.585938 166.058594 24.816406 165.289062 24.988281 C 164.511719 25.15625 163.6875 25.242188 162.828125 25.242188 C 162.160156 25.242188 161.578125 25.167969 161.105469 25.011719 C 160.621094 24.859375 160.390625 24.671875 160.390625 24.457031 Z M 167.257812 22.242188 C 167.257812 22.050781 167.609375 21.867188 168.289062 21.703125 C 168.980469 21.535156 169.730469 21.453125 170.550781 21.453125 C 170.980469 21.453125 171.363281 21.464844 171.707031 21.488281 C 172.046875 21.507812 172.320312 21.542969 172.527344 21.585938 C 172.527344 21.632812 172.40625 21.699219 172.167969 21.789062 C 171.925781 21.878906 171.738281 21.921875 171.605469 21.921875 C 171.375 21.859375 171.167969 21.804688 170.992188 21.773438 C 170.816406 21.734375 170.660156 21.71875 170.550781 21.71875 C 170.253906 21.71875 170.003906 21.746094 169.792969 21.800781 C 169.585938 21.859375 169.488281 21.925781 169.488281 22.007812 C 169.488281 22.078125 169.5625 22.152344 169.730469 22.230469 C 169.894531 22.308594 170.113281 22.375 170.386719 22.429688 L 168.640625 22.664062 L 168.027344 22.664062 C 167.796875 22.613281 167.609375 22.554688 167.464844 22.480469 C 167.332031 22.402344 167.257812 22.324219 167.257812 22.242188 Z M 171.386719 24.429688 C 171.386719 24.101562 171.792969 23.824219 172.59375 23.59375 C 173.398438 23.359375 174.375 23.246094 175.515625 23.246094 C 175.957031 23.246094 176.382812 23.285156 176.800781 23.367188 C 177.207031 23.449219 177.449219 23.539062 177.496094 23.640625 C 177.382812 23.605469 177.242188 23.578125 177.085938 23.5625 C 176.921875 23.542969 176.757812 23.535156 176.582031 23.535156 C 175.988281 23.535156 175.484375 23.621094 175.066406 23.792969 C 174.648438 23.964844 174.441406 24.175781 174.441406 24.429688 C 174.441406 24.539062 174.539062 24.628906 174.746094 24.707031 C 174.96875 24.78125 175.21875 24.820312 175.515625 24.820312 C 176.230469 24.820312 176.847656 24.660156 177.351562 24.335938 C 177.855469 24.015625 178.097656 23.621094 178.097656 23.160156 C 178.613281 23.058594 179.527344 23.007812 180.84375 23.007812 C 180.757812 23.382812 180.703125 23.804688 180.703125 24.265625 C 180.933594 24.054688 181.273438 23.878906 181.757812 23.75 C 182.226562 23.621094 182.742188 23.554688 183.292969 23.554688 C 184.050781 23.554688 184.699219 23.679688 185.238281 23.925781 C 185.777344 24.171875 186.039062 24.46875 186.039062 24.820312 C 186.039062 24.933594 185.699219 25.042969 185.019531 25.148438 C 184.347656 25.25 183.457031 25.335938 182.371094 25.402344 C 182.523438 25.257812 182.632812 25.105469 182.710938 24.957031 C 182.789062 24.808594 182.832031 24.660156 182.832031 24.511719 C 182.832031 24.394531 182.777344 24.292969 182.65625 24.210938 C 182.546875 24.128906 182.40625 24.089844 182.226562 24.089844 C 181.8125 24.089844 181.449219 24.199219 181.152344 24.429688 C 180.855469 24.652344 180.703125 24.925781 180.703125 25.242188 C 179.855469 25.347656 179.042969 25.402344 178.261719 25.402344 C 178.175781 25.402344 178.109375 25.390625 178.042969 25.371094 C 177.988281 25.351562 177.957031 25.324219 177.957031 25.296875 L 178.023438 24.398438 C 177.757812 24.652344 177.273438 24.855469 176.550781 25.011719 C 175.835938 25.164062 175.035156 25.242188 174.132812 25.242188 C 173.375 25.242188 172.726562 25.164062 172.1875 25.003906 C 171.648438 24.84375 171.386719 24.652344 171.386719 24.429688 Z M 186.433594 25.296875 C 186.433594 24.265625 186.480469 23.566406 186.578125 23.1875 C 187.105469 23.082031 188.050781 23.027344 189.402344 23.027344 C 189.3125 23.40625 189.257812 24.144531 189.257812 25.242188 C 188.414062 25.347656 187.621094 25.402344 186.898438 25.402344 C 186.765625 25.402344 186.664062 25.390625 186.566406 25.371094 C 186.480469 25.351562 186.433594 25.324219 186.433594 25.296875 Z M 204.207031 24.035156 C 204.207031 24.214844 204.328125 24.371094 204.570312 24.496094 C 204.8125 24.625 205.097656 24.691406 205.4375 24.691406 C 205.746094 24.691406 206.019531 24.667969 206.261719 24.625 C 206.503906 24.585938 206.691406 24.527344 206.8125 24.457031 L 204.832031 23.246094 C 204.625 23.363281 204.480469 23.492188 204.371094 23.625 C 204.261719 23.757812 204.207031 23.894531 204.207031 24.035156 Z M 202.769531 26.011719 C 202.769531 25.929688 203.011719 25.851562 203.484375 25.773438 C 203.964844 25.699219 204.59375 25.636719 205.347656 25.589844 C 205.347656 25.789062 205.65625 25.992188 206.285156 26.199219 C 206.898438 26.40625 207.515625 26.507812 208.117188 26.507812 C 208.449219 26.507812 208.722656 26.464844 208.964844 26.382812 C 209.207031 26.304688 209.328125 26.203125 209.328125 26.085938 C 209.328125 25.992188 209.261719 25.910156 209.152344 25.839844 C 209.03125 25.773438 208.886719 25.738281 208.722656 25.738281 C 208.503906 25.738281 208.328125 25.777344 208.171875 25.851562 C 208.03125 25.921875 207.953125 26.011719 207.953125 26.113281 C 207.808594 26.105469 207.667969 26.085938 207.523438 26.050781 C 207.371094 26.019531 207.238281 25.976562 207.117188 25.929688 C 207.28125 25.769531 207.589844 25.644531 208.019531 25.546875 C 208.457031 25.449219 208.941406 25.402344 209.480469 25.402344 C 210.207031 25.402344 210.808594 25.457031 211.324219 25.570312 C 211.832031 25.683594 212.082031 25.820312 212.082031 25.984375 C 212.082031 26.1875 211.699219 26.359375 210.929688 26.5 C 210.148438 26.644531 209.214844 26.714844 208.117188 26.714844 C 206.820312 26.714844 205.699219 26.652344 204.746094 26.527344 C 203.800781 26.402344 203.144531 26.226562 202.769531 26.011719 Z M 218.289062 23.929688 C 218.542969 23.929688 218.816406 23.910156 219.101562 23.875 C 219.386719 23.835938 219.671875 23.78125 219.957031 23.714844 L 220.035156 23.21875 C 220.300781 23.164062 220.660156 23.125 221.132812 23.097656 C 221.597656 23.070312 222.144531 23.058594 222.78125 23.058594 C 222.683594 23.433594 222.640625 24.164062 222.640625 25.242188 C 221.792969 25.347656 221.003906 25.402344 220.277344 25.402344 C 220.167969 25.402344 220.078125 25.386719 220.003906 25.355469 C 219.925781 25.324219 219.894531 25.285156 219.894531 25.242188 L 219.957031 24.089844 C 219.707031 24.136719 219.464844 24.175781 219.222656 24.203125 C 218.992188 24.226562 218.785156 24.238281 218.585938 24.238281 C 218.507812 24.238281 218.433594 24.230469 218.378906 24.210938 C 218.320312 24.191406 218.289062 24.164062 218.289062 24.136719 Z M 224.023438 24.457031 C 224.023438 24.101562 224.464844 23.804688 225.363281 23.558594 C 226.253906 23.3125 227.328125 23.1875 228.59375 23.1875 C 229.03125 23.1875 229.425781 23.226562 229.777344 23.304688 C 230.128906 23.382812 230.371094 23.484375 230.515625 23.613281 C 230.394531 23.578125 230.25 23.550781 230.085938 23.535156 C 229.910156 23.515625 229.722656 23.507812 229.515625 23.507812 C 228.921875 23.507812 228.417969 23.582031 228 23.734375 C 227.59375 23.890625 227.382812 24.074219 227.382812 24.296875 C 227.382812 24.382812 227.484375 24.457031 227.691406 24.519531 C 227.898438 24.582031 228.152344 24.613281 228.449219 24.613281 C 229.054688 24.613281 229.613281 24.46875 230.121094 24.183594 C 230.636719 23.898438 230.886719 23.582031 230.886719 23.246094 C 231.195312 23.183594 231.589844 23.136719 232.050781 23.105469 C 232.515625 23.074219 233.050781 23.058594 233.632812 23.058594 C 233.535156 23.472656 233.480469 24.203125 233.480469 25.242188 C 232.636719 25.347656 231.820312 25.402344 231.03125 25.402344 C 230.953125 25.402344 230.878906 25.386719 230.824219 25.355469 C 230.765625 25.324219 230.734375 25.285156 230.734375 25.242188 L 230.8125 24.296875 C 230.328125 24.585938 229.691406 24.816406 228.921875 24.988281 C 228.140625 25.15625 227.320312 25.242188 226.460938 25.242188 C 225.792969 25.242188 225.210938 25.167969 224.738281 25.011719 C 224.253906 24.859375 224.023438 24.671875 224.023438 24.457031 Z M 193.101562 21.746094 C 193.101562 21.730469 193.125 21.714844 193.179688 21.699219 C 193.234375 21.683594 193.3125 21.671875 193.398438 21.660156 L 195.246094 21.5 C 195.507812 21.46875 195.816406 21.453125 196.144531 21.453125 C 196.277344 21.453125 196.417969 21.472656 196.585938 21.507812 C 196.75 21.542969 196.914062 21.597656 197.066406 21.660156 L 197.5625 21.832031 C 197.914062 21.710938 198.320312 21.617188 198.792969 21.550781 C 199.265625 21.488281 199.757812 21.453125 200.277344 21.453125 C 200.714844 21.453125 201.097656 21.464844 201.441406 21.488281 C 201.769531 21.507812 202.054688 21.542969 202.265625 21.585938 C 202.265625 21.632812 202.144531 21.699219 201.902344 21.789062 C 201.648438 21.878906 201.460938 21.921875 201.339844 21.921875 C 201.109375 21.859375 200.878906 21.804688 200.660156 21.773438 C 200.441406 21.734375 200.230469 21.71875 200.035156 21.71875 C 199.660156 21.71875 199.332031 21.757812 199.066406 21.839844 C 198.804688 21.921875 198.671875 22.019531 198.671875 22.140625 C 198.671875 22.234375 198.75 22.316406 198.914062 22.390625 C 199.066406 22.464844 199.277344 22.511719 199.515625 22.53125 C 199.308594 22.574219 199.101562 22.609375 198.925781 22.628906 C 198.738281 22.652344 198.574219 22.664062 198.429688 22.664062 L 231.65625 22.664062 C 231.425781 22.613281 231.238281 22.554688 231.097656 22.480469 C 230.964844 22.402344 230.886719 22.324219 230.886719 22.242188 C 230.886719 22.050781 231.238281 21.867188 231.921875 21.703125 C 232.613281 21.535156 233.359375 21.453125 234.171875 21.453125 C 234.613281 21.453125 234.996094 21.464844 235.335938 21.488281 C 235.679688 21.507812 235.953125 21.542969 236.160156 21.585938 C 236.160156 21.632812 236.039062 21.699219 235.796875 21.789062 C 235.558594 21.878906 235.371094 21.921875 235.238281 21.921875 C 235.007812 21.859375 234.800781 21.804688 234.625 21.773438 C 234.449219 21.734375 234.292969 21.71875 234.171875 21.71875 C 233.886719 21.71875 233.632812 21.746094 233.425781 21.800781 C 233.21875 21.859375 233.117188 21.925781 233.117188 22.007812 C 233.117188 22.078125 233.195312 22.152344 233.359375 22.230469 C 233.523438 22.308594 233.746094 22.375 234.019531 22.429688 L 232.273438 22.664062 L 250.351562 22.664062 L 250.351562 22.980469 L 243.816406 22.980469 C 243.882812 23.007812 243.949219 23.039062 243.980469 23.066406 C 244.015625 23.09375 244.035156 23.117188 244.035156 23.140625 C 244.035156 23.230469 243.761719 23.320312 243.210938 23.402344 C 242.664062 23.484375 241.949219 23.554688 241.070312 23.613281 C 240.203125 23.660156 239.488281 23.757812 238.929688 23.898438 C 238.371094 24.039062 238.082031 24.191406 238.082031 24.351562 C 238.082031 24.460938 238.183594 24.554688 238.390625 24.632812 C 238.597656 24.714844 238.851562 24.761719 239.160156 24.773438 C 239.105469 24.738281 239.074219 24.695312 239.039062 24.644531 C 239.015625 24.589844 239.003906 24.527344 239.003906 24.457031 C 239.003906 24.292969 239.3125 24.15625 239.941406 24.042969 C 240.566406 23.929688 241.324219 23.875 242.214844 23.875 C 243.058594 23.875 243.773438 23.925781 244.367188 24.027344 C 244.960938 24.128906 245.257812 24.253906 245.257812 24.398438 C 245.257812 24.558594 244.914062 24.695312 244.234375 24.808594 C 243.554688 24.925781 242.71875 24.980469 241.75 24.980469 C 241.9375 25.09375 242.214844 25.183594 242.566406 25.25 C 242.914062 25.3125 243.3125 25.34375 243.730469 25.34375 C 243.980469 25.34375 244.234375 25.332031 244.496094 25.296875 C 244.378906 25.367188 244.113281 25.4375 243.707031 25.507812 C 243.300781 25.574219 242.960938 25.609375 242.675781 25.609375 C 241.871094 25.609375 241.179688 25.554688 240.566406 25.453125 C 239.960938 25.351562 239.535156 25.210938 239.300781 25.035156 C 238.082031 25.035156 237.027344 24.964844 236.171875 24.828125 C 235.304688 24.6875 234.875 24.519531 234.875 24.324219 C 234.875 24.148438 235.226562 23.988281 235.941406 23.835938 C 236.644531 23.679688 237.546875 23.574219 238.621094 23.507812 C 239.335938 23.464844 239.90625 23.410156 240.335938 23.34375 C 240.773438 23.28125 240.984375 23.210938 240.984375 23.140625 C 240.984375 23.097656 240.949219 23.058594 240.871094 23.027344 C 240.808594 22.996094 240.707031 22.980469 240.609375 22.980469 L 216.90625 22.980469 C 217.367188 23.039062 217.730469 23.132812 218.015625 23.253906 C 218.289062 23.378906 218.433594 23.515625 218.433594 23.667969 C 218.433594 23.835938 218.046875 24 217.265625 24.160156 C 216.488281 24.320312 215.511719 24.433594 214.324219 24.511719 C 214.664062 24.53125 215.015625 24.5625 215.355469 24.613281 C 215.699219 24.660156 216.003906 24.71875 216.300781 24.792969 C 216.554688 24.855469 216.785156 24.902344 216.992188 24.933594 C 217.203125 24.964844 217.378906 24.980469 217.53125 24.980469 C 217.6875 24.980469 217.839844 24.976562 217.992188 24.964844 C 218.136719 24.957031 218.289062 24.945312 218.433594 24.925781 L 218.585938 24.980469 C 218.367188 25.113281 218.113281 25.214844 217.816406 25.289062 C 217.519531 25.363281 217.214844 25.402344 216.90625 25.402344 C 216.453125 25.402344 216.003906 25.371094 215.554688 25.3125 C 215.113281 25.257812 214.699219 25.171875 214.324219 25.0625 C 213.875 24.933594 213.480469 24.835938 213.136719 24.765625 C 212.796875 24.695312 212.523438 24.660156 212.335938 24.660156 C 212.304688 24.660156 212.203125 24.679688 212.019531 24.71875 L 212.335938 24.191406 L 213.402344 24.191406 C 213.949219 24.191406 214.421875 24.128906 214.808594 24.007812 C 215.191406 23.878906 215.390625 23.730469 215.390625 23.554688 C 215.390625 23.445312 215.238281 23.339844 214.929688 23.234375 C 214.621094 23.125 214.214844 23.042969 213.699219 22.980469 L 205.4375 22.980469 L 207.414062 24.296875 C 207.535156 24.257812 207.691406 24.152344 207.875 23.976562 L 207.953125 23.21875 C 208.261719 23.15625 208.65625 23.109375 209.117188 23.078125 C 209.578125 23.046875 210.117188 23.027344 210.710938 23.027344 C 210.601562 23.445312 210.546875 24.183594 210.546875 25.242188 C 209.699219 25.347656 208.910156 25.402344 208.183594 25.402344 C 208.074219 25.402344 207.984375 25.386719 207.910156 25.355469 C 207.832031 25.324219 207.800781 25.285156 207.800781 25.242188 L 207.875 24.457031 C 207.523438 24.667969 207.0625 24.832031 206.492188 24.957031 C 205.910156 25.078125 205.304688 25.140625 204.667969 25.140625 C 203.746094 25.140625 202.96875 25.046875 202.308594 24.863281 C 201.648438 24.679688 201.320312 24.457031 201.320312 24.191406 C 201.320312 23.972656 201.394531 23.761719 201.550781 23.554688 C 201.703125 23.351562 201.933594 23.160156 202.230469 22.980469 L 194.605469 22.980469 C 195.011719 23.015625 195.34375 23.078125 195.597656 23.167969 C 195.847656 23.253906 195.980469 23.347656 195.980469 23.453125 C 195.980469 23.671875 195.652344 23.859375 195.011719 24.011719 C 194.375 24.164062 193.609375 24.238281 192.707031 24.238281 C 192.707031 24.402344 192.871094 24.539062 193.210938 24.652344 C 193.554688 24.765625 193.960938 24.820312 194.453125 24.820312 C 194.9375 24.820312 195.421875 24.742188 195.882812 24.589844 C 196.34375 24.433594 196.707031 24.230469 196.980469 23.976562 L 197.058594 23.21875 C 197.320312 23.164062 197.683594 23.125 198.15625 23.097656 C 198.617188 23.070312 199.164062 23.058594 199.804688 23.058594 C 199.691406 23.472656 199.636719 24.203125 199.636719 25.242188 C 198.792969 25.347656 197.980469 25.402344 197.199219 25.402344 C 197.113281 25.402344 197.046875 25.386719 196.980469 25.355469 C 196.925781 25.324219 196.890625 25.285156 196.890625 25.242188 L 196.890625 24.613281 C 196.5625 24.808594 196.132812 24.957031 195.585938 25.074219 C 195.046875 25.1875 194.464844 25.242188 193.851562 25.242188 C 192.664062 25.242188 191.652344 25.140625 190.816406 24.9375 C 189.984375 24.730469 189.566406 24.484375 189.566406 24.191406 C 189.566406 24.148438 189.621094 24.109375 189.742188 24.078125 C 189.863281 24.046875 190.015625 24.035156 190.179688 24.035156 C 190.9375 24.035156 191.585938 23.976562 192.125 23.863281 C 192.664062 23.75 192.925781 23.613281 192.925781 23.453125 C 192.925781 23.335938 192.828125 23.234375 192.632812 23.144531 C 192.421875 23.054688 192.167969 23 191.863281 22.980469 L 153.273438 22.980469 C 153.734375 23.039062 154.097656 23.132812 154.382812 23.253906 C 154.65625 23.378906 154.800781 23.515625 154.800781 23.667969 C 154.800781 23.835938 154.417969 24 153.636719 24.160156 C 152.855469 24.320312 151.878906 24.433594 150.691406 24.511719 C 151.042969 24.53125 151.382812 24.5625 151.726562 24.613281 C 152.066406 24.660156 152.375 24.71875 152.667969 24.792969 C 152.933594 24.855469 153.152344 24.902344 153.363281 24.933594 C 153.570312 24.964844 153.746094 24.980469 153.898438 24.980469 C 154.054688 24.980469 154.207031 24.976562 154.363281 24.964844 C 154.503906 24.957031 154.65625 24.945312 154.800781 24.925781 L 154.964844 24.980469 C 154.734375 25.113281 154.480469 25.214844 154.1875 25.289062 C 153.890625 25.363281 153.582031 25.402344 153.273438 25.402344 C 152.824219 25.402344 152.375 25.371094 151.921875 25.3125 C 151.484375 25.257812 151.066406 25.171875 150.691406 25.0625 C 150.242188 24.933594 149.847656 24.835938 149.507812 24.765625 C 149.164062 24.695312 148.890625 24.660156 148.703125 24.660156 C 148.671875 24.660156 148.570312 24.679688 148.386719 24.71875 L 148.703125 24.191406 L 149.769531 24.191406 C 150.320312 24.191406 150.792969 24.128906 151.175781 24.007812 C 151.558594 23.878906 151.757812 23.730469 151.757812 23.554688 C 151.757812 23.445312 151.605469 23.339844 151.296875 23.234375 C 150.988281 23.125 150.582031 23.042969 150.066406 22.980469 L 148.054688 22.980469 L 148.054688 22.664062 L 198.429688 22.664062 C 198.011719 22.664062 197.640625 22.644531 197.320312 22.609375 C 197 22.574219 196.769531 22.519531 196.605469 22.457031 L 195.167969 21.980469 C 195.003906 21.914062 194.792969 21.859375 194.542969 21.828125 C 194.289062 21.789062 194.015625 21.773438 193.707031 21.773438 C 193.300781 21.773438 193.101562 21.761719 193.101562 21.746094 Z M 214.796875 18.574219 C 214.796875 18.660156 214.828125 18.738281 214.886719 18.796875 C 214.949219 18.859375 215.015625 18.890625 215.105469 18.890625 C 215.300781 18.890625 215.402344 18.660156 215.402344 18.207031 L 215.347656 17.914062 C 215.167969 17.96875 215.039062 18.050781 214.941406 18.164062 C 214.851562 18.28125 214.796875 18.417969 214.796875 18.574219 Z M 234.085938 18.945312 C 234.085938 18.695312 234.425781 18.453125 235.09375 18.21875 C 235.765625 17.980469 236.65625 17.792969 237.753906 17.652344 C 237.753906 17.363281 237.6875 17.125 237.554688 16.9375 C 237.425781 16.746094 237.238281 16.652344 236.996094 16.652344 C 236.820312 16.652344 236.675781 16.683594 236.558594 16.753906 C 236.4375 16.820312 236.371094 16.902344 236.371094 16.996094 C 236.371094 17.09375 236.492188 17.171875 236.710938 17.234375 C 236.941406 17.304688 237.214844 17.335938 237.535156 17.335938 C 237.269531 17.464844 236.929688 17.570312 236.535156 17.644531 C 236.140625 17.71875 235.734375 17.757812 235.304688 17.757812 C 234.886719 17.757812 234.523438 17.71875 234.226562 17.644531 C 233.929688 17.566406 233.789062 17.472656 233.789062 17.363281 C 233.789062 17.140625 234.160156 16.9375 234.910156 16.75 C 235.667969 16.5625 236.480469 16.46875 237.371094 16.46875 C 238.214844 16.46875 238.941406 16.554688 239.535156 16.726562 C 240.125 16.894531 240.421875 17.097656 240.421875 17.335938 C 241.027344 17.214844 241.574219 17.125 242.082031 17.0625 C 242.597656 17 243.035156 16.96875 243.398438 16.96875 C 243.617188 16.96875 243.792969 16.992188 243.949219 17.039062 C 244.089844 17.082031 244.167969 17.140625 244.167969 17.203125 C 244.113281 17.410156 244.089844 18.0625 244.089844 19.152344 C 243.664062 19.203125 243.234375 19.246094 242.816406 19.273438 C 242.390625 19.300781 241.972656 19.3125 241.566406 19.3125 C 241.476562 19.3125 241.398438 19.296875 241.34375 19.265625 C 241.289062 19.234375 241.257812 19.199219 241.257812 19.152344 L 241.34375 17.652344 C 241.34375 17.621094 241.3125 17.597656 241.257812 17.578125 C 241.191406 17.558594 241.125 17.546875 241.039062 17.546875 C 240.960938 17.546875 240.871094 17.554688 240.773438 17.566406 C 240.664062 17.582031 240.542969 17.601562 240.421875 17.625 C 240.421875 18.105469 239.960938 18.519531 239.050781 18.859375 C 238.148438 19.199219 237.050781 19.367188 235.765625 19.367188 C 235.304688 19.367188 234.910156 19.328125 234.578125 19.246094 C 234.25 19.164062 234.085938 19.0625 234.085938 18.945312 Z M 236.90625 18.835938 C 236.90625 18.878906 236.929688 18.917969 236.972656 18.945312 C 237.019531 18.980469 237.074219 18.996094 237.140625 18.996094 C 237.371094 18.996094 237.523438 18.90625 237.621094 18.730469 C 237.710938 18.554688 237.753906 18.308594 237.753906 17.996094 C 237.492188 18.050781 237.28125 18.148438 237.140625 18.300781 C 236.984375 18.449219 236.90625 18.628906 236.90625 18.835938 Z M 29.710938 25.195312 C 29.710938 24.214844 29.757812 23.539062 29.855469 23.160156 C 30.359375 23.058594 31.273438 23.007812 32.601562 23.007812 C 32.5 23.382812 32.457031 24.128906 32.457031 25.242188 C 31.613281 25.347656 30.898438 25.402344 30.316406 25.402344 C 30.140625 25.402344 29.996094 25.378906 29.886719 25.339844 C 29.765625 25.300781 29.710938 25.25 29.710938 25.195312 Z M 33.851562 24.746094 C 33.851562 24.273438 34.722656 23.871094 36.457031 23.535156 C 38.191406 23.199219 40.277344 23.027344 42.707031 23.027344 C 43.003906 23.027344 43.253906 23.058594 43.464844 23.117188 C 43.671875 23.171875 43.773438 23.238281 43.773438 23.320312 C 43.660156 23.734375 43.617188 24.386719 43.617188 25.269531 C 43.398438 25.3125 43.089844 25.34375 42.671875 25.367188 C 42.265625 25.390625 41.773438 25.402344 41.191406 25.402344 C 41.101562 25.402344 41.027344 25.390625 40.960938 25.371094 C 40.90625 25.351562 40.871094 25.324219 40.871094 25.296875 C 40.871094 24.449219 40.914062 23.816406 41.027344 23.402344 C 40.597656 23.417969 40.167969 23.445312 39.761719 23.492188 C 39.34375 23.535156 38.949219 23.59375 38.585938 23.667969 C 38.871094 23.722656 39.09375 23.808594 39.257812 23.917969 C 39.421875 24.03125 39.5 24.15625 39.5 24.296875 C 39.5 24.621094 39.191406 24.898438 38.566406 25.128906 C 37.9375 25.363281 37.179688 25.476562 36.292969 25.476562 C 35.554688 25.476562 34.960938 25.414062 34.523438 25.277344 C 34.074219 25.144531 33.851562 24.964844 33.851562 24.746094 Z M 36.839844 24.613281 C 36.839844 24.746094 36.882812 24.855469 36.984375 24.945312 C 37.082031 25.039062 37.214844 25.082031 37.355469 25.082031 C 37.652344 25.082031 37.90625 25 38.125 24.835938 C 38.335938 24.671875 38.445312 24.476562 38.445312 24.238281 C 38.445312 24.148438 38.378906 24.066406 38.269531 23.992188 C 38.160156 23.917969 38.015625 23.859375 37.816406 23.824219 C 37.511719 23.898438 37.269531 24.003906 37.09375 24.144531 C 36.929688 24.285156 36.839844 24.441406 36.839844 24.613281 Z M 45.34375 22.402344 C 45.34375 22.195312 45.945312 21.984375 47.132812 21.773438 C 48.332031 21.558594 49.515625 21.453125 50.691406 21.453125 C 51.824219 21.453125 52.878906 21.535156 53.855469 21.699219 C 54.820312 21.859375 55.601562 22.085938 56.183594 22.375 C 56.007812 22.445312 55.691406 22.503906 55.25 22.546875 C 54.800781 22.585938 54.273438 22.609375 53.65625 22.609375 C 53.371094 22.34375 52.945312 22.125 52.371094 21.960938 C 51.800781 21.800781 51.1875 21.71875 50.539062 21.71875 C 50.023438 21.71875 49.515625 21.804688 49.011719 21.980469 C 48.507812 22.152344 48.253906 22.328125 48.253906 22.507812 C 48.253906 22.539062 48.285156 22.566406 48.351562 22.597656 C 48.417969 22.628906 48.515625 22.648438 48.625 22.664062 L 78.183594 22.664062 L 78.183594 22.980469 L 64.816406 22.980469 C 64.585938 23.007812 64.398438 23.058594 64.269531 23.125 C 64.125 23.191406 64.058594 23.265625 64.058594 23.347656 C 64.058594 23.421875 64.160156 23.488281 64.367188 23.546875 C 64.574219 23.605469 64.828125 23.648438 65.136719 23.667969 C 65.355469 23.679688 65.542969 23.703125 65.683594 23.730469 C 65.828125 23.761719 65.894531 23.789062 65.894531 23.824219 C 65.894531 23.859375 65.828125 23.898438 65.695312 23.945312 C 65.554688 23.992188 65.367188 24.039062 65.125 24.089844 C 64.75 24.160156 64.453125 24.246094 64.234375 24.339844 C 64.027344 24.433594 63.917969 24.523438 63.917969 24.613281 C 63.917969 24.65625 63.992188 24.691406 64.136719 24.726562 C 64.28125 24.753906 64.464844 24.773438 64.675781 24.773438 C 65.070312 24.773438 65.488281 24.691406 65.949219 24.527344 C 66.398438 24.367188 66.816406 24.148438 67.179688 23.875 L 67.179688 24.457031 C 66.75 24.714844 66.179688 24.917969 65.488281 25.070312 C 64.785156 25.222656 64.058594 25.296875 63.289062 25.296875 C 62.578125 25.296875 61.960938 25.242188 61.457031 25.128906 C 60.960938 25.015625 60.710938 24.875 60.710938 24.71875 C 60.710938 24.582031 60.832031 24.457031 61.082031 24.335938 C 61.324219 24.21875 61.664062 24.125 62.070312 24.0625 C 62.796875 23.941406 63.148438 23.878906 63.148438 23.875 C 63.148438 23.851562 62.894531 23.816406 62.390625 23.769531 C 61.941406 23.726562 61.566406 23.667969 61.28125 23.59375 C 60.996094 23.511719 60.851562 23.429688 60.851562 23.347656 C 60.851562 23.28125 60.917969 23.21875 61.0625 23.152344 C 61.191406 23.085938 61.378906 23.027344 61.632812 22.980469 L 28.679688 22.980469 L 28.679688 22.664062 L 30.007812 22.664062 C 29.867188 22.621094 29.746094 22.574219 29.667969 22.527344 C 29.589844 22.484375 29.546875 22.441406 29.546875 22.402344 C 29.546875 22.195312 30.152344 21.984375 31.347656 21.773438 C 32.535156 21.558594 33.722656 21.453125 34.894531 21.453125 C 36.027344 21.453125 37.082031 21.535156 38.058594 21.699219 C 39.039062 21.859375 39.804688 22.085938 40.390625 22.375 C 40.210938 22.445312 39.90625 22.503906 39.453125 22.546875 C 39.015625 22.585938 38.476562 22.609375 37.875 22.609375 C 37.585938 22.34375 37.160156 22.125 36.589844 21.960938 C 36.015625 21.800781 35.402344 21.71875 34.742188 21.71875 C 34.238281 21.71875 33.722656 21.804688 33.214844 21.980469 C 32.710938 22.152344 32.457031 22.328125 32.457031 22.507812 C 32.457031 22.539062 32.492188 22.566406 32.558594 22.597656 C 32.621094 22.628906 32.722656 22.648438 32.832031 22.664062 L 45.804688 22.664062 C 45.660156 22.621094 45.539062 22.574219 45.464844 22.527344 C 45.386719 22.484375 45.34375 22.441406 45.34375 22.402344 Z M 45.507812 25.195312 C 45.507812 24.214844 45.550781 23.539062 45.648438 23.160156 C 46.15625 23.058594 47.066406 23.007812 48.394531 23.007812 C 48.296875 23.382812 48.253906 24.128906 48.253906 25.242188 C 47.40625 25.347656 46.683594 25.402344 46.113281 25.402344 C 45.9375 25.402344 45.792969 25.378906 45.671875 25.339844 C 45.5625 25.300781 45.507812 25.25 45.507812 25.195312 Z M 49.648438 24.457031 C 49.648438 24.101562 50.085938 23.804688 50.988281 23.558594 C 51.878906 23.3125 52.953125 23.1875 54.21875 23.1875 C 54.65625 23.1875 55.0625 23.226562 55.402344 23.304688 C 55.753906 23.382812 55.996094 23.484375 56.140625 23.613281 C 56.019531 23.578125 55.875 23.550781 55.710938 23.535156 C 55.535156 23.515625 55.347656 23.507812 55.140625 23.507812 C 54.546875 23.507812 54.042969 23.582031 53.625 23.734375 C 53.21875 23.890625 53.007812 24.074219 53.007812 24.296875 C 53.007812 24.382812 53.109375 24.457031 53.316406 24.519531 C 53.527344 24.582031 53.777344 24.613281 54.074219 24.613281 C 54.679688 24.613281 55.238281 24.46875 55.746094 24.183594 C 56.261719 23.898438 56.511719 23.582031 56.511719 23.246094 C 56.820312 23.183594 57.214844 23.136719 57.679688 23.105469 C 58.140625 23.074219 58.675781 23.058594 59.257812 23.058594 C 59.160156 23.472656 59.105469 24.203125 59.105469 25.242188 C 58.261719 25.347656 57.445312 25.402344 56.65625 25.402344 C 56.578125 25.402344 56.503906 25.386719 56.449219 25.355469 C 56.394531 25.324219 56.359375 25.285156 56.359375 25.242188 L 56.4375 24.296875 C 55.953125 24.585938 55.316406 24.816406 54.546875 24.988281 C 53.765625 25.15625 52.945312 25.242188 52.085938 25.242188 C 51.417969 25.242188 50.835938 25.167969 50.363281 25.011719 C 49.878906 24.859375 49.648438 24.671875 49.648438 24.457031 Z M 56.511719 22.242188 C 56.511719 22.050781 56.863281 21.867188 57.546875 21.703125 C 58.238281 21.535156 58.984375 21.453125 59.808594 21.453125 C 60.238281 21.453125 60.621094 21.464844 60.960938 21.488281 C 61.300781 21.507812 61.578125 21.542969 61.785156 21.585938 C 61.785156 21.632812 61.664062 21.699219 61.421875 21.789062 C 61.183594 21.878906 60.996094 21.921875 60.863281 21.921875 C 60.632812 21.859375 60.421875 21.804688 60.25 21.773438 C 60.074219 21.734375 59.917969 21.71875 59.808594 21.71875 C 59.511719 21.71875 59.257812 21.746094 59.050781 21.800781 C 58.84375 21.859375 58.742188 21.925781 58.742188 22.007812 C 58.742188 22.078125 58.820312 22.152344 58.984375 22.230469 C 59.148438 22.308594 59.371094 22.375 59.644531 22.429688 L 57.898438 22.664062 L 57.28125 22.664062 C 57.050781 22.613281 56.863281 22.554688 56.722656 22.480469 C 56.589844 22.402344 56.511719 22.324219 56.511719 22.242188 Z M 67.3125 24.746094 C 67.3125 24.273438 68.179688 23.871094 69.914062 23.535156 C 71.648438 23.199219 73.738281 23.027344 76.164062 23.027344 C 76.460938 23.027344 76.714844 23.058594 76.921875 23.117188 C 77.132812 23.171875 77.230469 23.238281 77.230469 23.320312 C 77.132812 23.734375 77.074219 24.386719 77.074219 25.269531 C 76.855469 25.3125 76.546875 25.34375 76.132812 25.367188 C 75.726562 25.390625 75.230469 25.402344 74.648438 25.402344 C 74.5625 25.402344 74.484375 25.390625 74.417969 25.371094 C 74.363281 25.351562 74.328125 25.324219 74.328125 25.296875 C 74.328125 24.449219 74.382812 23.816406 74.484375 23.402344 C 74.054688 23.417969 73.628906 23.445312 73.21875 23.492188 C 72.804688 23.535156 72.40625 23.59375 72.046875 23.667969 C 72.332031 23.722656 72.550781 23.808594 72.714844 23.917969 C 72.878906 24.03125 72.957031 24.15625 72.957031 24.296875 C 72.957031 24.621094 72.648438 24.898438 72.023438 25.128906 C 71.398438 25.363281 70.640625 25.476562 69.761719 25.476562 C 69.011719 25.476562 68.421875 25.414062 67.980469 25.277344 C 67.53125 25.144531 67.3125 24.964844 67.3125 24.746094 Z M 70.296875 24.613281 C 70.296875 24.746094 70.34375 24.855469 70.441406 24.945312 C 70.550781 25.039062 70.671875 25.082031 70.816406 25.082031 C 71.113281 25.082031 71.363281 25 71.582031 24.835938 C 71.792969 24.671875 71.902344 24.476562 71.902344 24.238281 C 71.902344 24.148438 71.847656 24.066406 71.726562 23.992188 C 71.617188 23.917969 71.472656 23.859375 71.277344 23.824219 C 70.96875 23.898438 70.726562 24.003906 70.550781 24.144531 C 70.386719 24.285156 70.296875 24.441406 70.296875 24.613281 Z M 74.648438 21.792969 C 74.648438 21.675781 74.757812 21.574219 75 21.496094 C 75.242188 21.414062 75.527344 21.371094 75.867188 21.371094 C 76.207031 21.371094 76.492188 21.414062 76.734375 21.496094 C 76.964844 21.574219 77.085938 21.675781 77.085938 21.792969 C 77.085938 21.910156 76.964844 22.011719 76.734375 22.09375 C 76.492188 22.179688 76.207031 22.21875 75.867188 22.21875 C 75.527344 22.21875 75.242188 22.179688 75 22.09375 C 74.757812 22.011719 74.648438 21.910156 74.648438 21.792969 Z M 83.359375 24.429688 C 83.359375 24.101562 83.753906 23.824219 84.566406 23.59375 C 85.371094 23.359375 86.347656 23.246094 87.488281 23.246094 C 87.929688 23.246094 88.355469 23.285156 88.773438 23.367188 C 89.179688 23.449219 89.410156 23.539062 89.464844 23.640625 C 89.355469 23.605469 89.214844 23.578125 89.058594 23.5625 C 88.894531 23.542969 88.730469 23.535156 88.542969 23.535156 C 87.960938 23.535156 87.457031 23.621094 87.027344 23.792969 C 86.609375 23.964844 86.402344 24.175781 86.402344 24.429688 C 86.402344 24.539062 86.511719 24.628906 86.71875 24.707031 C 86.941406 24.78125 87.191406 24.820312 87.488281 24.820312 C 88.203125 24.820312 88.816406 24.660156 89.324219 24.335938 C 89.816406 24.015625 90.070312 23.621094 90.070312 23.160156 C 90.574219 23.058594 91.5 23.007812 92.816406 23.007812 C 92.730469 23.382812 92.671875 23.804688 92.671875 24.265625 C 92.894531 24.054688 93.246094 23.878906 93.726562 23.75 C 94.199219 23.621094 94.714844 23.554688 95.265625 23.554688 C 96.023438 23.554688 96.671875 23.679688 97.210938 23.925781 C 97.738281 24.171875 98.011719 24.46875 98.011719 24.820312 C 98.011719 24.933594 97.671875 25.042969 96.992188 25.148438 C 96.320312 25.25 95.429688 25.335938 94.34375 25.402344 C 94.484375 25.257812 94.605469 25.105469 94.683594 24.957031 C 94.761719 24.808594 94.804688 24.660156 94.804688 24.511719 C 94.804688 24.394531 94.75 24.292969 94.628906 24.210938 C 94.507812 24.128906 94.367188 24.089844 94.199219 24.089844 C 93.773438 24.089844 93.421875 24.199219 93.125 24.429688 C 92.828125 24.652344 92.671875 24.925781 92.671875 25.242188 C 91.828125 25.347656 91.015625 25.402344 90.234375 25.402344 C 90.148438 25.402344 90.070312 25.390625 90.015625 25.371094 C 89.960938 25.351562 89.925781 25.324219 89.925781 25.296875 L 89.992188 24.398438 C 89.730469 24.652344 89.234375 24.855469 88.523438 25.011719 C 87.808594 25.164062 87.003906 25.242188 86.105469 25.242188 C 85.347656 25.242188 84.699219 25.164062 84.160156 25.003906 C 83.621094 24.84375 83.359375 24.652344 83.359375 24.429688 Z M 84.796875 26.011719 C 84.796875 25.929688 85.039062 25.851562 85.523438 25.773438 C 86.007812 25.699219 86.621094 25.636719 87.390625 25.589844 C 87.390625 25.789062 87.699219 25.992188 88.3125 26.199219 C 88.9375 26.40625 89.542969 26.507812 90.148438 26.507812 C 90.476562 26.507812 90.761719 26.464844 91.003906 26.382812 C 91.234375 26.304688 91.355469 26.203125 91.355469 26.085938 C 91.355469 25.992188 91.300781 25.910156 91.179688 25.839844 C 91.070312 25.773438 90.925781 25.738281 90.75 25.738281 C 90.542969 25.738281 90.367188 25.777344 90.214844 25.851562 C 90.070312 25.921875 89.992188 26.011719 89.992188 26.113281 C 89.839844 26.105469 89.695312 26.085938 89.554688 26.050781 C 89.410156 26.019531 89.28125 25.976562 89.148438 25.929688 C 89.324219 25.769531 89.621094 25.644531 90.058594 25.546875 C 90.488281 25.449219 90.972656 25.402344 91.519531 25.402344 C 92.234375 25.402344 92.847656 25.457031 93.355469 25.570312 C 93.871094 25.683594 94.125 25.820312 94.125 25.984375 C 94.125 26.1875 93.726562 26.359375 92.960938 26.5 C 92.191406 26.644531 91.257812 26.714844 90.148438 26.714844 C 88.863281 26.714844 87.742188 26.652344 86.785156 26.527344 C 85.832031 26.402344 85.171875 26.226562 84.796875 26.011719 Z M 112.773438 24.660156 C 112.773438 24.75 112.796875 24.824219 112.863281 24.886719 C 112.917969 24.949219 112.984375 24.980469 113.070312 24.980469 C 113.269531 24.980469 113.378906 24.753906 113.378906 24.296875 L 113.3125 24.007812 C 113.136719 24.054688 113.003906 24.140625 112.917969 24.253906 C 112.820312 24.367188 112.773438 24.503906 112.773438 24.660156 Z M 113.226562 21.746094 C 113.226562 21.730469 113.257812 21.714844 113.3125 21.699219 C 113.355469 21.683594 113.433594 21.671875 113.53125 21.660156 L 115.378906 21.5 C 115.640625 21.46875 115.9375 21.453125 116.277344 21.453125 C 116.398438 21.453125 116.554688 21.472656 116.71875 21.507812 C 116.882812 21.542969 117.035156 21.597656 117.203125 21.660156 L 118.71875 22.1875 C 118.902344 22.261719 119.136719 22.324219 119.429688 22.371094 C 119.71875 22.417969 120.046875 22.445312 120.410156 22.457031 C 120.070312 22.527344 119.738281 22.578125 119.429688 22.613281 C 119.113281 22.648438 118.828125 22.664062 118.5625 22.664062 C 118.136719 22.664062 117.773438 22.644531 117.453125 22.609375 C 117.136719 22.574219 116.894531 22.519531 116.738281 22.457031 L 115.289062 21.980469 C 115.136719 21.914062 114.925781 21.859375 114.675781 21.828125 C 114.421875 21.789062 114.136719 21.773438 113.828125 21.773438 C 113.433594 21.773438 113.226562 21.761719 113.226562 21.746094 Z M 127.878906 24.71875 C 128.328125 24.691406 128.691406 24.640625 128.988281 24.558594 C 129.273438 24.476562 129.414062 24.390625 129.414062 24.296875 C 129.414062 24.265625 129.394531 24.242188 129.328125 24.222656 C 129.261719 24.203125 129.183594 24.191406 129.109375 24.191406 C 128.734375 24.191406 128.4375 24.238281 128.21875 24.332031 C 127.988281 24.429688 127.878906 24.558594 127.878906 24.71875 Z M 124.273438 21.746094 C 124.273438 21.730469 124.308594 21.714844 124.351562 21.699219 C 124.40625 21.683594 124.484375 21.671875 124.582031 21.660156 L 126.417969 21.5 C 126.679688 21.46875 126.988281 21.453125 127.328125 21.453125 C 127.449219 21.453125 127.59375 21.472656 127.757812 21.507812 C 127.921875 21.542969 128.085938 21.597656 128.242188 21.660156 L 129.765625 22.1875 C 129.953125 22.261719 130.183594 22.324219 130.46875 22.371094 C 130.765625 22.417969 131.097656 22.445312 131.449219 22.457031 C 131.117188 22.527344 130.789062 22.578125 130.46875 22.613281 C 130.164062 22.648438 129.878906 22.664062 129.613281 22.664062 C 129.183594 22.664062 128.8125 22.644531 128.503906 22.609375 C 128.1875 22.574219 127.945312 22.519531 127.777344 22.457031 L 126.339844 21.980469 C 126.1875 21.914062 125.976562 21.859375 125.726562 21.828125 C 125.472656 21.789062 125.1875 21.773438 124.878906 21.773438 C 124.472656 21.773438 124.273438 21.761719 124.273438 21.746094 Z M 131.820312 22.664062 L 142.925781 22.664062 L 142.925781 22.980469 L 130.109375 22.980469 C 130.175781 23.007812 130.230469 23.039062 130.273438 23.066406 C 130.304688 23.09375 130.328125 23.117188 130.328125 23.140625 C 130.328125 23.230469 130.054688 23.320312 129.503906 23.402344 C 128.953125 23.484375 128.242188 23.554688 127.363281 23.613281 C 126.492188 23.660156 125.78125 23.757812 125.207031 23.898438 C 124.648438 24.039062 124.375 24.191406 124.375 24.351562 C 124.375 24.460938 124.472656 24.554688 124.683594 24.632812 C 124.890625 24.714844 125.144531 24.761719 125.449219 24.773438 C 125.394531 24.738281 125.363281 24.695312 125.328125 24.644531 C 125.308594 24.589844 125.296875 24.527344 125.296875 24.457031 C 125.296875 24.292969 125.605469 24.15625 126.230469 24.042969 C 126.855469 23.929688 127.613281 23.875 128.503906 23.875 C 129.351562 23.875 130.0625 23.925781 130.65625 24.027344 C 131.25 24.128906 131.546875 24.253906 131.546875 24.398438 C 131.546875 24.558594 131.207031 24.695312 130.527344 24.808594 C 129.84375 24.925781 129.007812 24.980469 128.042969 24.980469 C 128.230469 25.09375 128.503906 25.183594 128.855469 25.25 C 129.207031 25.3125 129.601562 25.34375 130.019531 25.34375 C 130.273438 25.34375 130.527344 25.332031 130.789062 25.296875 C 130.667969 25.367188 130.40625 25.4375 130 25.507812 C 129.589844 25.574219 129.25 25.609375 128.964844 25.609375 C 128.164062 25.609375 127.460938 25.554688 126.855469 25.453125 C 126.253906 25.351562 125.824219 25.210938 125.59375 25.035156 C 124.363281 25.035156 123.320312 24.964844 122.464844 24.828125 C 121.59375 24.6875 121.167969 24.519531 121.167969 24.324219 C 121.167969 24.148438 121.519531 23.988281 122.234375 23.835938 C 122.933594 23.679688 123.835938 23.574219 124.914062 23.507812 C 125.625 23.464844 126.199219 23.410156 126.625 23.34375 C 127.066406 23.28125 127.273438 23.210938 127.273438 23.140625 C 127.273438 23.097656 127.242188 23.058594 127.164062 23.027344 C 127.085938 22.996094 127 22.980469 126.898438 22.980469 L 115.980469 22.980469 C 116.179688 23.171875 116.277344 23.300781 116.277344 23.375 C 117.617188 23.253906 118.617188 23.1875 119.265625 23.1875 C 119.453125 23.1875 119.617188 23.210938 119.75 23.253906 C 119.882812 23.292969 119.949219 23.34375 119.949219 23.402344 C 119.894531 23.613281 119.871094 24.222656 119.871094 25.242188 C 119.023438 25.347656 118.234375 25.402344 117.5 25.402344 C 117.398438 25.402344 117.300781 25.386719 117.234375 25.355469 C 117.15625 25.324219 117.125 25.285156 117.125 25.242188 C 117.125 24.363281 117.148438 23.816406 117.203125 23.613281 C 116.925781 23.613281 116.640625 23.628906 116.355469 23.667969 C 116.355469 24.144531 115.980469 24.550781 115.214844 24.890625 C 114.457031 25.230469 113.53125 25.402344 112.46875 25.402344 C 111.785156 25.402344 111.214844 25.339844 110.742188 25.21875 C 110.261719 25.09375 110.027344 24.945312 110.027344 24.773438 C 110.027344 24.511719 110.324219 24.265625 110.917969 24.046875 C 111.523438 23.824219 112.292969 23.671875 113.234375 23.582031 C 113.234375 23.480469 113.171875 23.378906 113.058594 23.273438 C 112.9375 23.171875 112.773438 23.070312 112.542969 22.980469 L 103.183594 22.980469 C 103.636719 23.039062 104.007812 23.121094 104.285156 23.226562 C 104.570312 23.328125 104.710938 23.4375 104.710938 23.554688 C 104.933594 23.480469 105.21875 23.421875 105.558594 23.382812 C 105.898438 23.339844 106.28125 23.320312 106.691406 23.320312 C 107.535156 23.320312 108.261719 23.394531 108.855469 23.546875 C 109.457031 23.695312 109.753906 23.875 109.753906 24.089844 C 109.753906 24.253906 109.546875 24.429688 109.140625 24.605469 C 108.722656 24.78125 108.160156 24.941406 107.457031 25.082031 C 106.128906 24.871094 105.46875 24.773438 105.46875 24.792969 C 105.46875 24.75 105.722656 24.65625 106.226562 24.511719 C 106.4375 24.449219 106.589844 24.382812 106.691406 24.300781 C 106.800781 24.21875 106.855469 24.128906 106.855469 24.035156 C 106.855469 23.945312 106.753906 23.871094 106.578125 23.808594 C 106.402344 23.746094 106.183594 23.714844 105.933594 23.714844 C 105.636719 23.714844 105.292969 23.761719 104.910156 23.851562 C 104.515625 23.941406 104.128906 24.074219 103.722656 24.238281 C 103.722656 24.171875 103.800781 24.070312 103.941406 23.929688 C 103.414062 24.082031 102.546875 24.210938 101.363281 24.324219 C 101.84375 24.351562 102.546875 24.503906 103.480469 24.773438 C 103.832031 24.875 104.175781 24.953125 104.515625 25.003906 C 104.855469 25.058594 105.171875 25.082031 105.46875 25.082031 C 105.042969 25.1875 104.644531 25.261719 104.285156 25.316406 C 103.921875 25.375 103.601562 25.402344 103.339844 25.402344 C 103.085938 25.402344 102.746094 25.359375 102.328125 25.277344 C 101.898438 25.195312 101.425781 25.078125 100.902344 24.925781 C 99.933594 24.648438 99.429688 24.511719 99.375 24.511719 C 99.199219 24.511719 99.035156 24.511719 98.902344 24.523438 C 98.769531 24.53125 98.671875 24.542969 98.617188 24.558594 L 98.914062 24.136719 C 99.671875 24.136719 100.320312 24.082031 100.855469 23.964844 C 101.394531 23.851562 101.660156 23.714844 101.660156 23.554688 C 101.660156 23.421875 101.484375 23.300781 101.140625 23.191406 C 100.800781 23.082031 100.363281 23.015625 99.835938 22.980469 L 82.820312 22.980469 L 82.820312 22.664062 Z M 132.359375 24.457031 C 132.359375 24.101562 132.800781 23.804688 133.699219 23.558594 C 134.589844 23.3125 135.667969 23.1875 136.929688 23.1875 C 137.367188 23.1875 137.765625 23.226562 138.113281 23.304688 C 138.464844 23.382812 138.707031 23.484375 138.851562 23.613281 C 138.730469 23.578125 138.585938 23.550781 138.421875 23.535156 C 138.246094 23.515625 138.058594 23.507812 137.851562 23.507812 C 137.257812 23.507812 136.753906 23.582031 136.335938 23.734375 C 135.929688 23.890625 135.722656 24.074219 135.722656 24.296875 C 135.722656 24.382812 135.820312 24.457031 136.027344 24.519531 C 136.238281 24.582031 136.488281 24.613281 136.785156 24.613281 C 137.390625 24.613281 137.949219 24.46875 138.457031 24.183594 C 138.972656 23.898438 139.226562 23.582031 139.226562 23.246094 C 139.53125 23.183594 139.929688 23.136719 140.390625 23.105469 C 140.851562 23.074219 141.378906 23.058594 141.972656 23.058594 C 141.871094 23.472656 141.816406 24.203125 141.816406 25.242188 C 140.972656 25.347656 140.160156 25.402344 139.367188 25.402344 C 139.289062 25.402344 139.214844 25.386719 139.160156 25.355469 C 139.105469 25.324219 139.070312 25.285156 139.070312 25.242188 L 139.148438 24.296875 C 138.664062 24.585938 138.027344 24.816406 137.246094 24.988281 C 136.476562 25.15625 135.65625 25.242188 134.796875 25.242188 C 134.128906 25.242188 133.546875 25.167969 133.074219 25.011719 C 132.589844 24.859375 132.359375 24.671875 132.359375 24.457031 Z M 154.65625 23.929688 C 154.910156 23.929688 155.183594 23.910156 155.472656 23.875 C 155.757812 23.835938 156.042969 23.78125 156.328125 23.714844 L 156.40625 23.21875 C 156.667969 23.164062 157.03125 23.125 157.503906 23.097656 C 157.964844 23.070312 158.511719 23.058594 159.148438 23.058594 C 159.050781 23.433594 159.007812 24.164062 159.007812 25.242188 C 158.164062 25.347656 157.371094 25.402344 156.644531 25.402344 C 156.535156 25.402344 156.449219 25.386719 156.371094 25.355469 C 156.292969 25.324219 156.261719 25.285156 156.261719 25.242188 L 156.328125 24.089844 C 156.074219 24.136719 155.832031 24.175781 155.589844 24.203125 C 155.359375 24.226562 155.152344 24.238281 154.964844 24.238281 C 154.878906 24.238281 154.800781 24.230469 154.746094 24.210938 C 154.691406 24.191406 154.65625 24.164062 154.65625 24.136719 Z M 241.585938 24.71875 C 242.039062 24.691406 242.398438 24.640625 242.695312 24.558594 C 242.980469 24.476562 243.136719 24.390625 243.136719 24.296875 C 243.136719 24.265625 243.101562 24.242188 243.035156 24.222656 C 242.972656 24.203125 242.894531 24.191406 242.816406 24.191406 C 242.445312 24.191406 242.148438 24.238281 241.929688 24.332031 C 241.695312 24.429688 241.585938 24.558594 241.585938 24.71875 Z M 246.421875 25.296875 C 246.421875 24.265625 246.464844 23.566406 246.5625 23.1875 C 247.089844 23.082031 248.035156 23.027344 249.386719 23.027344 C 249.289062 23.40625 249.242188 24.144531 249.242188 25.242188 C 248.398438 25.347656 247.605469 25.402344 246.871094 25.402344 C 246.75 25.402344 246.640625 25.390625 246.550781 25.371094 C 246.464844 25.351562 246.421875 25.324219 246.421875 25.296875 Z M 29.21875 18.363281 C 29.21875 18.015625 29.667969 17.71875 30.558594 17.46875 C 31.449219 17.222656 32.535156 17.097656 33.789062 17.097656 C 34.238281 17.097656 34.632812 17.140625 34.984375 17.214844 C 35.324219 17.289062 35.578125 17.394531 35.710938 17.519531 C 35.589844 17.488281 35.445312 17.464844 35.28125 17.445312 C 35.117188 17.425781 34.917969 17.417969 34.710938 17.417969 C 34.117188 17.417969 33.613281 17.492188 33.203125 17.648438 C 32.789062 17.800781 32.578125 17.988281 32.578125 18.207031 C 32.578125 18.292969 32.6875 18.371094 32.898438 18.429688 C 33.09375 18.492188 33.347656 18.523438 33.644531 18.523438 C 34.25 18.523438 34.808594 18.378906 35.324219 18.09375 C 35.832031 17.804688 36.09375 17.492188 36.09375 17.152344 C 36.402344 17.09375 36.785156 17.046875 37.246094 17.015625 C 37.71875 16.984375 38.246094 16.96875 38.839844 16.96875 C 38.730469 17.386719 38.675781 18.113281 38.675781 19.152344 C 37.828125 19.257812 37.015625 19.3125 36.238281 19.3125 C 36.148438 19.3125 36.082031 19.296875 36.015625 19.265625 C 35.960938 19.234375 35.929688 19.199219 35.929688 19.152344 L 36.015625 18.207031 C 35.523438 18.5 34.894531 18.730469 34.117188 18.898438 C 33.335938 19.070312 32.523438 19.152344 31.667969 19.152344 C 30.984375 19.152344 30.402344 19.074219 29.933594 18.921875 C 29.460938 18.769531 29.21875 18.585938 29.21875 18.363281 Z M 65.136719 16.574219 L 75.078125 16.574219 L 75.078125 16.890625 L 73.40625 16.890625 C 73.453125 16.910156 73.484375 16.9375 73.507812 16.964844 C 73.539062 16.996094 73.550781 17.03125 73.550781 17.070312 C 73.550781 17.121094 72.5625 17.234375 70.585938 17.417969 C 70.242188 17.449219 69.96875 17.488281 69.761719 17.535156 C 69.539062 17.574219 69.441406 17.617188 69.441406 17.652344 C 69.441406 17.714844 69.585938 17.773438 69.871094 17.820312 C 70.167969 17.867188 70.53125 17.902344 70.957031 17.914062 C 72.023438 17.949219 72.902344 18.027344 73.617188 18.152344 C 74.328125 18.28125 74.691406 18.417969 74.691406 18.574219 C 74.691406 18.777344 74.175781 18.953125 73.132812 19.097656 C 72.089844 19.238281 70.824219 19.3125 69.355469 19.3125 C 68.332031 19.3125 67.300781 19.242188 66.265625 19.101562 C 65.222656 18.960938 64.707031 18.820312 64.707031 18.683594 C 64.707031 18.585938 64.917969 18.496094 65.34375 18.40625 C 65.773438 18.316406 66.324219 18.25 66.992188 18.207031 C 66.9375 18.417969 67.15625 18.601562 67.640625 18.757812 C 68.136719 18.917969 68.726562 18.996094 69.441406 18.996094 C 69.992188 18.996094 70.453125 18.957031 70.835938 18.878906 C 71.230469 18.804688 71.417969 18.710938 71.417969 18.601562 C 71.417969 18.496094 71.113281 18.390625 70.476562 18.289062 C 69.847656 18.1875 69.035156 18.105469 68.058594 18.046875 C 67.488281 18.007812 67.015625 17.953125 66.640625 17.875 C 66.257812 17.796875 66.070312 17.710938 66.070312 17.625 C 66.070312 17.546875 66.3125 17.472656 66.785156 17.40625 C 67.246094 17.335938 67.882812 17.277344 68.671875 17.230469 C 69.835938 17.160156 70.417969 17.085938 70.417969 16.996094 C 70.417969 16.980469 70.410156 16.964844 70.386719 16.945312 C 70.355469 16.929688 70.320312 16.910156 70.277344 16.890625 L 28.679688 16.890625 L 28.679688 16.574219 Z M 46.695312 18.558594 L 46.703125 18.308594 C 46.59375 18.425781 46.429688 18.527344 46.210938 18.621094 C 46.375 18.601562 46.539062 18.582031 46.695312 18.558594 Z M 40.070312 18.335938 C 40.070312 18.011719 40.476562 17.734375 41.277344 17.5 C 42.082031 17.269531 43.058594 17.152344 44.199219 17.152344 C 44.652344 17.152344 45.078125 17.195312 45.484375 17.277344 C 45.902344 17.359375 46.132812 17.449219 46.1875 17.546875 C 46.066406 17.515625 45.9375 17.492188 45.769531 17.472656 C 45.617188 17.453125 45.441406 17.445312 45.265625 17.445312 C 44.671875 17.445312 44.167969 17.53125 43.75 17.703125 C 43.332031 17.878906 43.125 18.089844 43.125 18.335938 C 43.125 18.445312 43.234375 18.539062 43.441406 18.617188 C 43.652344 18.695312 43.902344 18.730469 44.199219 18.730469 C 44.925781 18.730469 45.527344 18.570312 46.035156 18.246094 C 46.539062 17.921875 46.792969 17.535156 46.792969 17.070312 C 47.296875 16.96875 48.210938 16.917969 49.539062 16.917969 C 49.441406 17.296875 49.394531 17.714844 49.394531 18.179688 C 49.617188 17.960938 49.96875 17.792969 50.4375 17.664062 C 50.910156 17.53125 51.429688 17.464844 51.976562 17.464844 C 52.746094 17.464844 53.394531 17.589844 53.921875 17.835938 C 54.460938 18.085938 54.722656 18.382812 54.722656 18.730469 C 54.722656 18.84375 54.394531 18.953125 53.710938 19.058594 C 53.03125 19.164062 52.152344 19.246094 51.066406 19.3125 C 51.207031 19.164062 51.316406 19.019531 51.40625 18.867188 C 51.484375 18.71875 51.515625 18.570312 51.515625 18.417969 C 51.515625 18.300781 51.460938 18.203125 51.351562 18.121094 C 51.230469 18.039062 51.085938 17.996094 50.910156 17.996094 C 50.496094 17.996094 50.132812 18.109375 49.835938 18.335938 C 49.539062 18.5625 49.394531 18.835938 49.394531 19.152344 C 48.550781 19.257812 47.726562 19.3125 46.945312 19.3125 C 46.859375 19.3125 46.792969 19.300781 46.738281 19.28125 C 46.671875 19.261719 46.648438 19.238281 46.648438 19.207031 L 46.671875 18.925781 C 46.113281 19.015625 45.472656 19.097656 44.761719 19.164062 C 43.277344 19.300781 41.5625 19.367188 39.609375 19.367188 C 39.476562 19.367188 39.355469 19.347656 39.257812 19.304688 C 39.160156 19.261719 39.105469 19.210938 39.105469 19.152344 C 39.105469 19.097656 39.148438 19.046875 39.234375 19.007812 C 39.3125 18.964844 39.421875 18.945312 39.53125 18.945312 C 40.015625 18.945312 40.488281 18.941406 40.9375 18.933594 C 40.914062 18.925781 40.894531 18.921875 40.871094 18.914062 C 40.34375 18.757812 40.070312 18.5625 40.070312 18.335938 Z M 55.152344 18.523438 C 55.152344 18.21875 56.117188 17.878906 58.03125 17.507812 C 59.953125 17.128906 61.699219 16.941406 63.246094 16.941406 C 63.5 16.941406 63.71875 16.964844 63.894531 17.003906 C 64.082031 17.046875 64.167969 17.097656 64.167969 17.152344 C 64.058594 17.570312 64.015625 18.246094 64.015625 19.179688 C 63.796875 19.226562 63.488281 19.257812 63.070312 19.28125 C 62.652344 19.300781 62.148438 19.3125 61.566406 19.3125 C 61.476562 19.3125 61.414062 19.296875 61.359375 19.265625 C 61.292969 19.234375 61.269531 19.199219 61.269531 19.152344 C 61.269531 18.167969 61.292969 17.570312 61.347656 17.363281 C 60.445312 17.476562 59.722656 17.628906 59.183594 17.824219 C 58.632812 18.015625 58.359375 18.214844 58.359375 18.417969 C 58.359375 18.625 58.492188 18.800781 58.753906 18.945312 C 59.007812 19.097656 59.335938 19.183594 59.742188 19.207031 C 59.46875 19.242188 59.171875 19.265625 58.863281 19.285156 C 58.558594 19.304688 58.238281 19.3125 57.898438 19.3125 C 57.292969 19.3125 56.6875 19.226562 56.074219 19.046875 C 55.457031 18.875 55.152344 18.699219 55.152344 18.523438 Z M 61.917969 15.703125 C 61.917969 15.585938 62.039062 15.488281 62.269531 15.40625 C 62.511719 15.324219 62.796875 15.28125 63.136719 15.28125 C 63.476562 15.28125 63.761719 15.324219 64.003906 15.40625 C 64.234375 15.488281 64.355469 15.585938 64.355469 15.703125 C 64.355469 15.820312 64.234375 15.921875 64.003906 16.007812 C 63.761719 16.085938 63.476562 16.128906 63.136719 16.128906 C 62.796875 16.128906 62.511719 16.085938 62.269531 16.007812 C 62.039062 15.921875 61.917969 15.820312 61.917969 15.703125 Z M 55.765625 19.917969 C 55.765625 19.839844 56.007812 19.761719 56.492188 19.683594 C 56.976562 19.605469 57.601562 19.542969 58.359375 19.496094 C 58.359375 19.699219 58.667969 19.902344 59.28125 20.109375 C 59.90625 20.316406 60.511719 20.417969 61.117188 20.417969 C 61.445312 20.417969 61.730469 20.378906 61.972656 20.296875 C 62.203125 20.210938 62.324219 20.113281 62.324219 19.996094 C 62.324219 19.902344 62.269531 19.820312 62.148438 19.753906 C 62.039062 19.6875 61.894531 19.652344 61.71875 19.652344 C 61.511719 19.652344 61.335938 19.6875 61.183594 19.761719 C 61.039062 19.835938 60.960938 19.921875 60.960938 20.023438 C 60.808594 20.015625 60.664062 19.996094 60.523438 19.964844 C 60.378906 19.933594 60.25 19.890625 60.117188 19.835938 C 60.292969 19.679688 60.589844 19.554688 61.027344 19.457031 C 61.457031 19.359375 61.949219 19.3125 62.488281 19.3125 C 63.203125 19.3125 63.816406 19.367188 64.324219 19.484375 C 64.839844 19.59375 65.09375 19.734375 65.09375 19.890625 C 65.09375 20.097656 64.707031 20.273438 63.929688 20.414062 C 63.160156 20.554688 62.226562 20.625 61.117188 20.625 C 59.832031 20.625 58.710938 20.5625 57.753906 20.4375 C 56.800781 20.3125 56.140625 20.140625 55.765625 19.917969 Z M 80.613281 18.574219 C 80.613281 18.660156 80.644531 18.738281 80.699219 18.796875 C 80.753906 18.859375 80.832031 18.890625 80.910156 18.890625 C 81.117188 18.890625 81.21875 18.660156 81.21875 18.207031 L 81.152344 17.914062 C 80.988281 17.96875 80.855469 18.050781 80.753906 18.164062 C 80.65625 18.28125 80.613281 18.417969 80.613281 18.574219 Z M 99.296875 19.207031 C 99.296875 18.179688 99.339844 17.476562 99.441406 17.097656 C 99.96875 16.996094 100.910156 16.941406 102.261719 16.941406 C 102.164062 17.316406 102.121094 18.054688 102.121094 19.152344 C 101.273438 19.257812 100.484375 19.3125 99.757812 19.3125 C 99.628906 19.3125 99.515625 19.300781 99.429688 19.28125 C 99.339844 19.261719 99.296875 19.238281 99.296875 19.207031 Z M 103.515625 18.335938 C 103.515625 18.011719 103.921875 17.734375 104.722656 17.5 C 105.523438 17.269531 106.503906 17.152344 107.644531 17.152344 C 108.085938 17.152344 108.511719 17.195312 108.929688 17.277344 C 109.347656 17.359375 109.578125 17.449219 109.632812 17.546875 C 109.511719 17.515625 109.371094 17.492188 109.214844 17.472656 C 109.0625 17.453125 108.886719 17.445312 108.710938 17.445312 C 108.117188 17.445312 107.613281 17.53125 107.195312 17.703125 C 106.777344 17.878906 106.570312 18.089844 106.570312 18.335938 C 106.570312 18.445312 106.667969 18.539062 106.886719 18.617188 C 107.097656 18.695312 107.347656 18.730469 107.644531 18.730469 C 108.359375 18.730469 108.972656 18.570312 109.480469 18.246094 C 109.984375 17.921875 110.226562 17.535156 110.226562 17.070312 C 110.742188 16.96875 111.652344 16.917969 112.972656 16.917969 C 112.882812 17.296875 112.828125 17.714844 112.828125 18.179688 C 113.058594 17.960938 113.402344 17.792969 113.882812 17.664062 C 114.355469 17.53125 114.871094 17.464844 115.421875 17.464844 C 116.179688 17.464844 116.828125 17.589844 117.367188 17.835938 C 117.90625 18.085938 118.167969 18.382812 118.167969 18.730469 C 118.167969 18.84375 117.828125 18.953125 117.15625 19.058594 C 116.476562 19.164062 115.585938 19.246094 114.5 19.3125 C 114.652344 19.164062 114.761719 19.019531 114.839844 18.867188 C 114.925781 18.71875 114.960938 18.570312 114.960938 18.417969 C 114.960938 18.300781 114.90625 18.203125 114.785156 18.121094 C 114.675781 18.039062 114.53125 17.996094 114.355469 17.996094 C 113.9375 17.996094 113.578125 18.109375 113.28125 18.335938 C 112.984375 18.5625 112.828125 18.835938 112.828125 19.152344 C 111.984375 19.257812 111.171875 19.3125 110.390625 19.3125 C 110.304688 19.3125 110.238281 19.300781 110.171875 19.28125 C 110.117188 19.261719 110.082031 19.238281 110.082031 19.207031 L 110.148438 18.308594 C 109.886719 18.5625 109.402344 18.765625 108.6875 18.917969 C 107.976562 19.074219 107.160156 19.152344 106.261719 19.152344 C 105.503906 19.152344 104.855469 19.074219 104.316406 18.914062 C 103.777344 18.757812 103.515625 18.5625 103.515625 18.335938 Z M 119.199219 19.207031 C 119.199219 18.179688 119.246094 17.476562 119.34375 17.097656 C 119.871094 16.996094 120.816406 16.941406 122.167969 16.941406 C 122.066406 17.316406 122.023438 18.054688 122.023438 19.152344 C 121.179688 19.257812 120.386719 19.3125 119.664062 19.3125 C 119.53125 19.3125 119.421875 19.300781 119.332031 19.28125 C 119.246094 19.261719 119.199219 19.238281 119.199219 19.207031 Z M 122.878906 16.574219 L 134.46875 16.574219 L 134.46875 16.890625 L 128.328125 16.890625 C 128.722656 16.929688 129.054688 16.992188 129.304688 17.078125 C 129.570312 17.167969 129.691406 17.261719 129.691406 17.363281 C 129.691406 17.582031 129.371094 17.769531 128.734375 17.921875 C 128.085938 18.074219 127.316406 18.152344 126.417969 18.152344 C 126.417969 18.3125 126.59375 18.449219 126.933594 18.5625 C 127.261719 18.675781 127.679688 18.730469 128.164062 18.730469 C 128.65625 18.730469 129.128906 18.65625 129.589844 18.5 C 130.0625 18.34375 130.425781 18.140625 130.691406 17.886719 L 130.765625 17.125 C 131.03125 17.078125 131.40625 17.039062 131.867188 17.011719 C 132.328125 16.984375 132.886719 16.96875 133.511719 16.96875 C 133.414062 17.386719 133.359375 18.113281 133.359375 19.152344 C 132.515625 19.257812 131.699219 19.3125 130.910156 19.3125 C 130.832031 19.3125 130.757812 19.296875 130.703125 19.265625 C 130.644531 19.234375 130.613281 19.199219 130.613281 19.152344 L 130.613281 18.523438 C 130.285156 18.714844 129.84375 18.871094 129.304688 18.984375 C 128.757812 19.097656 128.175781 19.152344 127.558594 19.152344 C 126.382812 19.152344 125.375 19.050781 124.527344 18.847656 C 123.691406 18.640625 123.277344 18.394531 123.277344 18.101562 C 123.277344 18.058594 123.339844 18.023438 123.460938 17.988281 C 123.582031 17.957031 123.726562 17.941406 123.902344 17.941406 C 124.660156 17.941406 125.308594 17.886719 125.847656 17.773438 C 126.371094 17.660156 126.648438 17.523438 126.648438 17.363281 C 126.648438 17.246094 126.539062 17.140625 126.339844 17.050781 C 126.140625 16.964844 125.890625 16.910156 125.582031 16.890625 L 96.945312 16.890625 C 97 16.914062 97.035156 16.9375 97.066406 16.964844 C 97.089844 16.992188 97.101562 17.023438 97.101562 17.050781 C 97.101562 17.121094 96.234375 17.207031 94.496094 17.3125 C 93.289062 17.386719 92.671875 17.4375 92.671875 17.464844 C 92.671875 17.527344 92.871094 17.589844 93.253906 17.644531 C 93.640625 17.695312 94.15625 17.746094 94.804688 17.785156 C 95.78125 17.84375 96.585938 17.929688 97.222656 18.035156 C 97.847656 18.144531 98.167969 18.253906 98.167969 18.363281 C 98.167969 18.464844 97.914062 18.582031 97.40625 18.703125 C 96.902344 18.828125 96.441406 18.890625 96.023438 18.890625 C 95.605469 18.890625 95.242188 18.882812 94.957031 18.863281 C 94.671875 18.84375 94.476562 18.820312 94.355469 18.785156 C 94.53125 18.777344 94.671875 18.746094 94.78125 18.695312 C 94.902344 18.648438 94.957031 18.589844 94.957031 18.523438 C 94.957031 18.421875 94.859375 18.328125 94.660156 18.25 C 94.464844 18.167969 94.199219 18.121094 93.902344 18.101562 L 92.378906 18.019531 C 92.144531 18.050781 91.949219 18.109375 91.804688 18.203125 C 91.664062 18.296875 91.597656 18.402344 91.597656 18.523438 C 91.597656 18.722656 91.839844 18.898438 92.332031 19.058594 C 92.828125 19.21875 93.453125 19.320312 94.199219 19.367188 L 92.816406 19.574219 C 91.773438 19.574219 90.871094 19.488281 90.125 19.3125 C 89.378906 19.140625 89.003906 18.929688 89.003906 18.683594 C 89.003906 18.535156 89.203125 18.382812 89.578125 18.222656 C 89.960938 18.0625 90.488281 17.914062 91.148438 17.785156 C 89.925781 17.628906 89.3125 17.527344 89.3125 17.464844 C 89.3125 17.359375 90.125 17.253906 91.75 17.152344 C 93.179688 17.066406 93.902344 16.980469 93.902344 16.890625 L 83.820312 16.890625 C 84.019531 17.082031 84.117188 17.214844 84.117188 17.285156 C 85.46875 17.160156 86.457031 17.097656 87.105469 17.097656 C 87.292969 17.097656 87.457031 17.121094 87.589844 17.164062 C 87.71875 17.203125 87.785156 17.253906 87.785156 17.3125 C 87.730469 17.519531 87.707031 18.132812 87.707031 19.152344 C 86.863281 19.257812 86.070312 19.3125 85.347656 19.3125 C 85.238281 19.3125 85.148438 19.296875 85.074219 19.265625 C 84.996094 19.234375 84.960938 19.199219 84.960938 19.152344 C 84.960938 18.273438 84.984375 17.730469 85.039062 17.519531 C 84.765625 17.519531 84.492188 17.539062 84.203125 17.574219 C 84.203125 18.054688 83.820312 18.464844 83.0625 18.804688 C 82.292969 19.144531 81.382812 19.3125 80.304688 19.3125 C 79.636719 19.3125 79.054688 19.253906 78.582031 19.128906 C 78.109375 19.007812 77.867188 18.859375 77.867188 18.683594 C 77.867188 18.417969 78.164062 18.179688 78.769531 17.957031 C 79.359375 17.738281 80.128906 17.582031 81.074219 17.492188 C 81.074219 17.390625 81.019531 17.289062 80.898438 17.183594 C 80.777344 17.078125 80.613281 16.984375 80.394531 16.890625 L 77.363281 16.890625 L 77.363281 16.574219 Z M 139.28125 16.890625 L 139.28125 16.574219 L 159.863281 16.574219 C 159.632812 16.527344 159.445312 16.464844 159.316406 16.390625 C 159.171875 16.316406 159.105469 16.238281 159.105469 16.152344 C 159.105469 15.957031 159.445312 15.78125 160.136719 15.613281 C 160.820312 15.449219 161.578125 15.363281 162.390625 15.363281 C 162.820312 15.363281 163.214844 15.375 163.542969 15.394531 C 163.882812 15.417969 164.160156 15.453125 164.378906 15.496094 C 164.378906 15.542969 164.246094 15.613281 164.003906 15.699219 C 163.765625 15.789062 163.578125 15.835938 163.457031 15.835938 C 163.226562 15.769531 163.015625 15.71875 162.828125 15.679688 C 162.652344 15.644531 162.511719 15.625 162.390625 15.625 C 162.09375 15.625 161.839844 15.65625 161.632812 15.710938 C 161.421875 15.769531 161.324219 15.835938 161.324219 15.917969 C 161.324219 15.992188 161.414062 16.066406 161.566406 16.140625 C 161.730469 16.21875 161.949219 16.285156 162.226562 16.339844 L 160.480469 16.574219 L 180.535156 16.574219 C 180.109375 16.574219 179.734375 16.554688 179.417969 16.519531 C 179.097656 16.480469 178.867188 16.433594 178.703125 16.367188 L 177.261719 15.890625 C 177.097656 15.824219 176.902344 15.773438 176.636719 15.734375 C 176.382812 15.699219 176.109375 15.679688 175.800781 15.679688 C 175.394531 15.679688 175.199219 15.671875 175.199219 15.652344 C 175.199219 15.640625 175.21875 15.625 175.273438 15.613281 C 175.332031 15.597656 175.40625 15.585938 175.496094 15.570312 L 177.339844 15.414062 C 177.605469 15.378906 177.910156 15.363281 178.242188 15.363281 C 178.375 15.363281 178.515625 15.382812 178.679688 15.417969 C 178.84375 15.457031 179.011719 15.507812 179.164062 15.570312 L 180.691406 16.097656 C 180.867188 16.175781 181.105469 16.238281 181.394531 16.28125 C 181.691406 16.324219 182.007812 16.355469 182.371094 16.367188 C 182.03125 16.433594 181.710938 16.488281 181.394531 16.523438 C 181.085938 16.554688 180.800781 16.574219 180.535156 16.574219 L 184.074219 16.574219 C 183.917969 16.53125 183.808594 16.488281 183.734375 16.441406 C 183.644531 16.394531 183.613281 16.351562 183.613281 16.3125 C 183.613281 16.101562 184.207031 15.894531 185.402344 15.679688 C 186.601562 15.46875 187.785156 15.363281 188.960938 15.363281 C 190.09375 15.363281 191.148438 15.445312 192.113281 15.605469 C 193.09375 15.769531 193.871094 15.996094 194.453125 16.285156 C 194.277344 16.359375 193.960938 16.414062 193.519531 16.457031 C 193.070312 16.5 192.542969 16.519531 191.929688 16.519531 C 191.640625 16.253906 191.214844 16.039062 190.640625 15.875 C 190.070312 15.707031 189.457031 15.625 188.796875 15.625 C 188.292969 15.625 187.785156 15.714844 187.28125 15.890625 C 186.765625 16.066406 186.511719 16.242188 186.511719 16.414062 C 186.511719 16.445312 186.546875 16.480469 186.621094 16.507812 C 186.6875 16.535156 186.777344 16.558594 186.898438 16.574219 L 197.945312 16.574219 L 197.945312 16.890625 L 195.53125 16.890625 C 195.605469 16.914062 195.660156 16.945312 195.695312 16.980469 C 195.738281 17.015625 195.75 17.058594 195.75 17.097656 C 195.75 17.207031 195.476562 17.316406 194.925781 17.4375 C 194.375 17.554688 193.664062 17.65625 192.785156 17.734375 C 192.269531 17.78125 191.839844 17.875 191.511719 18.011719 C 191.191406 18.148438 191.027344 18.300781 191.027344 18.46875 C 191.027344 18.613281 191.160156 18.738281 191.421875 18.839844 C 191.695312 18.945312 192.027344 18.996094 192.398438 18.996094 C 193.070312 18.996094 193.664062 18.910156 194.179688 18.742188 C 194.707031 18.574219 195.023438 18.363281 195.144531 18.101562 C 195.828125 18.101562 196.410156 18.144531 196.882812 18.234375 C 197.351562 18.320312 197.59375 18.425781 197.59375 18.550781 C 197.59375 18.71875 196.992188 18.886719 195.773438 19.058594 C 194.5625 19.226562 193.367188 19.3125 192.167969 19.3125 C 190.972656 19.3125 189.949219 19.230469 189.09375 19.066406 C 188.238281 18.902344 187.820312 18.703125 187.820312 18.46875 C 187.820312 18.28125 188.117188 18.109375 188.71875 17.949219 C 189.324219 17.789062 190.09375 17.679688 191.027344 17.625 C 191.464844 17.601562 191.828125 17.535156 192.113281 17.421875 C 192.398438 17.3125 192.542969 17.1875 192.542969 17.050781 C 192.542969 17.023438 192.53125 16.992188 192.488281 16.964844 C 192.453125 16.9375 192.398438 16.914062 192.324219 16.890625 L 156.65625 16.890625 C 157.0625 16.929688 157.394531 16.992188 157.644531 17.078125 C 157.898438 17.167969 158.03125 17.261719 158.03125 17.363281 C 158.03125 17.582031 157.699219 17.769531 157.0625 17.921875 C 156.425781 18.074219 155.65625 18.152344 154.757812 18.152344 C 154.757812 18.3125 154.921875 18.449219 155.261719 18.5625 C 155.601562 18.675781 156.007812 18.730469 156.503906 18.730469 C 156.988281 18.730469 157.460938 18.65625 157.929688 18.5 C 158.390625 18.34375 158.765625 18.140625 159.03125 17.886719 L 159.105469 17.125 C 159.371094 17.078125 159.730469 17.039062 160.203125 17.011719 C 160.667969 16.984375 161.214844 16.96875 161.851562 16.96875 C 161.742188 17.386719 161.6875 18.113281 161.6875 19.152344 C 160.839844 19.257812 160.027344 19.3125 159.25 19.3125 C 159.160156 19.3125 159.097656 19.296875 159.03125 19.265625 C 158.976562 19.234375 158.941406 19.199219 158.941406 19.152344 L 158.941406 18.523438 C 158.625 18.714844 158.183594 18.871094 157.632812 18.984375 C 157.097656 19.097656 156.515625 19.152344 155.898438 19.152344 C 154.714844 19.152344 153.703125 19.050781 152.867188 18.847656 C 152.03125 18.640625 151.613281 18.394531 151.613281 18.101562 C 151.613281 18.058594 151.671875 18.023438 151.789062 17.988281 C 151.910156 17.957031 152.066406 17.941406 152.230469 17.941406 C 152.988281 17.941406 153.636719 17.886719 154.175781 17.773438 C 154.714844 17.660156 154.976562 17.523438 154.976562 17.363281 C 154.976562 17.246094 154.878906 17.140625 154.679688 17.050781 C 154.472656 16.964844 154.21875 16.910156 153.910156 16.890625 L 144.496094 16.890625 C 144.960938 16.949219 145.320312 17.042969 145.605469 17.167969 C 145.882812 17.289062 146.023438 17.425781 146.023438 17.574219 C 146.023438 17.746094 145.640625 17.914062 144.859375 18.070312 C 144.082031 18.230469 143.101562 18.347656 141.917969 18.417969 C 142.269531 18.441406 142.609375 18.476562 142.949219 18.523438 C 143.289062 18.570312 143.609375 18.632812 143.894531 18.703125 C 144.15625 18.765625 144.386719 18.8125 144.585938 18.84375 C 144.792969 18.875 144.96875 18.890625 145.125 18.890625 C 145.277344 18.890625 145.429688 18.886719 145.585938 18.878906 C 145.726562 18.867188 145.882812 18.851562 146.023438 18.835938 L 146.1875 18.890625 C 145.957031 19.023438 145.707031 19.125 145.410156 19.199219 C 145.113281 19.273438 144.804688 19.3125 144.496094 19.3125 C 144.046875 19.3125 143.597656 19.28125 143.15625 19.226562 C 142.707031 19.164062 142.300781 19.082031 141.917969 18.972656 C 141.464844 18.84375 141.070312 18.746094 140.730469 18.675781 C 140.390625 18.609375 140.125 18.574219 139.929688 18.574219 C 139.894531 18.574219 139.796875 18.59375 139.609375 18.628906 L 139.929688 18.101562 L 140.992188 18.101562 C 141.542969 18.101562 142.015625 18.039062 142.398438 17.914062 C 142.785156 17.792969 142.980469 17.644531 142.980469 17.464844 C 142.980469 17.359375 142.828125 17.25 142.519531 17.144531 C 142.210938 17.039062 141.804688 16.953125 141.289062 16.890625 Z M 145.882812 17.839844 C 146.132812 17.839844 146.410156 17.820312 146.695312 17.785156 C 146.980469 17.746094 147.265625 17.695312 147.550781 17.625 L 147.628906 17.125 C 147.890625 17.078125 148.253906 17.039062 148.726562 17.011719 C 149.1875 16.984375 149.738281 16.96875 150.375 16.96875 C 150.273438 17.34375 150.230469 18.070312 150.230469 19.152344 C 149.386719 19.257812 148.59375 19.3125 147.871094 19.3125 C 147.757812 19.3125 147.671875 19.296875 147.59375 19.265625 C 147.515625 19.234375 147.484375 19.199219 147.484375 19.152344 L 147.550781 17.996094 C 147.296875 18.050781 147.058594 18.085938 146.816406 18.113281 C 146.585938 18.136719 146.375 18.152344 146.1875 18.152344 C 146.101562 18.152344 146.023438 18.140625 145.96875 18.121094 C 145.914062 18.101562 145.882812 18.078125 145.882812 18.046875 Z M 142.289062 19.917969 C 142.289062 19.839844 142.53125 19.761719 143.015625 19.683594 C 143.5 19.605469 144.125 19.542969 144.882812 19.496094 C 144.882812 19.699219 145.191406 19.902344 145.816406 20.109375 C 146.429688 20.316406 147.046875 20.417969 147.640625 20.417969 C 147.96875 20.417969 148.253906 20.378906 148.496094 20.296875 C 148.726562 20.210938 148.847656 20.113281 148.847656 19.996094 C 148.847656 19.902344 148.792969 19.820312 148.671875 19.753906 C 148.5625 19.6875 148.417969 19.652344 148.242188 19.652344 C 148.035156 19.652344 147.859375 19.6875 147.703125 19.761719 C 147.5625 19.835938 147.484375 19.921875 147.484375 20.023438 C 147.34375 20.015625 147.1875 19.996094 147.046875 19.964844 C 146.902344 19.933594 146.773438 19.890625 146.640625 19.835938 C 146.816406 19.679688 147.109375 19.554688 147.550781 19.457031 C 147.980469 19.359375 148.472656 19.3125 149.011719 19.3125 C 149.726562 19.3125 150.339844 19.367188 150.847656 19.484375 C 151.363281 19.59375 151.613281 19.734375 151.613281 19.890625 C 151.613281 20.097656 151.230469 20.273438 150.449219 20.414062 C 149.679688 20.554688 148.75 20.625 147.640625 20.625 C 146.355469 20.625 145.234375 20.5625 144.277344 20.4375 C 143.324219 20.3125 142.664062 20.140625 142.289062 19.917969 Z M 163.226562 18.335938 C 163.226562 18.011719 163.632812 17.734375 164.433594 17.5 C 165.234375 17.269531 166.214844 17.152344 167.355469 17.152344 C 167.804688 17.152344 168.234375 17.195312 168.640625 17.277344 C 169.058594 17.359375 169.289062 17.449219 169.34375 17.546875 C 169.222656 17.515625 169.089844 17.492188 168.925781 17.472656 C 168.773438 17.453125 168.597656 17.445312 168.421875 17.445312 C 167.828125 17.445312 167.324219 17.53125 166.90625 17.703125 C 166.488281 17.878906 166.28125 18.089844 166.28125 18.335938 C 166.28125 18.445312 166.390625 18.539062 166.597656 18.617188 C 166.808594 18.695312 167.058594 18.730469 167.355469 18.730469 C 168.082031 18.730469 168.683594 18.570312 169.191406 18.246094 C 169.695312 17.921875 169.949219 17.535156 169.949219 17.070312 C 170.453125 16.96875 171.363281 16.917969 172.695312 16.917969 C 172.59375 17.296875 172.550781 17.714844 172.550781 18.179688 C 172.769531 17.960938 173.121094 17.792969 173.59375 17.664062 C 174.066406 17.53125 174.582031 17.464844 175.132812 17.464844 C 175.902344 17.464844 176.550781 17.589844 177.078125 17.835938 C 177.613281 18.085938 177.878906 18.382812 177.878906 18.730469 C 177.878906 18.84375 177.550781 18.953125 176.867188 19.058594 C 176.1875 19.164062 175.308594 19.246094 174.210938 19.3125 C 174.363281 19.164062 174.472656 19.019531 174.5625 18.867188 C 174.636719 18.71875 174.671875 18.570312 174.671875 18.417969 C 174.671875 18.300781 174.617188 18.203125 174.507812 18.121094 C 174.386719 18.039062 174.242188 17.996094 174.066406 17.996094 C 173.648438 17.996094 173.285156 18.109375 172.992188 18.335938 C 172.695312 18.5625 172.550781 18.835938 172.550781 19.152344 C 171.707031 19.257812 170.882812 19.3125 170.101562 19.3125 C 170.011719 19.3125 169.949219 19.300781 169.894531 19.28125 C 169.828125 19.261719 169.804688 19.238281 169.804688 19.207031 L 169.871094 18.308594 C 169.597656 18.5625 169.113281 18.765625 168.398438 18.917969 C 167.683594 19.074219 166.871094 19.152344 165.972656 19.152344 C 165.214844 19.152344 164.566406 19.074219 164.027344 18.914062 C 163.5 18.757812 163.226562 18.5625 163.226562 18.335938 Z M 178.910156 19.207031 C 178.910156 18.179688 178.964844 17.476562 179.054688 17.097656 C 179.582031 16.996094 180.527344 16.941406 181.875 16.941406 C 181.789062 17.316406 181.734375 18.054688 181.734375 19.152344 C 180.890625 19.257812 180.109375 19.3125 179.371094 19.3125 C 179.25 19.3125 179.140625 19.300781 179.042969 19.28125 C 178.957031 19.261719 178.910156 19.238281 178.910156 19.207031 Z M 183.765625 19.101562 C 183.765625 18.125 183.820312 17.449219 183.910156 17.070312 C 184.425781 16.96875 185.335938 16.917969 186.65625 16.917969 C 186.566406 17.296875 186.511719 18.039062 186.511719 19.152344 C 185.667969 19.257812 184.953125 19.3125 184.371094 19.3125 C 184.207031 19.3125 184.0625 19.292969 183.941406 19.253906 C 183.832031 19.210938 183.765625 19.164062 183.765625 19.101562 Z M 240.28125 16.890625 L 240.292969 16.574219 L 245.144531 16.574219 L 245.144531 16.890625 Z M 229.527344 18.613281 L 229.546875 18.363281 C 229.339844 18.488281 229.109375 18.597656 228.835938 18.691406 C 229.074219 18.667969 229.304688 18.640625 229.527344 18.613281 Z M 199.75 16.890625 L 199.75 16.574219 L 233.328125 16.574219 L 233.328125 16.890625 L 227.40625 16.890625 C 227.011719 17.050781 226.714844 17.234375 226.496094 17.445312 C 226.285156 17.652344 226.1875 17.875 226.1875 18.101562 C 226.1875 18.226562 226.285156 18.332031 226.496094 18.417969 C 226.714844 18.507812 226.96875 18.550781 227.265625 18.550781 C 227.726562 18.550781 228.164062 18.484375 228.59375 18.355469 C 229 18.226562 229.328125 18.054688 229.546875 17.839844 L 229.625 17.152344 C 229.933594 17.09375 230.316406 17.046875 230.789062 17.015625 C 231.25 16.984375 231.777344 16.96875 232.371094 16.96875 C 232.273438 17.386719 232.21875 18.121094 232.21875 19.179688 C 231.996094 19.226562 231.679688 19.257812 231.25 19.28125 C 230.824219 19.300781 230.304688 19.3125 229.703125 19.3125 C 229.648438 19.3125 229.59375 19.300781 229.539062 19.28125 C 229.492188 19.261719 229.472656 19.238281 229.472656 19.207031 L 229.480469 18.992188 C 229.042969 19.054688 228.546875 19.113281 228.011719 19.164062 C 226.527344 19.300781 224.816406 19.367188 222.859375 19.367188 C 222.726562 19.367188 222.605469 19.347656 222.507812 19.304688 C 222.410156 19.261719 222.355469 19.210938 222.355469 19.152344 C 222.355469 19.097656 222.398438 19.046875 222.484375 19.007812 C 222.5625 18.964844 222.671875 18.945312 222.78125 18.945312 C 223.527344 18.945312 224.242188 18.9375 224.933594 18.917969 C 224.683594 18.871094 224.441406 18.8125 224.230469 18.742188 C 223.605469 18.539062 223.296875 18.289062 223.296875 17.996094 C 223.296875 17.84375 223.386719 17.675781 223.5625 17.488281 C 223.738281 17.296875 224.011719 17.097656 224.351562 16.890625 L 218.003906 16.890625 C 218.210938 17.082031 218.3125 17.214844 218.3125 17.285156 C 219.652344 17.160156 220.652344 17.097656 221.300781 17.097656 C 221.484375 17.097656 221.640625 17.121094 221.78125 17.164062 C 221.914062 17.203125 221.980469 17.253906 221.980469 17.3125 C 221.925781 17.519531 221.890625 18.132812 221.890625 19.152344 C 221.046875 19.257812 220.265625 19.3125 219.53125 19.3125 C 219.421875 19.3125 219.332031 19.296875 219.265625 19.265625 C 219.191406 19.234375 219.144531 19.199219 219.144531 19.152344 C 219.144531 18.273438 219.179688 17.730469 219.234375 17.519531 C 218.960938 17.519531 218.671875 17.539062 218.386719 17.574219 C 218.386719 18.054688 218.003906 18.464844 217.246094 18.804688 C 216.488281 19.144531 215.566406 19.3125 214.5 19.3125 C 213.820312 19.3125 213.25 19.253906 212.765625 19.128906 C 212.292969 19.007812 212.050781 18.859375 212.050781 18.683594 C 212.050781 18.417969 212.359375 18.179688 212.953125 17.957031 C 213.542969 17.738281 214.324219 17.582031 215.257812 17.492188 C 215.257812 17.390625 215.203125 17.289062 215.082031 17.183594 C 214.972656 17.078125 214.796875 16.984375 214.578125 16.890625 L 204.976562 16.890625 C 205.425781 16.949219 205.800781 17.042969 206.074219 17.167969 C 206.359375 17.289062 206.503906 17.425781 206.503906 17.574219 C 206.503906 17.746094 206.109375 17.914062 205.328125 18.070312 C 204.558594 18.230469 203.570312 18.347656 202.382812 18.417969 C 202.734375 18.441406 203.078125 18.476562 203.417969 18.523438 C 203.757812 18.570312 204.074219 18.632812 204.371094 18.703125 C 204.625 18.765625 204.855469 18.8125 205.066406 18.84375 C 205.273438 18.875 205.449219 18.890625 205.589844 18.890625 C 205.757812 18.890625 205.910156 18.886719 206.050781 18.878906 C 206.207031 18.867188 206.347656 18.851562 206.503906 18.835938 L 206.65625 18.890625 C 206.4375 19.023438 206.175781 19.125 205.878906 19.199219 C 205.582031 19.273438 205.285156 19.3125 204.976562 19.3125 C 204.515625 19.3125 204.074219 19.28125 203.625 19.226562 C 203.1875 19.164062 202.769531 19.082031 202.382812 18.972656 C 201.945312 18.84375 201.550781 18.746094 201.210938 18.675781 C 200.859375 18.609375 200.59375 18.574219 200.40625 18.574219 C 200.375 18.574219 200.265625 18.59375 200.089844 18.628906 L 200.40625 18.101562 L 201.460938 18.101562 C 202.023438 18.101562 202.484375 18.039062 202.867188 17.914062 C 203.253906 17.792969 203.449219 17.644531 203.449219 17.464844 C 203.449219 17.359375 203.296875 17.25 202.988281 17.144531 C 202.679688 17.039062 202.273438 16.953125 201.769531 16.890625 Z M 206.359375 17.839844 C 206.613281 17.839844 206.875 17.820312 207.164062 17.785156 C 207.449219 17.746094 207.734375 17.695312 208.019531 17.625 L 208.105469 17.125 C 208.371094 17.078125 208.734375 17.039062 209.195312 17.011719 C 209.667969 16.984375 210.214844 16.96875 210.851562 16.96875 C 210.753906 17.34375 210.710938 18.070312 210.710938 19.152344 C 209.863281 19.257812 209.074219 19.3125 208.335938 19.3125 C 208.238281 19.3125 208.140625 19.296875 208.074219 19.265625 C 207.996094 19.234375 207.964844 19.199219 207.964844 19.152344 L 208.019531 17.996094 C 207.765625 18.050781 207.523438 18.085938 207.292969 18.113281 C 207.0625 18.136719 206.84375 18.152344 206.65625 18.152344 C 206.570312 18.152344 206.503906 18.140625 206.449219 18.121094 C 206.382812 18.101562 206.359375 18.078125 206.359375 18.046875 L 206.359375 17.839844 "/>
</g>
</svg>
